<svg width="35" height="35" viewBox="0 0 35 35" fill="none" xmlns="http://www.w3.org/2000/svg">
<path fill-rule="evenodd" clip-rule="evenodd" d="M31.7843 23.0344C29.0158 24.1085 25.9946 24.3544 23.0888 23.7422C20.183 23.13 17.5179 21.6861 15.4181 19.5862C13.3182 17.4864 11.8743 14.8213 11.2621 11.9155C10.6499 9.00968 10.8958 5.98854 11.9699 3.22C8.64445 4.51598 5.87584 6.93245 4.14214 10.0522C2.40844 13.1719 1.81846 16.7991 2.47408 20.3075C3.12969 23.8158 4.98974 26.9852 7.73308 29.2683C10.4764 31.5514 13.9309 32.8049 17.4999 32.8125C20.5893 32.8133 23.6066 31.8799 26.1559 30.1349C28.7052 28.3898 30.6672 25.9147 31.7843 23.0344Z" fill="white"/>
</svg>
