<svg width="98" height="18" viewBox="0 0 98 18" fill="none" xmlns="http://www.w3.org/2000/svg">
<path d="M0.605225 13.1548C0.605225 11.9362 1.06368 10.778 1.98061 9.68014C2.89753 8.58225 3.92906 8.02727 5.07521 8.0152C5.69051 8.0152 6.23343 8.31079 6.70395 8.90196C6.89699 8.54002 7.17448 8.35905 7.53642 8.35905C7.69326 8.35905 7.832 8.40731 7.95265 8.50383C8.0733 8.60034 8.13362 8.72099 8.13362 8.86577C8.13362 9.02261 7.91043 9.98779 7.46403 11.7613C7.01763 13.5348 6.7884 14.5362 6.77634 14.7654C6.77634 15.067 6.81857 15.2661 6.90302 15.3626C6.98747 15.4591 7.11415 15.5134 7.28306 15.5255C7.39164 15.5134 7.51229 15.4591 7.645 15.3626C7.89836 15.1213 8.14569 14.5422 8.38698 13.6253C8.45937 13.384 8.51969 13.2573 8.56795 13.2453C8.59208 13.2332 8.65241 13.2272 8.74893 13.2272H8.82131C9.05054 13.2272 9.16516 13.2815 9.16516 13.39C9.16516 13.4624 9.135 13.6253 9.07467 13.8787C9.01435 14.132 8.8937 14.4578 8.71273 14.8559C8.53176 15.254 8.33872 15.5557 8.13362 15.7608C7.97678 15.9176 7.78375 16.0443 7.55452 16.1408C7.458 16.1649 7.31322 16.177 7.12018 16.177C6.70998 16.177 6.36614 16.0865 6.08865 15.9055C5.81116 15.7246 5.63019 15.5376 5.54574 15.3445L5.43715 15.0731C5.42509 15.061 5.40096 15.067 5.36477 15.0912C5.34064 15.1153 5.31651 15.1394 5.29238 15.1636C4.58056 15.8392 3.85667 16.177 3.12072 16.177C2.45716 16.177 1.87202 15.9357 1.3653 15.4531C0.858584 14.9705 0.605225 14.2044 0.605225 13.1548ZM6.36011 10.0602C6.36011 9.98779 6.32994 9.85508 6.26962 9.66204C6.2093 9.46901 6.07055 9.25787 5.85339 9.02864C5.63622 8.79941 5.35873 8.67877 5.02092 8.6667C4.59865 8.6667 4.19449 8.8537 3.80841 9.22771C3.42234 9.60172 3.12072 10.0903 2.90356 10.6936C2.55368 11.6467 2.30635 12.636 2.16158 13.6615C2.16158 13.6977 2.16158 13.7641 2.16158 13.8606C2.16158 13.9571 2.15554 14.0295 2.14348 14.0777C2.14348 14.6207 2.25206 14.9947 2.46923 15.1998C2.68639 15.4049 2.94578 15.5134 3.2474 15.5255C3.70586 15.5255 4.15829 15.3264 4.60469 14.9283C5.05108 14.5302 5.31651 14.2225 5.40096 14.0053C5.42509 13.9571 5.58796 13.3116 5.88958 12.069C6.1912 10.8263 6.34804 10.1567 6.36011 10.0602Z" fill="#9DB2BC"/>
<path d="M10.5225 10.766C10.6069 10.2592 10.9327 9.67411 11.4997 9.01055C12.0668 8.34698 12.7665 8.00917 13.599 7.99711C14.0213 7.99711 14.4073 8.10569 14.7572 8.32285C15.1071 8.54002 15.3665 8.81148 15.5354 9.13723C16.0421 8.37715 16.6514 7.99711 17.3632 7.99711C17.8096 7.99711 18.1957 8.12982 18.5214 8.39524C18.8472 8.66067 19.0161 9.01658 19.0281 9.46297C19.0281 9.81285 18.9437 10.0964 18.7748 10.3135C18.6059 10.5307 18.443 10.6634 18.2862 10.7117C18.1293 10.7599 17.9906 10.7841 17.8699 10.7841C17.6407 10.7841 17.4537 10.7177 17.3089 10.585C17.1641 10.4523 17.0917 10.2773 17.0917 10.0602C17.0917 9.5052 17.3934 9.12516 17.9966 8.92006C17.8639 8.76322 17.6226 8.6848 17.2727 8.6848C17.1159 8.6848 17.0013 8.69686 16.9289 8.72099C16.4704 8.91403 16.1326 9.31216 15.9154 9.9154C15.1915 12.5817 14.8296 14.1381 14.8296 14.5845C14.8296 14.9223 14.9261 15.1636 15.1192 15.3083C15.3122 15.4531 15.5233 15.5255 15.7526 15.5255C16.199 15.5255 16.6393 15.3264 17.0736 14.9283C17.508 14.5302 17.8036 14.0415 17.9604 13.4624C17.9966 13.3418 18.0328 13.2754 18.069 13.2634C18.1052 13.2513 18.2017 13.2392 18.3585 13.2272H18.4309C18.6119 13.2272 18.7024 13.2754 18.7024 13.3719C18.7024 13.384 18.6903 13.4504 18.6662 13.571C18.4732 14.2587 18.0992 14.868 17.5442 15.3988C16.9892 15.9297 16.3437 16.1951 15.6078 16.1951C14.7633 16.1951 14.1238 15.8151 13.6895 15.055C13.1948 15.803 12.6278 16.177 11.9884 16.177H11.8798C11.2886 16.177 10.8663 16.0202 10.613 15.7065C10.3596 15.3928 10.2269 15.061 10.2148 14.7111C10.2148 14.3251 10.3295 14.0114 10.5587 13.7701C10.7879 13.5288 11.0594 13.4081 11.3731 13.4081C11.8918 13.4081 12.1512 13.6615 12.1512 14.1682C12.1512 14.4095 12.0788 14.6207 11.9341 14.8016C11.7893 14.9826 11.6505 15.1032 11.5178 15.1636C11.3851 15.2239 11.3067 15.254 11.2826 15.254L11.2283 15.2721C11.2283 15.2842 11.2645 15.3083 11.3369 15.3445C11.4093 15.3807 11.5058 15.423 11.6264 15.4712C11.7471 15.5195 11.8617 15.5376 11.9703 15.5255C12.4046 15.5255 12.7786 15.254 13.0923 14.7111C13.2009 14.5181 13.3396 14.1079 13.5085 13.4805C13.6774 12.8532 13.8463 12.2017 14.0152 11.526C14.1841 10.8504 14.2807 10.4523 14.3048 10.3316C14.3651 10.0059 14.3953 9.77062 14.3953 9.62585C14.3953 9.28803 14.3048 9.04674 14.1238 8.90196C13.9428 8.75719 13.7377 8.6848 13.5085 8.6848C13.0259 8.6848 12.5735 8.87783 12.1512 9.26391C11.729 9.64998 11.4334 10.1446 11.2645 10.7479C11.2403 10.8565 11.2102 10.9168 11.174 10.9288C11.1378 10.9409 11.0413 10.953 10.8844 10.965H10.6311C10.5587 10.8926 10.5225 10.8263 10.5225 10.766Z" fill="#9DB2BC"/>
<path d="M21.3276 3.03302C21.0973 3.03302 20.9139 2.95625 20.7775 2.80271C20.641 2.64918 20.5728 2.46152 20.5728 2.23975C20.5728 1.63414 20.7988 1.10956 21.2509 0.666007C21.7029 0.222459 22.2659 0.000684738 22.9398 0.000684738C23.716 0.000684738 24.3642 0.239518 24.8846 0.717186C25.4049 1.19485 25.6693 1.81326 25.6778 2.57241C25.6778 2.93919 25.5925 3.28891 25.4219 3.62157C25.2513 3.95423 25.0466 4.24425 24.8078 4.49161C24.569 4.73897 24.2278 5.05457 23.7842 5.43841C23.4771 5.70284 23.0507 6.09521 22.5047 6.61552L21.7499 7.33202L22.7223 7.34482C24.0614 7.34482 24.7737 7.32349 24.859 7.28085C24.9187 7.26379 25.021 6.88421 25.166 6.14212V6.10374H25.6778V6.14212C25.6693 6.16771 25.6138 6.55581 25.5115 7.30643C25.4091 8.05705 25.3452 8.44942 25.3196 8.48354V8.52193H20.5728V8.27883V8.12529C20.5728 8.06558 20.5983 8.00161 20.6495 7.93337C20.7007 7.86513 20.8286 7.71586 21.0334 7.48556C21.2807 7.21261 21.494 6.97377 21.6731 6.76906C21.7499 6.68376 21.8949 6.52596 22.1081 6.29566C22.3214 6.06535 22.4664 5.90755 22.5431 5.82225C22.6199 5.73696 22.7436 5.59622 22.9142 5.40003C23.0848 5.20385 23.2042 5.05884 23.2724 4.96501C23.3407 4.87118 23.4388 4.74324 23.5667 4.58117C23.6947 4.41911 23.7842 4.28263 23.8354 4.17174C23.8866 4.06086 23.9505 3.93717 24.0273 3.8007C24.1041 3.66422 24.1595 3.52775 24.1936 3.39127C24.2278 3.25479 24.2576 3.12685 24.2832 3.00743C24.3088 2.88801 24.3216 2.74727 24.3216 2.58521C24.3216 2.04783 24.1766 1.58296 23.8866 1.19059C23.5966 0.798219 23.1829 0.602034 22.6455 0.602034C22.364 0.602034 22.1166 0.674537 21.9034 0.819543C21.6902 0.964549 21.5409 1.10529 21.4556 1.24177C21.3703 1.37824 21.3276 1.45928 21.3276 1.48487C21.3276 1.49339 21.349 1.49766 21.3916 1.49766C21.5451 1.49766 21.7029 1.55737 21.865 1.67678C22.0271 1.7962 22.1081 1.99239 22.1081 2.26534C22.1081 2.47858 22.0399 2.65771 21.9034 2.80271C21.7669 2.94772 21.575 3.02449 21.3276 3.03302Z" fill="#9DB2BC"/>
<path d="M32.2716 11.707C32.2716 11.707 32.2716 11.6286 32.2716 11.4718C32.2716 11.3149 32.3561 11.1943 32.525 11.1098H37.936V8.39525L37.9541 5.68068C38.0747 5.52384 38.1894 5.44542 38.2979 5.44542C38.4548 5.44542 38.5754 5.5359 38.6599 5.71687V11.1098H44.0528C44.2338 11.2063 44.3243 11.327 44.3243 11.4718C44.3243 11.6165 44.2338 11.7372 44.0528 11.8337H38.6599V17.2266C38.5634 17.3955 38.4548 17.48 38.3341 17.48H38.2979H38.2618C38.117 17.48 38.0084 17.3955 37.936 17.2266V11.8337H32.525C32.3561 11.7492 32.2716 11.6286 32.2716 11.4718V11.707Z" fill="#9DB2BC"/>
<path d="M50.68 4.2872C50.68 4.16655 50.7041 4.02781 50.7524 3.87097C50.8006 3.71412 50.873 3.6357 50.9695 3.6357C50.9816 3.6357 51.4159 3.60554 52.2725 3.54522C53.1291 3.48489 53.5695 3.4487 53.5936 3.43664C53.7384 3.43664 53.8108 3.49093 53.8108 3.59951C53.8108 3.70809 53.6057 4.57072 53.1955 6.1874C53.0989 6.5976 52.9964 7.01986 52.8878 7.45419C52.7792 7.88852 52.6887 8.21427 52.6164 8.43144L52.544 8.77528C52.544 8.81148 52.5802 8.79338 52.6526 8.72099C53.2437 8.2384 53.853 7.99711 54.4804 7.99711C55.2284 7.99711 55.8316 8.2746 56.2901 8.82957C56.7485 9.38455 56.9838 10.0843 56.9959 10.9288C56.9959 12.268 56.5193 13.4805 55.5662 14.5664C54.6131 15.6522 53.5876 16.1951 52.4897 16.1951C51.8864 16.1951 51.3375 15.9659 50.8428 15.5074C50.3482 15.0489 50.0948 14.307 50.0828 13.2815V13.1186C50.0828 12.8652 50.131 12.5154 50.2275 12.069C50.3241 11.6226 50.6196 10.4342 51.1143 8.50383C51.7175 6.12707 52.0192 4.86631 52.0192 4.72153C52.0192 4.57675 51.7899 4.4923 51.3315 4.46817C51.2711 4.46817 51.2229 4.46817 51.1867 4.46817H51.0962C50.9756 4.46817 50.8971 4.46817 50.8609 4.46817C50.8247 4.46817 50.7825 4.45007 50.7343 4.41388C50.686 4.37768 50.6679 4.33546 50.68 4.2872ZM55.4395 10.1145V10.0059C55.4395 9.1131 55.0715 8.6667 54.3356 8.6667C54.1305 8.6667 53.9194 8.71496 53.7022 8.81148C53.485 8.908 53.286 9.03468 53.105 9.19152C52.924 9.34836 52.7672 9.49313 52.6345 9.62585C52.5017 9.75856 52.3932 9.89127 52.3087 10.024L52.2001 10.1688L51.8201 11.7251C51.5547 12.7627 51.4219 13.4986 51.4219 13.933C51.4219 14.5121 51.5667 14.9464 51.8563 15.236C52.0493 15.429 52.2906 15.5255 52.5802 15.5255C52.9783 15.5255 53.3825 15.3325 53.7927 14.9464C54.0943 14.6689 54.3356 14.3311 54.5166 13.933C54.6975 13.5348 54.8966 12.9014 55.1138 12.0328C55.3309 11.1641 55.4395 10.5247 55.4395 10.1145Z" fill="#9DB2BC"/>
<path d="M58.0635 10.766C58.148 10.2592 58.4737 9.67411 59.0408 9.01055C59.6078 8.34698 60.3076 8.00917 61.14 7.99711C61.5623 7.99711 61.9484 8.10569 62.2982 8.32285C62.6481 8.54002 62.9075 8.81148 63.0764 9.13723C63.5831 8.37715 64.1924 7.99711 64.9042 7.99711C65.3506 7.99711 65.7367 8.12982 66.0624 8.39524C66.3882 8.66067 66.5571 9.01658 66.5692 9.46297C66.5692 9.81285 66.4847 10.0964 66.3158 10.3135C66.1469 10.5307 65.984 10.6634 65.8272 10.7117C65.6703 10.7599 65.5316 10.7841 65.4109 10.7841C65.1817 10.7841 64.9947 10.7177 64.8499 10.585C64.7052 10.4523 64.6328 10.2773 64.6328 10.0602C64.6328 9.5052 64.9344 9.12516 65.5376 8.92006C65.4049 8.76322 65.1636 8.6848 64.8137 8.6848C64.6569 8.6848 64.5423 8.69686 64.4699 8.72099C64.0114 8.91403 63.6736 9.31216 63.4564 9.9154C62.7326 12.5817 62.3706 14.1381 62.3706 14.5845C62.3706 14.9223 62.4671 15.1636 62.6602 15.3083C62.8532 15.4531 63.0643 15.5255 63.2936 15.5255C63.74 15.5255 64.1803 15.3264 64.6147 14.9283C65.049 14.5302 65.3446 14.0415 65.5014 13.4624C65.5376 13.3418 65.5738 13.2754 65.61 13.2634C65.6462 13.2513 65.7427 13.2392 65.8996 13.2272H65.9719C66.1529 13.2272 66.2434 13.2754 66.2434 13.3719C66.2434 13.384 66.2313 13.4504 66.2072 13.571C66.0142 14.2587 65.6402 14.868 65.0852 15.3988C64.5302 15.9297 63.8847 16.1951 63.1488 16.1951C62.3043 16.1951 61.6648 15.8151 61.2305 15.055C60.7359 15.803 60.1688 16.177 59.5294 16.177H59.4208C58.8296 16.177 58.4074 16.0202 58.154 15.7065C57.9006 15.3928 57.7679 15.061 57.7559 14.7111C57.7559 14.3251 57.8705 14.0114 58.0997 13.7701C58.3289 13.5288 58.6004 13.4081 58.9141 13.4081C59.4329 13.4081 59.6923 13.6615 59.6923 14.1682C59.6923 14.4095 59.6199 14.6207 59.4751 14.8016C59.3303 14.9826 59.1916 15.1032 59.0589 15.1636C58.9261 15.2239 58.8477 15.254 58.8236 15.254L58.7693 15.2721C58.7693 15.2842 58.8055 15.3083 58.8779 15.3445C58.9503 15.3807 59.0468 15.423 59.1674 15.4712C59.2881 15.5195 59.4027 15.5376 59.5113 15.5255C59.9456 15.5255 60.3196 15.254 60.6333 14.7111C60.7419 14.5181 60.8806 14.1079 61.0495 13.4805C61.2184 12.8532 61.3873 12.2017 61.5563 11.526C61.7252 10.8504 61.8217 10.4523 61.8458 10.3316C61.9061 10.0059 61.9363 9.77062 61.9363 9.62585C61.9363 9.28803 61.8458 9.04674 61.6648 8.90196C61.4839 8.75719 61.2788 8.6848 61.0495 8.6848C60.5669 8.6848 60.1145 8.87783 59.6923 9.26391C59.27 9.64998 58.9744 10.1446 58.8055 10.7479C58.7814 10.8565 58.7512 10.9168 58.715 10.9288C58.6788 10.9409 58.5823 10.953 58.4255 10.965H58.1721C58.0997 10.8926 58.0635 10.8263 58.0635 10.766Z" fill="#9DB2BC"/>
<path d="M72.5087 11.707C72.5087 11.707 72.5087 11.6286 72.5087 11.4718C72.5087 11.3149 72.5931 11.1943 72.762 11.1098H78.1731V8.39525L78.1912 5.68068C78.3118 5.52384 78.4264 5.44542 78.535 5.44542C78.6918 5.44542 78.8125 5.5359 78.8969 5.71687V11.1098H84.2899C84.4709 11.2063 84.5613 11.327 84.5613 11.4718C84.5613 11.6165 84.4709 11.7372 84.2899 11.8337H78.8969V17.2266C78.8004 17.3955 78.6918 17.48 78.5712 17.48H78.535H78.4988C78.354 17.48 78.2455 17.3955 78.1731 17.2266V11.8337H72.762C72.5931 11.7492 72.5087 11.6286 72.5087 11.4718V11.707Z" fill="#9DB2BC"/>
<path d="M90.2113 13.1186C90.2113 11.8035 90.7301 10.6212 91.7677 9.57156C92.8052 8.52193 93.9272 7.99711 95.1337 7.99711C95.8093 7.99711 96.3402 8.14189 96.7263 8.43144C97.1123 8.721 97.3114 9.10103 97.3235 9.57156C97.3235 9.92144 97.2089 10.217 96.9796 10.4583C96.7504 10.6996 96.4608 10.8263 96.111 10.8384C95.8817 10.8384 95.7008 10.778 95.568 10.6574C95.4353 10.5367 95.369 10.3558 95.369 10.1145C95.369 9.87318 95.4353 9.66808 95.568 9.49917C95.7008 9.33026 95.8335 9.20358 95.9662 9.11913C96.0989 9.03468 96.1834 8.99848 96.2195 9.01055H96.2376C96.2376 8.98642 96.2014 8.95023 96.1291 8.90197C96.0567 8.85371 95.93 8.80545 95.749 8.75719C95.568 8.70893 95.3629 8.6848 95.1337 8.6848C94.7718 8.6848 94.4279 8.76925 94.1022 8.93816C93.8488 9.04674 93.5894 9.23375 93.324 9.49917C92.7932 10.03 92.4071 10.778 92.1658 11.7432C91.9245 12.7084 91.7978 13.4081 91.7858 13.8425C91.7858 14.3975 91.9426 14.8137 92.2563 15.0912C92.5217 15.3807 92.8716 15.5255 93.3059 15.5255H93.3783C94.7295 15.5255 95.8455 15.0128 96.7263 13.9873C96.8348 13.8666 96.9072 13.8063 96.9434 13.8063C96.9917 13.8063 97.0701 13.8606 97.1787 13.9692C97.2873 14.0777 97.3476 14.1622 97.3597 14.2225C97.3717 14.2828 97.3174 14.3733 97.1968 14.494C97.0761 14.6146 96.9012 14.7835 96.672 15.0007C96.4427 15.2179 96.1713 15.3988 95.8576 15.5436C95.5439 15.6884 95.1578 15.8392 94.6994 15.996C94.2409 16.1529 93.7583 16.2192 93.2516 16.1951C92.3468 16.1951 91.6168 15.9055 91.0619 15.3264C90.5069 14.7473 90.2234 14.0114 90.2113 13.1186Z" fill="#9DB2BC"/>
</svg>
