<svg width="50" height="15" viewBox="0 0 50 15" fill="none" xmlns="http://www.w3.org/2000/svg">
<g clip-path="url(#clip0)">
<path d="M0.59729 9.72076C0.59729 8.50209 1.0558 7.34375 1.97282 6.24573C2.88984 5.14772 3.92149 4.59268 5.06777 4.58062C5.68314 4.58062 6.22611 4.87624 6.69669 5.46747C6.88975 5.10549 7.16727 4.9245 7.52925 4.9245C7.68611 4.9245 7.82487 4.97276 7.94553 5.06929C8.06619 5.16582 8.12652 5.28648 8.12652 5.43127C8.12652 5.58813 7.9033 6.55342 7.45685 8.32713C7.01041 10.1008 6.78115 11.1023 6.76909 11.3316C6.76909 11.6332 6.81132 11.8323 6.89578 11.9289C6.98024 12.0254 7.10694 12.0797 7.27586 12.0917C7.38446 12.0797 7.50512 12.0254 7.63785 11.9289C7.89123 11.6875 8.13859 11.1084 8.37991 10.1913C8.45231 9.95002 8.51264 9.82333 8.5609 9.81126C8.58503 9.79919 8.64536 9.79316 8.74189 9.79316H8.81429C9.04354 9.79316 9.15817 9.84746 9.15817 9.95605C9.15817 10.0284 9.12801 10.1913 9.06768 10.4447C9.00735 10.6981 8.88668 11.0239 8.70569 11.4221C8.5247 11.8203 8.33165 12.1219 8.12652 12.327C7.96966 12.4839 7.77661 12.6106 7.54735 12.7071C7.45082 12.7313 7.30603 12.7433 7.11297 12.7433C6.70272 12.7433 6.35884 12.6528 6.08132 12.4718C5.8038 12.2908 5.62281 12.1038 5.53835 11.9108L5.42975 11.6393C5.41769 11.6272 5.39356 11.6332 5.35736 11.6574C5.33322 11.6815 5.30909 11.7056 5.28496 11.7298C4.57306 12.4055 3.8491 12.7433 3.11307 12.7433C2.44943 12.7433 1.86423 12.502 1.35745 12.0194C0.850678 11.5367 0.59729 10.7705 0.59729 9.72076ZM6.35281 6.62582C6.35281 6.55342 6.32264 6.42069 6.26231 6.22764C6.20198 6.03458 6.06322 5.82342 5.84603 5.59417C5.62884 5.36491 5.35132 5.24425 5.01347 5.23218C4.59116 5.23218 4.18695 5.41921 3.80083 5.79326C3.41472 6.1673 3.11307 6.65598 2.89588 7.25928C2.54596 8.2125 2.29861 9.20192 2.15381 10.2275C2.15381 10.2637 2.15381 10.3301 2.15381 10.4266C2.15381 10.5232 2.14778 10.5956 2.13571 10.6438C2.13571 11.1868 2.24431 11.5608 2.4615 11.766C2.67869 11.9711 2.93811 12.0797 3.23976 12.0917C3.69827 12.0917 4.15075 11.8927 4.59719 11.4945C5.04364 11.0963 5.30909 10.7886 5.39356 10.5714C5.41769 10.5232 5.58058 9.87762 5.88223 8.63482C6.18388 7.39201 6.34074 6.72234 6.35281 6.62582Z" fill="#8FA7B2"/>
<path d="M10.5156 7.33169C10.6 6.82491 10.9258 6.23971 11.4929 5.57607C12.06 4.91244 12.7599 4.57459 13.5924 4.56252C14.0147 4.56252 14.4008 4.67112 14.7508 4.88831C15.1007 5.1055 15.3601 5.37698 15.529 5.70277C16.0358 4.9426 16.6451 4.56252 17.357 4.56252C17.8035 4.56252 18.1896 4.69525 18.5154 4.9607C18.8412 5.22616 19.0101 5.58211 19.0222 6.02855C19.0222 6.37847 18.9377 6.66202 18.7688 6.87921C18.5998 7.0964 18.4369 7.22913 18.2801 7.27739C18.1232 7.32565 17.9845 7.34979 17.8638 7.34979C17.6346 7.34979 17.4475 7.28342 17.3027 7.1507C17.1579 7.01797 17.0855 6.84301 17.0855 6.62582C17.0855 6.07078 17.3872 5.6907 17.9905 5.48558C17.8578 5.32872 17.6165 5.25029 17.2665 5.25029C17.1097 5.25029 16.9951 5.26236 16.9227 5.28649C16.4641 5.47955 16.1263 5.87773 15.9091 6.48103C15.1851 9.14763 14.8232 10.7042 14.8232 11.1506C14.8232 11.4885 14.9197 11.7298 15.1127 11.8746C15.3058 12.0194 15.517 12.0918 15.7462 12.0918C16.1927 12.0918 16.6331 11.8927 17.0675 11.4945C17.5018 11.0963 17.7974 10.6076 17.9543 10.0285C17.9905 9.90779 18.0267 9.84143 18.0629 9.82937C18.0991 9.8173 18.1956 9.80523 18.3525 9.79317H18.4249C18.6059 9.79317 18.6964 9.84143 18.6964 9.93796C18.6964 9.95003 18.6843 10.0164 18.6602 10.137C18.4671 10.8248 18.0931 11.4342 17.538 11.9651C16.983 12.496 16.3375 12.7614 15.6014 12.7614C14.7568 12.7614 14.1173 12.3813 13.6829 11.6212C13.1882 12.3693 12.6211 12.7433 11.9816 12.7433H11.873C11.2818 12.7433 10.8595 12.5865 10.6061 12.2727C10.3527 11.959 10.22 11.6272 10.2079 11.2773C10.2079 10.8912 10.3225 10.5775 10.5518 10.3361C10.781 10.0948 11.0525 9.97416 11.3662 9.97416C11.8851 9.97416 12.1445 10.2275 12.1445 10.7343C12.1445 10.9756 12.0721 11.1868 11.9273 11.3678C11.7825 11.5488 11.6437 11.6694 11.511 11.7298C11.3783 11.7901 11.2999 11.8203 11.2757 11.8203L11.2214 11.8384C11.2214 11.8504 11.2576 11.8746 11.33 11.9108C11.4024 11.947 11.499 11.9892 11.6196 12.0375C11.7403 12.0857 11.8549 12.1038 11.9635 12.0918C12.3979 12.0918 12.7719 11.8203 13.0856 11.2773C13.1942 11.0842 13.333 10.674 13.5019 10.0466C13.6708 9.41912 13.8398 8.76755 14.0087 8.09185C14.1776 7.41615 14.2742 7.01797 14.2983 6.89731C14.3586 6.57152 14.3888 6.33624 14.3888 6.19144C14.3888 5.85359 14.2983 5.61227 14.1173 5.46748C13.9363 5.32269 13.7312 5.25029 13.5019 5.25029C13.0193 5.25029 12.5668 5.44335 12.1445 5.82946C11.7222 6.21558 11.4266 6.71028 11.2576 7.31359C11.2335 7.42218 11.2033 7.48251 11.1671 7.49458C11.1309 7.50665 11.0344 7.51871 10.8776 7.53078H10.6242C10.5518 7.45838 10.5156 7.39202 10.5156 7.33169Z" fill="#8FA7B2"/>
<path d="M24.9623 8.27284C24.9623 8.27284 24.9623 8.19441 24.9623 8.03755C24.9623 7.88069 25.0467 7.76003 25.2157 7.67557H30.6273V4.9607L30.6454 2.24583C30.7661 2.08897 30.8807 2.01054 30.9893 2.01054C31.1461 2.01054 31.2668 2.10104 31.3513 2.28203V7.67557H36.7448C36.9258 7.7721 37.0163 7.89276 37.0163 8.03755C37.0163 8.18234 36.9258 8.303 36.7448 8.39953H31.3513V13.7931C31.2547 13.962 31.1461 14.0465 31.0255 14.0465H30.9893H30.9531C30.8083 14.0465 30.6997 13.962 30.6273 13.7931V8.39953H25.2157C25.0467 8.31507 24.9623 8.19441 24.9623 8.03755V8.27284Z" fill="#8FA7B2"/>
<path d="M43.3728 0.852204C43.3728 0.731544 43.3969 0.592783 43.4452 0.435925C43.4934 0.279065 43.5658 0.200636 43.6624 0.200636C43.6744 0.200636 44.1088 0.17047 44.9655 0.11014C45.8222 0.0498095 46.2626 0.0136118 46.2867 0.00154591C46.4315 0.00154591 46.5039 0.0558434 46.5039 0.164437C46.5039 0.273032 46.2988 1.13576 45.8886 2.75261C45.792 3.16286 45.6895 3.58517 45.5809 4.01955C45.4723 4.45393 45.3818 4.77971 45.3094 4.9969L45.237 5.34078C45.237 5.37698 45.2732 5.35888 45.3456 5.28649C45.9368 4.80384 46.5462 4.56252 47.1736 4.56252C47.9217 4.56252 48.525 4.84004 48.9835 5.39508C49.442 5.95012 49.6773 6.64995 49.6894 7.49458C49.6894 8.83391 49.2128 10.0466 48.2595 11.1325C47.3063 12.2184 46.2807 12.7614 45.1827 12.7614C44.5794 12.7614 44.0304 12.5322 43.5357 12.0737C43.041 11.6151 42.7876 10.8731 42.7755 9.84746V9.68457C42.7755 9.43118 42.8238 9.08127 42.9203 8.63482C43.0168 8.18838 43.3125 6.99987 43.8072 5.0693C44.4105 2.69228 44.7121 1.43138 44.7121 1.28658C44.7121 1.14179 44.4829 1.05733 44.0244 1.0332C43.964 1.0332 43.9158 1.0332 43.8796 1.0332H43.7891C43.6684 1.0332 43.59 1.0332 43.5538 1.0332C43.5176 1.0332 43.4753 1.0151 43.4271 0.978898C43.3788 0.942699 43.3607 0.900468 43.3728 0.852204ZM48.1329 6.68012V6.57152C48.1329 5.67863 47.7648 5.23219 47.0288 5.23219C46.8237 5.23219 46.6125 5.28045 46.3953 5.37698C46.1781 5.47351 45.9791 5.6002 45.7981 5.75706C45.6171 5.91392 45.4602 6.05872 45.3275 6.19144C45.1948 6.32417 45.0862 6.4569 45.0017 6.58962L44.8931 6.73442L44.513 8.29094C44.2476 9.32862 44.1148 10.0647 44.1148 10.499C44.1148 11.0782 44.2596 11.5126 44.5492 11.8022C44.7423 11.9952 44.9836 12.0918 45.2732 12.0918C45.6714 12.0918 46.0756 11.8987 46.4858 11.5126C46.7875 11.2351 47.0288 10.8972 47.2098 10.499C47.3908 10.1009 47.5899 9.46738 47.8071 8.59862C48.0243 7.72987 48.1329 7.09037 48.1329 6.68012Z" fill="#8FA7B2"/>
</g>
<defs>
<clipPath id="clip0">
<rect width="49.816" height="14.048" fill="white"/>
</clipPath>
</defs>
</svg>
