<svg width="15" height="15" viewBox="0 0 15 15" fill="none"
    xmlns="http://www.w3.org/2000/svg">
    <path d="M7.5 15C11.6419 15 15 11.6419 15 7.5C15 3.35813 11.6419 0 7.5 0C3.35813 0 0 3.35813 0 7.5C0 11.6419 3.35813 15 7.5 15ZM8.125 11.25H6.875V6.25H8.125V11.25ZM7.5 3.59375C7.93125 3.59375 8.28125 3.94375 8.28125 4.375C8.28125 4.80625 7.93125 5.15625 7.5 5.15625C7.06875 5.15625 6.71875 4.80625 6.71875 4.375C6.71875 3.94375 7.06875 3.59375 7.5 3.59375Z" fill="#8FA7B2" fill-opacity="0.5"/>
</svg>
