<svg width="35" height="35" viewBox="0 0 35 35" fill="none" xmlns="http://www.w3.org/2000/svg">
<g clip-path="url(#clip0)">
<path fill-rule="evenodd" clip-rule="evenodd" d="M26.25 0H8.75C7.58968 0 6.47688 0.460936 5.65641 1.28141C4.83594 2.10188 4.375 3.21468 4.375 4.375V30.625C4.375 31.7853 4.83594 32.8981 5.65641 33.7186C6.47688 34.5391 7.58968 35 8.75 35H26.25C27.4103 35 28.5231 34.5391 29.3436 33.7186C30.1641 32.8981 30.625 31.7853 30.625 30.625V4.375C30.625 3.21468 30.1641 2.10188 29.3436 1.28141C28.5231 0.460936 27.4103 0 26.25 0ZM10.9375 8.75C10.6474 8.75 10.3692 8.86523 10.1641 9.07035C9.95898 9.27547 9.84375 9.55367 9.84375 9.84375C9.84375 10.1338 9.95898 10.412 10.1641 10.6171C10.3692 10.8223 10.6474 10.9375 10.9375 10.9375H24.0625C24.3526 10.9375 24.6308 10.8223 24.8359 10.6171C25.041 10.412 25.1562 10.1338 25.1562 9.84375C25.1562 9.55367 25.041 9.27547 24.8359 9.07035C24.6308 8.86523 24.3526 8.75 24.0625 8.75H10.9375ZM9.84375 14.2188C9.84375 13.9287 9.95898 13.6505 10.1641 13.4454C10.3692 13.2402 10.6474 13.125 10.9375 13.125H24.0625C24.3526 13.125 24.6308 13.2402 24.8359 13.4454C25.041 13.6505 25.1562 13.9287 25.1562 14.2188C25.1562 14.5088 25.041 14.787 24.8359 14.9921C24.6308 15.1973 24.3526 15.3125 24.0625 15.3125H10.9375C10.6474 15.3125 10.3692 15.1973 10.1641 14.9921C9.95898 14.787 9.84375 14.5088 9.84375 14.2188ZM10.9375 17.5C10.6474 17.5 10.3692 17.6152 10.1641 17.8204C9.95898 18.0255 9.84375 18.3037 9.84375 18.5938C9.84375 18.8838 9.95898 19.162 10.1641 19.3671C10.3692 19.5723 10.6474 19.6875 10.9375 19.6875H24.0625C24.3526 19.6875 24.6308 19.5723 24.8359 19.3671C25.041 19.162 25.1562 18.8838 25.1562 18.5938C25.1562 18.3037 25.041 18.0255 24.8359 17.8204C24.6308 17.6152 24.3526 17.5 24.0625 17.5H10.9375ZM10.9375 21.875C10.6474 21.875 10.3692 21.9902 10.1641 22.1954C9.95898 22.4005 9.84375 22.6787 9.84375 22.9688C9.84375 23.2588 9.95898 23.537 10.1641 23.7421C10.3692 23.9473 10.6474 24.0625 10.9375 24.0625H17.5C17.7901 24.0625 18.0683 23.9473 18.2734 23.7421C18.4785 23.537 18.5938 23.2588 18.5938 22.9688C18.5938 22.6787 18.4785 22.4005 18.2734 22.1954C18.0683 21.9902 17.7901 21.875 17.5 21.875H10.9375Z" fill="white"/>
</g>
<defs>
<clipPath id="clip0">
<rect width="35" height="35" fill="white"/>
</clipPath>
</defs>
</svg>
