<svg width="56" height="64" viewBox="0 0 56 64" fill="none" xmlns="http://www.w3.org/2000/svg">
<path d="M56 16.2409V38.8392C56 47.8084 48.612 55.0801 39.4993 55.0801H37.8303L29.3074 63.4634C28.9736 63.7919 28.5118 64 28 64C27.5271 64 27.0987 63.8303 26.7705 63.5455L26.6259 63.4032L26.6203 63.3977L18.1697 55.0801H16.4951C7.38804 55.0801 0 47.8084 0 38.8392V16.2409C0 7.27173 7.38804 0 16.5007 0H39.4993C48.612 0 56 7.27173 56 16.2409Z" fill="#FFA24D"/>
<g clip-path="url(#clip0)">
<path fill-rule="evenodd" clip-rule="evenodd" d="M39.0833 8.50001H16.9167C16.1818 8.50001 15.477 8.7935 14.9574 9.31593C14.4378 9.83835 14.1458 10.5469 14.1458 11.2857V44.7143C14.1458 45.4531 14.4378 46.1617 14.9574 46.6841C15.477 47.2065 16.1818 47.5 16.9167 47.5H39.0833C39.8182 47.5 40.523 47.2065 41.0426 46.6841C41.5622 46.1617 41.8542 45.4531 41.8542 44.7143V11.2857C41.8542 10.5469 41.5622 9.83835 41.0426 9.31593C40.523 8.7935 39.8182 8.50001 39.0833 8.50001ZM16.9167 5.71429C15.4469 5.71429 14.0374 6.30128 12.9981 7.34613C11.9589 8.39097 11.375 9.80809 11.375 11.2857V44.7143C11.375 46.1919 11.9589 47.609 12.9981 48.6539C14.0374 49.6987 15.4469 50.2857 16.9167 50.2857H39.0833C40.5531 50.2857 41.9626 49.6987 43.0019 48.6539C44.0411 47.609 44.625 46.1919 44.625 44.7143V11.2857C44.625 9.80809 44.0411 8.39097 43.0019 7.34613C41.9626 6.30128 40.5531 5.71429 39.0833 5.71429H16.9167Z" fill="white"/>
<path d="M16.9165 12.6786C16.9165 12.3092 17.0625 11.9549 17.3223 11.6937C17.5821 11.4325 17.9345 11.2857 18.3019 11.2857H37.6978C38.0652 11.2857 38.4176 11.4325 38.6774 11.6937C38.9372 11.9549 39.0832 12.3092 39.0832 12.6786V18.25C39.0832 18.6194 38.9372 18.9737 38.6774 19.2349C38.4176 19.4961 38.0652 19.6429 37.6978 19.6429H18.3019C17.9345 19.6429 17.5821 19.4961 17.3223 19.2349C17.0625 18.9737 16.9165 18.6194 16.9165 18.25V12.6786ZM16.9165 23.8214C16.9165 23.452 17.0625 23.0977 17.3223 22.8365C17.5821 22.5753 17.9345 22.4286 18.3019 22.4286H21.0728C21.4402 22.4286 21.7926 22.5753 22.0524 22.8365C22.3122 23.0977 22.4582 23.452 22.4582 23.8214V26.6071C22.4582 26.9766 22.3122 27.3308 22.0524 27.592C21.7926 27.8533 21.4402 28 21.0728 28H18.3019C17.9345 28 17.5821 27.8533 17.3223 27.592C17.0625 27.3308 16.9165 26.9766 16.9165 26.6071V23.8214ZM16.9165 32.1786C16.9165 31.8092 17.0625 31.4549 17.3223 31.1937C17.5821 30.9325 17.9345 30.7857 18.3019 30.7857H21.0728C21.4402 30.7857 21.7926 30.9325 22.0524 31.1937C22.3122 31.4549 22.4582 31.8092 22.4582 32.1786V34.9643C22.4582 35.3337 22.3122 35.688 22.0524 35.9492C21.7926 36.2104 21.4402 36.3571 21.0728 36.3571H18.3019C17.9345 36.3571 17.5821 36.2104 17.3223 35.9492C17.0625 35.688 16.9165 35.3337 16.9165 34.9643V32.1786ZM16.9165 40.5357C16.9165 40.1663 17.0625 39.812 17.3223 39.5508C17.5821 39.2896 17.9345 39.1429 18.3019 39.1429H21.0728C21.4402 39.1429 21.7926 39.2896 22.0524 39.5508C22.3122 39.812 22.4582 40.1663 22.4582 40.5357V43.3214C22.4582 43.6908 22.3122 44.0451 22.0524 44.3063C21.7926 44.5675 21.4402 44.7143 21.0728 44.7143H18.3019C17.9345 44.7143 17.5821 44.5675 17.3223 44.3063C17.0625 44.0451 16.9165 43.6908 16.9165 43.3214V40.5357ZM25.229 23.8214C25.229 23.452 25.375 23.0977 25.6348 22.8365C25.8946 22.5753 26.247 22.4286 26.6144 22.4286H29.3853C29.7527 22.4286 30.1051 22.5753 30.3649 22.8365C30.6247 23.0977 30.7707 23.452 30.7707 23.8214V26.6071C30.7707 26.9766 30.6247 27.3308 30.3649 27.592C30.1051 27.8533 29.7527 28 29.3853 28H26.6144C26.247 28 25.8946 27.8533 25.6348 27.592C25.375 27.3308 25.229 26.9766 25.229 26.6071V23.8214ZM25.229 32.1786C25.229 31.8092 25.375 31.4549 25.6348 31.1937C25.8946 30.9325 26.247 30.7857 26.6144 30.7857H29.3853C29.7527 30.7857 30.1051 30.9325 30.3649 31.1937C30.6247 31.4549 30.7707 31.8092 30.7707 32.1786V34.9643C30.7707 35.3337 30.6247 35.688 30.3649 35.9492C30.1051 36.2104 29.7527 36.3571 29.3853 36.3571H26.6144C26.247 36.3571 25.8946 36.2104 25.6348 35.9492C25.375 35.688 25.229 35.3337 25.229 34.9643V32.1786ZM25.229 40.5357C25.229 40.1663 25.375 39.812 25.6348 39.5508C25.8946 39.2896 26.247 39.1429 26.6144 39.1429H29.3853C29.7527 39.1429 30.1051 39.2896 30.3649 39.5508C30.6247 39.812 30.7707 40.1663 30.7707 40.5357V43.3214C30.7707 43.6908 30.6247 44.0451 30.3649 44.3063C30.1051 44.5675 29.7527 44.7143 29.3853 44.7143H26.6144C26.247 44.7143 25.8946 44.5675 25.6348 44.3063C25.375 44.0451 25.229 43.6908 25.229 43.3214V40.5357ZM33.5415 23.8214C33.5415 23.452 33.6875 23.0977 33.9473 22.8365C34.2071 22.5753 34.5595 22.4286 34.9269 22.4286H37.6978C38.0652 22.4286 38.4176 22.5753 38.6774 22.8365C38.9372 23.0977 39.0832 23.452 39.0832 23.8214V26.6071C39.0832 26.9766 38.9372 27.3308 38.6774 27.592C38.4176 27.8533 38.0652 28 37.6978 28H34.9269C34.5595 28 34.2071 27.8533 33.9473 27.592C33.6875 27.3308 33.5415 26.9766 33.5415 26.6071V23.8214ZM33.5415 32.1786C33.5415 31.8092 33.6875 31.4549 33.9473 31.1937C34.2071 30.9325 34.5595 30.7857 34.9269 30.7857H37.6978C38.0652 30.7857 38.4176 30.9325 38.6774 31.1937C38.9372 31.4549 39.0832 31.8092 39.0832 32.1786V43.3214C39.0832 43.6908 38.9372 44.0451 38.6774 44.3063C38.4176 44.5675 38.0652 44.7143 37.6978 44.7143H34.9269C34.5595 44.7143 34.2071 44.5675 33.9473 44.3063C33.6875 44.0451 33.5415 43.6908 33.5415 43.3214V32.1786Z" fill="white"/>
</g>
<defs>
<clipPath id="clip0">
<rect width="44.3333" height="44.5714" fill="white" transform="translate(5.83325 5.71429)"/>
</clipPath>
</defs>
</svg>
