<?xml version="1.0" standalone="no"?>
<!DOCTYPE svg PUBLIC "-//W3C//DTD SVG 20010904//EN"
 "http://www.w3.org/TR/2001/REC-SVG-20010904/DTD/svg10.dtd">
<svg version="1.0" xmlns="http://www.w3.org/2000/svg"
 width="1080.000000pt" height="763.000000pt" viewBox="0 0 1080.000000 763.000000"
 preserveAspectRatio="xMidYMid meet">
<metadata>
Created by potrace 1.16, written by Peter Selinger 2001-2019
</metadata>
<g transform="translate(0.000000,763.000000) scale(0.100000,-0.100000)"
fill="#000000" stroke="none">
<path d="M673 7358 c7 -172 9 -178 60 -178 35 0 37 27 2 36 l-25 6 0 134 c0
74 4 134 9 134 4 0 23 -5 40 -11 24 -9 35 -9 44 0 8 8 8 11 -2 11 -7 0 -19 7
-27 15 -9 9 -34 15 -61 15 l-46 0 6 -162z"/>
<path d="M7438 7513 c-10 -2 -18 -11 -18 -19 0 -10 13 -14 45 -14 44 0 44 0
33 -25 -8 -19 -8 -31 1 -51 6 -14 9 -30 5 -35 -7 -12 15 -69 26 -69 5 0 17
-14 28 -31 16 -26 18 -37 10 -63 -15 -43 -37 -66 -65 -66 -14 0 -23 -6 -23
-15 0 -24 53 -19 77 8 56 61 58 117 8 177 -34 40 -35 44 -19 61 10 11 23 19
31 19 7 0 13 7 13 15 0 10 -11 15 -35 15 -34 0 -49 20 -25 35 21 13 10 45 -17
51 -50 11 -58 12 -75 7z"/>
<path d="M1460 7477 c0 -15 9 -18 93 -32 l37 -6 0 -118 c0 -65 3 -133 6 -150
l7 -32 -69 3 c-92 4 -99 -14 -10 -26 102 -14 99 -19 100 177 l1 168 -36 9
c-20 6 -57 13 -83 16 -38 6 -46 4 -46 -9z"/>
<path d="M349 7443 c-8 -10 -23 -44 -34 -76 -10 -32 -24 -61 -30 -65 -7 -4
-15 -20 -17 -37 -3 -16 -9 -38 -13 -47 -14 -34 25 -19 46 17 25 42 56 47 64
10 3 -14 7 -37 10 -51 10 -47 30 -21 27 34 -3 33 0 52 7 52 20 0 12 22 -10 27
-19 5 -21 11 -15 49 6 46 -2 104 -14 104 -4 0 -13 -8 -21 -17z"/>
<path d="M8437 7453 c-17 -16 -6 -33 17 -27 16 4 32 -2 52 -20 l29 -25 -36 6
c-68 10 -123 -54 -84 -97 22 -24 55 -25 98 -4 41 22 47 31 47 81 0 34 -5 46
-31 67 -29 24 -77 34 -92 19z"/>
<path d="M1313 7430 c-13 -19 -8 -50 7 -50 5 0 12 9 15 20 7 22 35 28 35 7 0
-8 -9 -24 -20 -37 -28 -32 -25 -38 17 -42 41 -3 50 -19 39 -64 -9 -35 -69 -60
-104 -44 -29 13 -40 6 -23 -14 28 -33 106 -22 142 20 9 11 20 34 24 51 6 28 2
37 -25 65 -28 27 -31 35 -21 51 10 15 9 23 -5 38 -22 25 -66 25 -81 -1z"/>
<path d="M9133 7440 c-12 -5 -26 -18 -32 -29 -12 -22 -14 -81 -3 -97 10 -14
89 -54 107 -54 48 0 73 90 39 139 -13 18 -73 53 -86 50 -2 0 -13 -4 -25 -9z"/>
<path d="M1030 7413 c-18 -22 -21 -37 -18 -75 12 -118 93 -134 127 -27 31 97
-52 174 -109 102z"/>
<path d="M9407 7428 c-9 -7 -21 -26 -28 -43 l-12 -30 -9 33 c-5 17 -13 32 -19
32 -18 0 -21 -28 -5 -57 29 -53 58 -115 54 -118 -1 -1 -64 -10 -138 -19 -158
-20 -160 -20 -160 -42 0 -12 6 -15 23 -10 12 4 71 13 131 21 59 9 118 18 131
21 15 4 24 0 28 -10 9 -22 27 -20 27 3 0 15 10 20 53 25 65 8 117 25 117 37 0
5 -10 7 -22 5 -13 -3 -45 -8 -73 -11 -27 -3 -58 -8 -67 -11 -32 -9 -34 41 -4
77 28 32 34 77 14 97 -15 15 -20 15 -41 0z"/>
<path d="M8610 7401 c-5 -11 -10 -29 -10 -41 0 -25 51 -80 74 -80 24 0 19 -38
-5 -45 -12 -4 -71 -7 -131 -7 -75 -1 -108 -4 -105 -12 3 -7 47 -11 135 -11
122 0 131 -1 134 -19 5 -33 30 -33 26 0 -4 33 16 41 105 43 42 1 57 4 54 14
-3 8 -28 11 -86 10 -78 -2 -81 -2 -81 20 0 12 7 33 16 45 22 32 15 87 -11 87
-15 0 -22 -10 -29 -42 -11 -49 -28 -54 -53 -17 -16 25 -16 27 0 39 9 7 17 17
17 24 0 19 -39 12 -50 -8z"/>
<path d="M6957 7358 c-9 -7 -21 -34 -27 -60 -13 -61 9 -125 47 -134 35 -9 38
0 9 29 -32 33 -41 70 -26 107 l13 30 32 -37 c28 -32 32 -43 27 -75 -5 -43 12
-53 22 -12 6 23 11 26 36 20 23 -4 32 -1 40 14 10 18 7 20 -20 20 -30 0 -31 1
-16 22 9 12 16 28 16 35 0 21 -28 15 -35 -7 -3 -11 -10 -20 -14 -20 -4 0 -16
9 -26 20 -10 11 -24 20 -32 20 -8 0 -13 7 -11 16 4 22 -13 28 -35 12z"/>
<path d="M6361 7271 c-25 -3 -46 -12 -49 -20 -4 -11 8 -12 63 -6 66 7 67 6 63
-17 -2 -19 -10 -23 -45 -26 -23 -2 -47 -10 -53 -18 -11 -12 -6 -14 26 -14 l37
0 -21 -23 c-35 -37 -29 -51 19 -43 51 8 103 42 95 63 -3 8 -6 19 -6 24 0 5 -6
9 -13 9 -9 0 -12 9 -9 29 2 16 0 31 -5 33 -18 11 -60 14 -102 9z"/>
<path d="M5978 7243 c-27 -31 -40 -64 -40 -100 0 -43 19 -64 60 -65 85 -3 132
102 72 162 -25 25 -72 26 -92 3z"/>
<path d="M5733 7242 c-6 -4 -21 -33 -33 -65 -12 -31 -25 -57 -30 -57 -10 0
-64 68 -73 93 -8 23 -27 22 -27 -1 0 -44 23 -188 31 -196 19 -20 28 8 18 53
-5 24 -8 45 -6 47 2 2 14 -5 27 -16 35 -31 53 -25 75 26 11 25 23 48 27 50 3
2 12 -20 18 -49 15 -64 38 -122 46 -115 12 12 -40 238 -54 238 -4 0 -12 -4
-19 -8z"/>
<path d="M1700 7119 c-53 -19 -178 -80 -290 -142 -109 -60 -262 -191 -334
-286 -94 -123 -106 -141 -137 -197 -67 -122 -58 -125 -90 27 -15 74 -36 168
-47 209 -11 41 -22 104 -26 140 l-6 65 25 -27 c13 -16 26 -28 29 -28 10 0 -18
66 -41 98 -39 53 -53 43 -53 -38 0 -38 4 -70 9 -70 12 0 60 -197 101 -412 l19
-98 -24 -94 c-23 -90 -23 -97 -8 -128 9 -18 29 -44 44 -58 22 -19 32 -45 49
-115 12 -49 27 -110 34 -135 8 -25 19 -70 26 -100 17 -73 28 -94 44 -81 9 8
16 -6 30 -56 9 -36 15 -68 12 -71 -4 -3 -6 2 -6 10 0 16 -39 70 -40 55 0 -5 5
-28 11 -52 8 -32 8 -49 -1 -66 -24 -46 -234 -325 -321 -426 -80 -93 -144 -176
-271 -351 -26 -36 -48 -57 -50 -50 -7 20 -36 -8 -64 -64 -25 -50 -32 -98 -12
-98 15 0 168 101 168 112 0 13 -6 10 -68 -24 l-57 -32 35 44 c20 25 47 62 60
82 31 46 69 63 190 83 52 9 99 21 105 27 12 12 -63 5 -165 -16 -36 -8 -66 -13
-67 -12 -6 6 136 190 229 297 32 37 112 138 179 225 80 106 125 158 136 156
11 -2 14 1 10 12 -3 8 2 24 11 36 13 15 52 27 167 50 83 16 161 33 174 36 20
6 22 4 16 -15 -10 -32 21 -27 37 6 14 29 15 29 158 61 133 30 510 130 571 150
30 11 119 31 199 47 80 15 201 40 270 55 307 70 412 92 417 86 3 -3 0 -12 -7
-21 -27 -33 4 -28 33 5 27 31 46 40 132 63 196 52 259 64 188 36 -16 -6 -22
-13 -16 -16 29 -11 160 78 146 99 -5 9 -68 9 -102 -1 -30 -8 -38 -28 -14 -33
10 -2 -29 -16 -87 -31 -315 -80 -686 -167 -771 -180 -25 -3 -26 -2 -38 82 -15
104 -31 171 -41 171 -9 0 -2 -95 11 -134 5 -16 9 -53 9 -82 l0 -53 -37 -6
c-117 -19 -207 -39 -276 -61 -71 -22 -201 -57 -502 -133 -60 -16 -121 -31
-135 -34 -14 -3 -68 -15 -120 -26 -227 -51 -343 -71 -355 -61 -6 5 -20 38 -30
72 -10 35 -29 97 -42 138 -30 92 -59 201 -68 256 l-6 41 63 12 c95 18 192 53
311 112 31 15 98 42 149 59 108 36 205 40 302 13 47 -14 100 -18 231 -17 157
0 176 2 255 27 47 15 104 38 127 51 l43 25 -1 -22 c0 -31 17 -116 24 -124 4
-3 7 -1 7 5 0 6 7 9 15 6 20 -8 19 6 -7 63 -11 26 -20 56 -19 65 1 9 20 51 41
93 29 55 40 88 40 120 l0 44 98 -6 c53 -3 99 -10 100 -15 7 -16 32 -8 32 11 0
26 -18 31 -118 31 -48 0 -92 4 -98 8 -6 4 -22 43 -36 87 -22 73 -81 179 -135
241 -32 37 -151 114 -251 162 l-97 47 -140 2 c-118 2 -149 -1 -195 -18z m331
-28 c80 -23 181 -77 275 -146 70 -53 124 -120 101 -128 -11 -3 39 -77 53 -77
9 0 24 -43 35 -97 l6 -32 -37 6 c-29 5 -36 3 -32 -8 2 -7 19 -18 37 -23 31 -9
33 -11 27 -47 -4 -22 -2 -39 4 -41 11 -3 -31 -92 -56 -118 -12 -12 -14 -8 -14
32 0 32 -5 48 -15 52 -18 6 -19 -10 -5 -69 10 -46 4 -58 -52 -86 -127 -65
-334 -87 -503 -54 -49 10 -132 20 -183 22 -115 5 -156 -6 -402 -110 -183 -78
-295 -107 -316 -84 -11 11 -45 140 -59 220 -5 29 -3 37 9 37 8 0 34 13 58 29
24 16 75 38 115 50 68 21 92 35 79 48 -10 10 -146 -40 -203 -74 l-53 -31 22
38 c12 21 27 36 34 33 14 -5 36 30 95 146 26 51 65 108 103 148 68 73 196 176
269 216 204 113 259 137 372 161 54 11 175 5 236 -13z"/>
<path d="M5406 7110 c-63 -56 -72 -136 -17 -165 23 -12 36 -12 63 -3 49 16 57
26 56 64 l-1 34 -59 0 c-34 0 -58 4 -58 10 0 17 47 60 65 60 8 0 15 7 15 15 0
24 -26 17 -64 -15z"/>
<path d="M4772 7114 c-19 -13 -22 -22 -17 -43 4 -14 15 -71 24 -126 l18 -100
39 -3 c44 -3 94 12 94 28 0 5 -22 10 -50 10 -56 0 -47 -15 -82 143 -17 76 -12
85 38 73 21 -6 25 -4 22 11 -4 24 -56 28 -86 7z"/>
<path d="M8497 7124 c-16 -16 -7 -35 13 -29 14 5 20 2 20 -9 0 -9 -8 -16 -19
-16 -29 0 -69 -37 -76 -71 -12 -56 36 -98 75 -66 27 22 71 97 63 110 -4 6 -9
27 -13 47 -4 28 -10 36 -30 38 -14 2 -29 0 -33 -4z"/>
<path d="M9143 7120 c-39 -16 -25 -30 30 -31 37 -1 45 -3 27 -8 -50 -14 -89
-108 -58 -139 13 -13 66 -16 93 -6 8 4 22 19 30 35 49 94 -28 187 -122 149z"/>
<path d="M4373 7025 c-46 -12 -86 -24 -89 -28 -4 -3 8 -58 26 -122 l33 -115
43 0 c44 0 114 26 114 43 0 5 -11 6 -25 3 -78 -19 -72 -22 -79 30 -7 51 1 64
40 64 11 0 29 7 40 16 18 14 15 15 -36 10 -56 -6 -56 -6 -71 28 l-16 34 37 11
c21 6 44 11 53 11 16 0 31 27 19 33 -4 2 -44 -6 -89 -18z"/>
<path d="M6477 6953 c41 -64 163 -286 159 -291 -2 -1 -34 14 -71 33 -62 31
-77 35 -148 35 -86 0 -107 -7 -218 -72 -63 -36 -69 -38 -110 -29 -66 16 -178
13 -239 -5 -72 -21 -133 -28 -176 -20 -29 6 -39 15 -56 52 -23 46 -55 63 -42
22 13 -43 34 -78 57 -92 37 -23 112 -28 160 -10 86 33 165 41 257 27 47 -7 88
-13 91 -13 4 0 29 15 55 33 132 89 231 103 343 49 78 -39 94 -52 137 -120 51
-79 48 -126 -18 -259 l-52 -104 -7 -153 c-8 -179 -15 -198 -94 -250 -64 -43
-114 -61 -202 -75 -106 -17 -253 -84 -308 -140 -44 -47 -22 -49 37 -3 66 51
183 98 286 116 94 16 148 39 219 92 76 56 85 82 93 254 l6 145 52 108 c28 59
55 119 58 133 6 25 7 25 36 -18 53 -79 148 -276 142 -293 -4 -9 -1 -28 7 -43
35 -72 95 -170 120 -200 16 -18 32 -45 35 -60 4 -15 15 -33 26 -40 15 -11 165
-303 182 -354 3 -10 11 -18 17 -18 20 0 2 53 -45 133 -25 43 -46 80 -46 82 0
13 -67 145 -92 182 -15 23 -28 49 -28 58 0 9 -12 62 -26 118 -14 56 -30 120
-35 141 -12 50 -20 61 -29 46 -4 -7 1 -40 11 -74 36 -119 18 -99 -70 74 -49
96 -112 213 -140 260 -54 88 -67 122 -56 140 9 14 175 98 240 120 28 10 59 21
69 26 19 7 19 6 -2 -23 -25 -36 -27 -46 -9 -41 20 5 129 128 124 141 -5 17
-119 16 -124 0 -3 -9 8 -13 34 -14 l38 0 -50 -24 c-27 -13 -81 -37 -120 -54
-62 -26 -70 -28 -73 -13 -9 41 -37 83 -69 103 -31 19 -44 21 -119 16 l-84 -6
-25 52 c-14 29 -47 80 -72 115 -59 80 -88 84 -36 5z m300 -200 c38 -18 73 -65
73 -98 0 -28 -80 -61 -110 -45 -11 6 -24 8 -29 5 -11 -6 -57 69 -66 108 -6 23
-3 27 22 32 15 4 33 8 38 10 21 7 38 4 72 -12z"/>
<path d="M3038 6749 c-24 -14 -23 -23 12 -62 16 -19 34 -46 39 -60 6 -15 17
-27 26 -27 23 0 18 -17 -19 -57 -62 -70 -67 -100 -20 -122 34 -15 76 -14 100
3 16 12 17 17 5 28 -11 10 -14 10 -18 1 -9 -24 -83 -13 -83 12 0 8 18 35 40
60 44 51 55 104 23 106 -17 0 -89 86 -80 95 2 3 16 -1 31 -7 34 -16 44 -5 21
21 -20 22 -50 25 -77 9z"/>
<path d="M7245 6690 c-3 -5 -22 -10 -41 -10 -19 0 -34 -4 -34 -10 0 -11 26
-18 80 -23 l35 -3 -27 -12 c-17 -7 -28 -19 -28 -31 0 -24 -48 -57 -63 -42 -6
6 -10 29 -9 51 3 59 -22 47 -26 -12 -2 -38 1 -49 19 -61 16 -11 28 -13 46 -6
32 12 33 12 33 -5 0 -8 7 -16 15 -20 11 -4 15 2 15 27 0 52 10 72 41 91 30 18
37 44 17 64 -15 15 -64 16 -73 2z"/>
<path d="M7880 6671 c-5 -11 -10 -29 -10 -40 0 -12 -5 -21 -10 -21 -6 0 -22
-12 -36 -27 l-24 -26 2 24 c3 21 -1 24 -27 25 -17 0 -36 3 -42 7 -6 4 -26 1
-44 -7 -30 -12 -35 -12 -46 3 -11 14 -12 11 -13 -20 0 -90 27 -129 41 -60 4
18 14 40 23 49 14 14 15 12 9 -21 -4 -29 -2 -38 12 -43 10 -4 26 -2 35 4 14 9
19 8 24 -3 8 -21 39 -19 68 4 24 19 24 19 36 0 7 -10 19 -19 27 -19 12 0 12 5
1 31 -11 27 -11 40 0 83 8 28 14 57 14 64 0 19 -28 14 -40 -7z"/>
<path d="M7513 6645 c-35 -25 -38 -62 -6 -107 l27 -40 -37 -30 c-43 -34 -49
-74 -17 -103 18 -16 21 -16 43 -2 18 12 26 28 30 62 4 36 12 54 37 77 18 16
30 32 26 35 -3 3 -15 -2 -26 -12 -11 -10 -23 -15 -27 -11 -4 3 3 15 15 26 31
29 29 73 -4 99 -32 25 -34 25 -61 6z"/>
<path d="M8872 6637 c-30 -31 -52 -89 -52 -135 0 -48 14 -64 47 -51 14 5 28 7
32 4 5 -2 19 7 31 20 30 32 36 31 52 -2 17 -35 30 -35 42 -1 8 22 6 32 -8 47
-10 11 -21 35 -25 53 -5 26 -12 33 -30 33 -20 0 -27 -11 -48 -67 -19 -51 -30
-68 -44 -68 -31 0 -25 66 11 123 17 26 30 52 30 57 0 16 -15 11 -38 -13z"/>
<path d="M9672 6622 c-86 -119 -49 -241 45 -147 19 19 38 35 43 35 4 0 10 -14
14 -30 6 -34 33 -50 47 -29 13 20 11 29 -6 29 -22 0 -18 37 5 43 26 7 26 27 1
27 -13 0 -21 9 -26 29 -7 32 -29 56 -43 47 -5 -3 -12 -19 -15 -36 -5 -21 -15
-34 -34 -41 -25 -9 -26 -12 -12 -22 12 -9 14 -18 8 -35 -10 -28 -49 -30 -49
-3 0 24 27 89 52 124 14 20 17 32 10 39 -7 7 -19 -2 -40 -30z"/>
<path d="M10390 6183 c0 -63 4 -95 15 -109 14 -19 15 -18 21 4 5 16 11 21 23
16 9 -3 23 -7 31 -8 8 0 18 -5 23 -11 4 -6 12 -3 21 8 13 17 36 23 36 10 0 -4
-14 -21 -31 -39 -17 -18 -28 -37 -25 -43 4 -6 29 -11 57 -11 37 0 49 4 49 15
0 10 -10 15 -30 15 l-31 0 22 29 c30 40 22 65 -21 69 -24 3 -38 -2 -47 -14 -7
-10 -13 -13 -13 -7 0 7 -9 15 -20 18 -26 8 -25 17 5 53 25 30 33 62 15 62 -5
0 -22 -16 -37 -35 l-28 -35 -5 47 c-3 25 -11 48 -17 51 -10 3 -13 -19 -13 -85z"/>
<path d="M4697 6180 c-31 -34 -33 -40 -12 -40 9 0 20 10 25 23 7 18 9 14 10
-23 1 -42 2 -44 15 -26 14 19 15 19 15 -7 0 -22 11 -75 50 -233 l7 -32 -37 5
c-22 3 -40 1 -44 -6 -4 -6 -1 -11 6 -12 7 0 -68 -20 -167 -43 -99 -24 -216
-54 -260 -68 -44 -13 -87 -23 -96 -21 -16 4 -51 107 -64 188 -4 22 -20 85 -35
140 -15 55 -31 115 -35 133 -7 34 -25 44 -25 14 0 -10 15 -72 34 -137 18 -66
37 -138 40 -160 4 -22 16 -71 28 -109 27 -94 20 -106 -80 -129 -42 -11 -122
-31 -177 -47 -55 -15 -121 -31 -147 -34 -53 -8 -75 -26 -31 -26 30 0 63 8 275
64 188 50 198 49 213 -24 10 -51 104 -358 122 -400 26 -61 26 -13 0 63 -29 83
-77 242 -103 340 -12 49 -14 71 -6 79 11 11 66 27 197 58 44 10 134 32 199 49
85 22 122 28 127 20 4 -8 15 -5 35 9 16 11 76 32 133 46 56 13 106 27 109 30
10 11 -43 6 -98 -9 -88 -24 -84 -28 -113 98 -15 61 -30 128 -33 147 -5 31 -4
33 9 18 17 -22 27 -23 27 -4 0 18 -61 95 -76 95 -6 1 -23 -12 -37 -29z"/>
<path d="M8627 6183 c-18 -18 -6 -32 23 -26 18 3 30 1 30 -5 0 -6 -13 -20 -30
-32 -52 -37 -36 -60 45 -60 38 0 44 -3 49 -26 5 -19 2 -30 -11 -41 -13 -10
-15 -16 -5 -19 7 -3 12 -23 12 -46 0 -48 20 -48 34 0 8 26 15 32 45 34 l36 4
-37 17 c-29 13 -38 23 -38 42 0 22 4 25 40 25 22 0 40 4 40 9 0 8 -127 31
-176 31 l-25 0 27 23 c22 19 26 29 20 50 -5 23 -12 27 -40 27 -18 0 -36 -3
-39 -7z"/>
<path d="M8390 6116 c-11 -25 -20 -61 -20 -82 0 -20 -6 -80 -14 -133 -8 -53
-22 -148 -31 -211 -15 -115 -33 -224 -60 -375 -12 -68 -32 -212 -60 -448 -5
-37 -3 -48 7 -45 17 6 26 41 27 105 1 28 7 58 14 65 9 8 16 52 20 119 4 58 20
189 37 290 17 101 37 227 46 279 20 131 43 261 60 349 25 131 13 172 -26 87z"/>
<path d="M8475 6100 c-7 -11 0 -13 29 -10 35 3 63 -10 75 -36 10 -24 10 -26
-6 -19 -55 23 -103 0 -103 -50 0 -30 26 -45 78 -45 51 0 72 23 72 79 0 59 -33
91 -94 91 -25 0 -48 -4 -51 -10z"/>
<path d="M737 5888 c-5 -188 -8 -227 -41 -527 -9 -79 -16 -145 -16 -147 0 -2
-7 -1 -16 3 -12 4 -15 2 -12 -8 2 -8 14 -15 26 -17 26 -4 28 5 42 143 5 55 19
179 30 275 24 211 27 442 6 459 -12 10 -15 -17 -19 -181z"/>
<path d="M452 6050 c-19 -21 -45 -100 -60 -180 l-8 -45 -53 -3 c-44 -3 -51 -5
-41 -18 7 -7 29 -14 49 -14 l36 0 -3 -166 c-3 -161 -3 -168 29 -275 20 -70 36
-109 45 -109 18 0 19 -6 -16 112 -28 94 -30 112 -30 262 0 124 5 183 20 251
23 108 38 155 56 176 29 33 6 41 -24 9z"/>
<path d="M9520 5960 c0 -5 12 -10 28 -10 39 0 68 -24 82 -66 14 -41 9 -50 -18
-35 -31 16 -57 13 -76 -8 -23 -25 -18 -49 15 -73 24 -18 27 -19 61 -2 56 26
73 85 43 144 -8 16 -25 36 -37 44 -25 18 -98 22 -98 6z"/>
<path d="M9017 5908 c-70 -57 -84 -114 -40 -160 33 -35 59 -35 93 -3 24 23 30
25 54 14 20 -10 26 -19 26 -45 0 -36 13 -51 27 -31 14 20 -2 174 -22 207 -9
15 -55 -12 -61 -36 -3 -12 -14 -30 -25 -40 -10 -9 -19 -26 -19 -36 0 -28 -29
-34 -52 -10 -28 28 -18 61 32 108 36 35 52 65 33 64 -5 -1 -25 -15 -46 -32z"/>
<path d="M7695 5893 c-16 -21 -46 -57 -68 -80 -23 -24 -37 -48 -34 -56 3 -8
32 -19 69 -26 34 -7 72 -14 83 -16 30 -6 53 11 37 27 -6 6 -12 35 -12 63 0 63
-17 125 -34 125 -8 0 -26 -17 -41 -37z"/>
<path d="M7984 5892 c-6 -4 -18 -21 -27 -39 -22 -42 -47 -65 -63 -59 -7 3 -16
1 -19 -5 -4 -5 0 -12 8 -15 13 -5 13 -9 -1 -34 -23 -39 -6 -51 23 -17 16 18
34 27 54 27 26 0 30 -4 33 -32 2 -17 9 -33 16 -36 9 -3 12 23 12 107 0 111 -5
124 -36 103z"/>
<path d="M10577 5863 c-9 -15 -68 -363 -121 -708 -8 -55 -18 -145 -22 -200 -3
-55 -19 -185 -34 -288 -27 -178 -29 -217 -10 -217 10 0 16 29 31 145 6 50 25
180 44 290 33 205 50 332 61 465 3 41 11 111 19 155 16 97 42 264 50 323 5 37
-5 56 -18 35z"/>
<path d="M3003 5820 c-27 -44 -52 -65 -78 -67 -11 -1 -58 -11 -104 -23 -51
-13 -95 -19 -113 -14 -19 4 -28 2 -24 -4 3 -5 -11 -12 -32 -16 -57 -9 -64 -8
-58 12 7 22 -9 91 -24 106 -9 8 -10 -7 -5 -60 9 -84 18 -77 -140 -99 -55 -7
-143 -23 -195 -34 -229 -51 -297 -63 -341 -59 -32 3 -46 1 -43 -6 5 -12 -90
-36 -266 -67 l-104 -18 -23 21 c-26 24 -43 19 -18 -5 20 -21 19 -27 -5 -27
-14 0 -20 7 -20 21 0 30 -19 13 -71 -65 -23 -33 -78 -108 -123 -165 -69 -89
-81 -101 -84 -80 -2 13 -6 31 -9 39 -7 18 -20 -28 -22 -80 -1 -24 -13 -49 -37
-80 -46 -57 -100 -140 -108 -167 -10 -31 -35 -49 -96 -68 -88 -28 -93 -46 -7
-26 21 5 39 5 43 0 9 -15 26 -10 20 7 -3 8 -2 12 4 9 5 -3 36 1 69 10 32 8 72
15 89 15 16 0 45 6 63 14 19 7 77 21 129 31 52 10 149 30 215 46 209 49 297
68 390 84 50 9 124 25 166 35 42 11 83 18 91 15 9 -4 18 1 21 9 4 9 18 16 32
16 14 0 72 14 128 31 63 19 114 28 134 25 18 -2 35 0 39 5 3 5 21 16 40 24 41
17 69 42 53 47 -6 2 5 23 25 47 20 23 36 49 36 56 0 8 8 21 18 31 9 10 34 40
54 67 20 27 55 65 77 83 l40 34 34 -30 c37 -32 67 -39 67 -15 0 8 -4 15 -9 15
-5 0 -25 16 -44 35 -19 19 -31 35 -25 35 14 0 44 37 74 90 41 75 68 106 87
102 9 -2 17 1 17 7 0 6 -5 11 -11 11 -8 0 -8 4 1 14 6 8 10 25 8 38 -3 21 -4
21 -25 -12z m-603 -232 c-36 -150 -120 -432 -131 -439 -22 -14 -85 -10 -128 7
-42 17 -43 22 -11 89 5 11 37 90 70 175 33 85 64 160 68 167 4 7 37 16 72 21
36 5 66 10 66 11 1 0 -2 -14 -6 -31z m110 16 c30 -6 31 -9 26 -39 -4 -18 -28
-100 -55 -181 l-49 -148 -52 -28 c-29 -15 -55 -28 -57 -28 -9 0 56 252 94 360
8 25 17 51 19 58 4 13 26 15 74 6z m-291 -66 c-12 -29 -36 -93 -54 -143 -18
-49 -43 -118 -56 -153 l-23 -63 -66 3 -65 3 38 104 c21 58 51 132 66 166 27
59 31 63 102 97 41 20 75 37 76 37 2 1 -7 -23 -18 -51z m379 30 c6 -7 12 -26
14 -42 4 -36 28 -48 28 -14 1 22 1 22 15 4 25 -33 16 -100 -11 -89 -10 4 -14
-3 -14 -26 0 -21 -9 -40 -26 -56 -30 -28 -144 -97 -144 -87 0 4 23 67 50 141
28 74 50 142 50 151 0 30 20 39 38 18z m-688 -83 c7 -14 20 -25 29 -25 18 -1
-17 -32 -88 -80 l-44 -29 -26 34 c-14 19 -34 46 -44 60 -10 14 -26 25 -35 25
-15 0 -15 2 -2 10 8 5 34 10 58 10 37 0 45 -4 60 -30 9 -16 23 -30 30 -30 16
0 16 3 -9 44 l-21 36 39 0 c32 0 42 -5 53 -25z m88 -117 c-22 -62 -46 -128
-52 -147 -11 -30 -20 -37 -92 -62 -43 -16 -80 -29 -81 -29 -3 0 28 72 65 152
19 39 44 75 62 88 16 12 53 41 82 66 28 24 53 44 54 44 2 0 -15 -51 -38 -112z
m-198 -103 c-16 -36 -35 -83 -41 -105 -11 -35 -20 -44 -81 -75 -111 -56 -117
-48 -60 80 35 81 51 105 71 105 9 1 41 14 71 30 30 15 58 29 62 29 4 1 -6 -28
-22 -64z m-180 -20 c0 -3 -11 -32 -25 -65 -14 -33 -29 -83 -33 -112 l-7 -53
-77 -39 c-43 -22 -80 -37 -83 -34 -5 4 25 84 86 228 12 30 24 57 26 60 2 2 25
7 51 11 26 3 50 7 55 8 4 0 7 -1 7 -4z m-151 -21 c3 -3 -74 -203 -104 -271
-14 -31 -18 -33 -65 -33 -37 0 -50 4 -50 15 0 25 39 120 85 205 25 46 45 87
45 92 0 7 79 0 89 -8z m-129 -4 c4 0 -8 -30 -28 -67 -20 -38 -51 -106 -68
-153 -31 -81 -34 -85 -61 -82 -52 5 -53 7 -31 64 51 137 132 256 164 244 9 -3
19 -6 24 -6z"/>
<path d="M8490 5762 c-56 -28 -67 -44 -56 -88 5 -20 12 -24 47 -24 48 0 101
35 119 80 27 65 -18 78 -110 32z"/>
<path d="M10185 5718 c-61 -33 -91 -94 -79 -158 9 -44 29 -48 88 -16 65 35 99
32 106 -8 7 -40 25 -33 24 8 -1 27 4 36 24 45 27 13 22 26 -11 26 -16 0 -23 8
-27 29 -7 42 -23 42 -63 2 -19 -20 -39 -36 -46 -36 -6 0 -11 -8 -11 -18 0 -11
-9 -27 -21 -38 -17 -16 -22 -16 -29 -4 -5 8 -8 22 -6 30 3 8 7 30 11 47 7 34
50 73 79 73 9 0 16 7 16 15 0 18 -26 19 -55 3z"/>
<path d="M3555 5639 c-16 -5 -44 -10 -61 -12 -41 -4 -104 -44 -104 -65 1 -32
35 -87 62 -100 31 -15 74 -7 82 15 4 9 -5 39 -18 69 l-24 53 51 10 c29 6 63
12 76 13 14 2 26 9 29 16 4 14 -47 15 -93 1z"/>
<path d="M9500 5618 c-24 -11 -24 -11 15 -17 47 -8 65 -17 65 -36 0 -10 -11
-12 -40 -8 -33 5 -45 2 -65 -17 -30 -28 -32 -63 -6 -89 17 -17 26 -18 53 -10
18 5 34 9 35 9 1 0 14 17 28 37 27 41 34 103 13 121 -21 16 -71 22 -98 10z"/>
<path d="M3106 5582 c-3 -5 -8 -28 -12 -50 -4 -23 -9 -42 -13 -42 -3 0 -24 16
-45 35 -68 60 -79 43 -48 -69 23 -80 47 -89 37 -15 l-7 54 23 -20 c13 -11 30
-26 37 -33 17 -15 30 -8 44 26 10 27 11 26 35 -28 29 -65 28 -64 47 -57 12 5
12 12 -5 44 -11 21 -27 62 -35 91 -14 48 -46 83 -58 64z"/>
<path d="M8607 5553 c-4 -3 -7 -13 -7 -20 0 -11 9 -12 36 -7 31 6 35 4 28 -9
-5 -8 -29 -31 -54 -51 l-45 -36 -3 31 c-4 36 -41 62 -115 80 -42 10 -51 9 -65
-5 -15 -15 -13 -16 23 -16 48 0 118 -38 123 -65 3 -16 1 -18 -9 -7 -21 20 -73
15 -97 -11 -39 -42 -24 -97 26 -97 28 0 88 34 101 57 7 14 12 13 38 -7 31 -23
73 -24 81 -2 2 7 -6 12 -20 12 -49 0 -50 21 -3 57 43 33 64 71 50 92 -7 12
-78 15 -88 4z"/>
<path d="M9763 5543 c-2 -10 -20 -26 -39 -35 -33 -17 -35 -17 -41 0 -16 42
-48 35 -38 -8 5 -24 2 -30 -24 -41 -17 -8 -31 -17 -31 -21 0 -11 38 -10 61 2
16 9 21 7 28 -13 14 -36 38 -52 56 -37 8 7 15 19 15 27 0 12 -3 13 -13 4 -11
-8 -16 -5 -25 14 -10 22 -8 27 22 50 18 14 38 25 44 25 7 0 12 5 12 10 0 18
49 11 70 -10 11 -11 20 -31 20 -45 0 -27 -9 -32 -27 -14 -18 18 -63 -15 -63
-47 0 -32 24 -41 64 -22 44 22 74 78 58 112 -24 54 -137 91 -149 49z"/>
<path d="M7572 5390 c-17 -37 -42 -187 -42 -252 0 -10 -16 -13 -57 -13 -47 0
-58 -3 -61 -17 -3 -15 4 -18 32 -18 19 0 46 4 60 10 26 9 26 9 26 -38 0 -120
35 -232 72 -232 22 0 22 1 -2 42 -34 58 -45 174 -31 326 7 73 17 146 23 162 5
16 8 39 6 52 -4 20 -7 17 -26 -22z"/>
<path d="M4145 5217 c0 -117 -5 -229 -12 -267 -7 -36 -15 -90 -18 -120 -4 -30
-10 -68 -15 -85 -5 -16 -11 -48 -15 -70 -8 -48 -21 -65 -47 -65 -25 0 -18 -24
8 -28 28 -4 58 35 72 93 7 28 23 130 37 228 34 243 33 489 -3 511 -4 2 -7 -87
-7 -197z"/>
<path d="M8110 5406 c0 -2 7 -32 16 -66 14 -55 14 -84 3 -244 -8 -117 -17
-188 -26 -202 -11 -18 -11 -23 1 -33 12 -10 18 -8 30 11 23 35 45 411 27 475
-11 44 -24 62 -43 63 -5 0 -8 -2 -8 -4z"/>
<path d="M4900 5358 c-32 -70 -25 -162 15 -201 18 -19 55 -23 55 -7 0 6 -6 10
-14 10 -19 0 -46 39 -46 66 0 30 30 35 58 10 20 -17 26 -18 44 -7 14 9 23 10
31 2 17 -17 35 -13 52 13 25 38 11 53 -60 61 -51 5 -69 3 -87 -9 -12 -9 -26
-16 -30 -16 -18 0 -6 50 17 78 30 36 31 42 5 42 -15 0 -27 -13 -40 -42z"/>
<path d="M3954 5354 c-20 -47 -9 -56 21 -19 l24 30 -6 -55 c-3 -30 -12 -62
-19 -71 -17 -19 -18 -87 -3 -126 10 -26 11 -27 24 -10 7 10 16 45 20 78 7 64
17 78 41 58 21 -17 26 -7 19 35 -8 39 -27 47 -45 19 -9 -14 -10 -9 -6 24 8 54
0 73 -31 73 -18 0 -28 -9 -39 -36z"/>
<path d="M3693 5348 c-11 -13 -29 -42 -39 -65 -10 -24 -21 -43 -24 -43 -4 0
-12 12 -18 26 -13 28 -32 24 -32 -7 0 -12 -7 -19 -20 -19 -11 0 -20 -7 -20
-15 0 -8 9 -15 20 -15 11 0 20 -7 20 -15 0 -8 7 -15 15 -15 8 0 15 6 15 14 0
8 6 16 13 19 10 4 13 -10 13 -61 -1 -96 20 -93 29 5 7 75 27 147 47 168 6 6 3
-8 -6 -29 -19 -47 -17 -51 30 -55 9 0 14 -8 12 -18 -2 -13 -11 -17 -31 -15
-18 2 -27 -1 -27 -11 0 -33 62 -36 84 -5 24 34 20 58 -13 69 -27 10 -29 13
-20 39 7 20 7 35 -1 49 -14 27 -22 26 -47 -1z"/>
<path d="M4508 5364 c-3 -3 0 -17 7 -32 7 -15 15 -49 18 -76 4 -41 2 -49 -14
-53 -10 -3 -19 -9 -19 -14 0 -15 44 -10 68 7 12 8 22 11 22 5 0 -6 16 -13 36
-17 34 -6 35 -8 32 -43 -2 -27 1 -36 12 -36 11 0 15 11 15 40 0 32 4 40 20 43
11 2 24 8 29 12 4 4 17 -1 27 -11 21 -21 41 -24 70 -9 27 15 24 32 -6 24 -14
-3 -33 -3 -42 1 -14 5 -6 11 30 21 62 19 61 35 -3 27 -45 -5 -50 -4 -44 11 5
13 13 16 31 11 20 -5 24 -2 21 12 -4 24 -41 28 -62 8 -9 -9 -16 -29 -16 -45 0
-23 -5 -28 -31 -32 -35 -5 -49 12 -49 61 0 32 15 50 23 29 4 -10 8 -9 16 2 14
21 -2 34 -33 26 -32 -8 -43 -45 -28 -92 10 -32 9 -34 -14 -34 -21 0 -23 3 -14
19 5 11 10 32 10 46 0 47 -86 116 -112 89z"/>
<path d="M7624 5356 c-15 -12 -19 -26 -18 -69 2 -70 25 -107 68 -107 37 0 49
7 65 37 21 41 14 92 -18 124 -32 32 -66 37 -97 15z"/>
<path d="M8978 5335 c-68 -50 -83 -123 -34 -164 9 -7 16 -20 16 -27 0 -22 23
-16 45 12 20 25 24 26 58 15 33 -11 36 -15 30 -42 -7 -37 14 -39 27 -3 18 47
-17 165 -51 172 -10 2 -27 -14 -45 -41 -60 -92 -51 -85 -69 -62 -31 38 -3 101
56 125 17 8 29 20 29 31 0 26 -8 24 -62 -16z"/>
<path d="M9580 5312 c49 -24 55 -31 58 -61 3 -33 3 -33 -20 -17 -33 23 -72 20
-107 -10 -76 -64 8 -128 97 -74 18 11 39 20 47 20 11 0 15 13 15 54 0 49 -3
57 -35 85 -27 23 -45 31 -73 31 l-37 -1 55 -27z"/>
<path d="M8407 5319 c-30 -18 -9 -28 48 -22 29 3 75 0 102 -6 139 -36 333 -52
333 -28 0 9 -36 17 -125 26 -68 7 -151 19 -182 27 -69 16 -151 18 -176 3z"/>
<path d="M3370 5300 c-21 -40 -49 -147 -59 -230 -7 -65 -6 -101 4 -155 16 -80
68 -218 84 -223 19 -6 12 34 -21 120 -31 78 -33 91 -33 203 1 126 17 207 55
273 19 31 19 32 0 32 -11 0 -24 -9 -30 -20z"/>
<path d="M6252 5283 c-11 -22 -3 -113 9 -113 5 0 9 8 9 18 0 12 3 13 8 5 10
-17 82 -13 89 4 8 20 33 15 33 -7 0 -11 7 -20 15 -20 8 0 15 4 15 8 0 23 -32
112 -40 112 -5 0 -17 -16 -26 -35 -9 -19 -20 -32 -25 -29 -5 3 -4 14 2 26 15
28 -12 58 -35 38 -9 -7 -16 -20 -16 -29 0 -9 -5 -23 -10 -31 -7 -11 -8 -2 -4
28 7 44 -7 58 -24 25z"/>
<path d="M8378 5233 c-30 -7 -20 -22 20 -28 50 -8 66 -18 70 -42 3 -18 -1 -20
-45 -16 -83 8 -134 -52 -88 -104 l23 -27 41 19 c61 27 101 77 101 125 0 30 -5
43 -22 54 -26 16 -75 25 -100 19z"/>
<path d="M8694 5213 c-28 -5 -91 -59 -81 -69 4 -5 16 -3 25 4 48 35 81 45 105
35 31 -14 38 -42 22 -81 -13 -28 -16 -30 -54 -25 -50 7 -81 -16 -81 -58 0 -26
22 -49 49 -49 37 0 122 116 123 170 2 50 -49 84 -108 73z"/>
<path d="M7925 5027 c-29 -29 -35 -42 -35 -79 0 -57 34 -94 76 -84 74 19 108
108 62 160 -39 42 -64 42 -103 3z"/>
<path d="M9503 5020 c-13 -5 -23 -14 -23 -20 0 -13 13 -13 27 1 17 17 68 -6
82 -37 15 -34 16 -34 -29 -17 -39 15 -42 15 -67 -4 -58 -43 -43 -113 24 -113
70 0 134 102 98 156 -25 39 -68 51 -112 34z"/>
<path d="M5242 4988 c-5 -7 -16 -33 -23 -57 -10 -35 -11 -45 -1 -49 9 -3 12
-41 12 -133 0 -122 -1 -129 -20 -129 -28 0 -25 -19 4 -30 23 -8 24 -15 31
-124 4 -64 7 -119 6 -123 0 -5 -15 -12 -31 -16 -17 -4 -28 -12 -25 -16 3 -5
-1 -11 -9 -14 -8 -3 -17 1 -20 9 -3 8 -12 14 -20 14 -13 0 -14 9 -10 43 5 35
3 45 -10 50 -17 7 -56 -24 -56 -43 0 -14 27 -12 34 3 4 6 4 -4 1 -23 -3 -19
-10 -36 -15 -38 -6 -2 -10 -11 -10 -19 0 -13 8 -14 43 -10 39 6 37 4 -38 -33
-44 -21 -87 -39 -96 -39 -33 -2 -165 125 -213 204 -84 139 -112 225 -137 423
-14 112 -29 135 -29 45 1 -140 43 -305 112 -433 52 -98 88 -144 159 -204 32
-27 56 -53 53 -58 -3 -5 -42 -27 -87 -49 -44 -23 -97 -52 -118 -65 -31 -19
-38 -21 -43 -9 -8 21 -26 19 -26 -2 0 -16 -9 -18 -87 -15 -90 4 -153 -3 -153
-17 0 -4 51 -6 113 -4 l112 4 -54 -30 c-30 -17 -57 -31 -60 -31 -3 -1 -17 -10
-30 -21 -26 -21 -21 -40 7 -23 32 20 150 84 155 84 2 0 8 -10 12 -22 l7 -23 7
25 c7 25 8 25 139 28 l132 3 0 -27 c0 -33 24 -27 28 7 l3 24 137 -3 c75 -2
138 -5 139 -6 1 -1 5 -47 9 -102 7 -99 6 -101 -16 -107 -23 -6 -19 -27 6 -27
11 0 14 -22 14 -120 0 -66 -4 -120 -9 -120 -5 0 -16 -3 -25 -6 -13 -5 -16 1
-16 29 0 43 -17 58 -26 22 -9 -35 -24 -32 -24 5 0 17 -4 30 -10 30 -5 0 -10
-20 -10 -45 0 -39 3 -45 21 -45 13 0 23 -10 30 -30 12 -33 34 -31 23 2 -5 17
-3 20 11 15 9 -4 21 -7 26 -7 5 0 9 -45 9 -100 0 -60 4 -100 10 -100 6 0 10
38 10 93 0 60 4 97 12 105 10 10 10 17 0 32 -13 22 -5 240 10 240 12 0 10 28
-4 32 -11 4 -31 195 -21 211 2 4 60 7 129 7 104 0 124 -2 124 -15 0 -8 5 -15
10 -15 6 0 10 9 10 20 0 18 7 20 69 20 37 0 96 -3 130 -6 49 -6 61 -10 61 -25
0 -24 10 -49 21 -49 5 0 9 16 9 35 l0 35 53 0 c28 0 82 3 120 7 l67 6 1 -29 1
-29 10 28 c10 27 10 27 101 27 l92 0 -33 -21 c-18 -12 -31 -24 -28 -26 8 -8
59 12 106 42 41 26 43 28 25 41 -21 16 -85 19 -85 5 0 -5 6 -12 13 -14 6 -3
-29 -6 -78 -6 -60 -1 -95 3 -103 11 -10 10 -15 10 -22 -2 -8 -13 -48 -15 -267
-13 -172 1 -259 5 -261 12 -5 15 -22 14 -22 -1 0 -10 -24 -13 -88 -13 l-88 0
69 34 c53 25 93 57 167 130 102 101 140 153 209 287 l41 81 173 85 c94 47 198
95 230 108 31 13 57 27 57 32 0 13 -16 10 -75 -16 -30 -14 -55 -22 -55 -18 0
9 31 92 54 145 13 29 13 37 3 37 -12 0 -37 -47 -75 -140 -6 -14 -11 -19 -11
-12 -1 6 -8 12 -17 12 -12 0 -14 -5 -9 -17 20 -46 14 -52 -128 -119 -76 -36
-141 -64 -143 -61 -3 3 4 26 16 52 30 66 65 307 45 313 -5 1 -16 -35 -23 -80
-8 -46 -16 -85 -18 -87 -3 -3 -26 16 -52 42 -43 43 -72 59 -72 40 0 -4 23 -31
51 -59 49 -50 51 -52 30 -63 -11 -7 -21 -19 -21 -28 0 -14 2 -14 25 1 14 9 25
13 25 9 0 -18 -44 -159 -53 -171 -6 -7 -40 -27 -76 -44 -36 -16 -84 -38 -106
-49 -56 -26 -284 -129 -318 -142 -39 -16 -43 -6 -51 121 -7 90 -5 107 8 114
20 11 21 28 3 28 -10 0 -16 26 -20 98 -10 150 -10 167 7 153 12 -10 16 -5 22
34 10 68 -16 116 -44 83z m518 -476 c0 -31 -29 -116 -49 -141 -18 -23 -18 -23
-10 39 6 38 5 68 -1 78 -7 13 -9 8 -10 -23 -1 -65 -26 -156 -50 -179 l-22 -21
5 25 c4 14 9 62 13 107 l7 83 51 25 c62 29 66 30 66 7z m-149 -158 c-10 -97
-14 -111 -37 -134 l-26 -25 6 45 c16 105 19 180 7 180 -6 0 -11 -18 -12 -42 0
-24 -6 -80 -12 -125 -10 -69 -16 -84 -39 -102 -37 -30 -136 -72 -174 -75 l-30
-3 18 106 c10 58 18 118 18 132 0 18 8 29 26 38 15 6 28 10 29 9 2 -2 -5 -44
-15 -93 -11 -50 -19 -110 -19 -135 l1 -45 10 40 c5 22 18 87 29 144 10 57 21
106 24 109 15 15 15 -17 1 -108 -19 -117 -21 -173 -6 -150 5 8 10 29 10 45 0
17 9 75 19 129 17 87 30 115 52 116 3 0 -2 -48 -12 -107 -21 -122 -23 -163 -9
-163 6 0 10 19 10 43 1 23 7 71 15 107 8 36 14 80 15 98 0 30 5 35 53 56 28
13 53 22 55 21 2 -2 -1 -52 -7 -111z m-470 -294 l44 -20 -65 1 c-36 0 -83 3
-105 7 -36 7 -40 10 -37 35 2 19 -2 27 -13 27 -10 0 -16 -7 -14 -17 5 -54 7
-53 -113 -53 -131 1 -131 2 7 72 120 61 120 61 191 11 34 -24 81 -52 105 -63z"/>
<path d="M3012 4938 c-11 -24 -26 -51 -34 -61 -13 -17 -16 -16 -46 17 -57 63
-71 41 -20 -31 l32 -44 -27 -52 c-31 -60 -32 -67 -12 -67 8 0 24 17 34 38 37
68 39 70 56 45 17 -24 45 -31 45 -13 0 6 -9 24 -21 39 l-21 29 22 29 c24 33
40 113 22 113 -6 0 -20 -19 -30 -42z"/>
<path d="M3647 4869 c-40 -24 -69 -138 -46 -181 11 -21 14 -16 25 51 8 49 20
81 33 95 28 27 27 6 -1 -29 l-22 -28 35 7 c28 5 39 2 52 -12 16 -18 16 -19 -9
-32 -20 -11 -29 -12 -45 -1 -19 11 -20 10 -17 -11 4 -33 52 -37 84 -7 30 28
31 62 1 86 -13 10 -21 25 -19 32 5 15 -23 41 -42 41 -6 0 -19 -5 -29 -11z"/>
<path d="M7424 4724 c22 -225 17 -339 -20 -485 -18 -71 -17 -79 0 -79 19 0 28
14 31 53 1 18 10 86 20 152 23 160 9 412 -24 423 -11 4 -13 -8 -7 -64z"/>
<path d="M6602 4728 c-41 -83 -62 -378 -33 -476 16 -58 33 -44 25 21 l-7 52
21 -18 c11 -10 29 -17 39 -15 21 4 30 64 32 204 1 91 17 152 34 135 18 -18 29
-13 25 12 -5 33 -40 34 -59 0 -12 -20 -18 -67 -23 -166 -3 -77 -9 -143 -12
-149 -3 -5 -14 -2 -26 8 -17 16 -21 16 -29 4 -16 -23 -2 245 17 315 8 33 20
64 25 70 13 13 11 25 -4 25 -8 0 -19 -10 -25 -22z"/>
<path d="M8245 4716 c-27 -12 -55 -51 -55 -76 0 -19 30 -9 46 15 13 21 44 35
44 21 0 -10 -33 -95 -52 -132 -29 -59 -20 -78 35 -69 23 4 49 13 57 21 12 12
9 14 -24 14 -34 0 -37 2 -30 23 3 12 15 39 25 59 23 45 24 101 3 122 -8 9 -16
16 -17 16 -1 -1 -16 -7 -32 -14z"/>
<path d="M2708 4683 c-9 -10 -18 -31 -21 -48 -17 -93 56 -161 111 -102 45 48
40 116 -11 147 -40 25 -59 25 -79 3z"/>
<path d="M2047 4652 c-11 -12 -17 -36 -17 -64 0 -43 -2 -47 -32 -59 l-33 -13
32 -3 c36 -5 44 -21 45 -88 1 -29 6 -46 16 -50 8 -3 17 -4 19 -2 2 3 0 36 -5
75 l-8 70 28 6 c15 3 28 10 28 17 0 7 -11 8 -30 4 -30 -7 -30 -6 -30 38 0 24
3 47 7 50 12 13 33 -15 33 -44 0 -18 5 -29 14 -29 35 0 25 66 -16 94 -28 20
-31 20 -51 -2z"/>
<path d="M9356 4588 c-18 -25 -21 -54 -7 -63 6 -3 15 5 22 17 24 47 49 45 49
-3 0 -38 -13 -62 -67 -124 -60 -70 -58 -77 25 -69 80 7 92 10 92 24 0 5 -21
10 -46 10 -46 0 -46 0 -30 23 53 73 74 165 44 195 -20 20 -65 14 -82 -10z"/>
<path d="M2157 4530 c-34 -27 -35 -63 -2 -95 29 -30 36 -30 78 -8 18 9 42 16
54 14 12 -1 31 3 42 9 27 14 27 0 0 -34 -16 -21 -17 -26 -5 -26 18 0 56 47 56
70 0 21 -40 82 -58 88 -10 3 -10 -4 2 -32 14 -33 13 -37 -2 -45 -27 -14 -44
-3 -30 19 15 24 4 37 -17 20 -12 -10 -19 -10 -27 -2 -21 21 -29 13 -26 -25 3
-43 -18 -55 -46 -28 -21 22 -20 30 6 55 32 30 10 47 -25 20z"/>
<path d="M1100 4483 c-14 -3 -46 -20 -71 -39 -26 -19 -54 -34 -62 -34 -9 0
-22 -8 -29 -18 -10 -15 -37 -22 -123 -31 -129 -15 -133 -18 -116 -92 l8 -36
-72 -21 c-64 -19 -82 -30 -155 -97 -45 -41 -85 -75 -88 -75 -4 0 -35 -3 -69
-5 -34 -2 -65 0 -68 5 -3 6 -9 41 -12 79 -6 68 -5 70 16 64 26 -7 26 4 1 37
-11 14 -20 31 -20 39 0 22 -43 92 -54 88 -6 -2 -15 -34 -20 -72 -8 -55 -7 -70
5 -79 8 -6 23 -54 33 -106 11 -52 24 -101 29 -108 14 -17 -7 -32 -45 -32 -36
0 -78 -17 -78 -31 0 -8 18 -10 65 -5 l64 6 15 -52 c19 -72 46 -226 46 -263 0
-17 5 -36 12 -43 17 -17 5 -24 -52 -30 -36 -3 -50 -9 -50 -20 0 -15 34 -13 97
4 22 6 23 4 23 -52 0 -46 3 -55 12 -46 7 7 13 34 13 59 l1 47 115 17 c212 31
343 42 347 30 5 -16 32 -13 32 3 0 10 17 16 58 21 31 3 66 10 78 15 11 4 52
11 90 15 38 4 109 13 158 21 49 8 102 12 118 8 17 -3 28 -2 25 2 -3 5 7 10 21
10 15 1 79 11 142 23 63 12 156 26 205 31 50 6 102 13 116 16 22 4 28 1 33
-20 9 -35 26 -33 26 3 0 27 3 29 53 34 71 8 257 36 282 43 15 4 13 -1 -10 -20
-54 -46 3 -30 79 22 90 61 93 72 23 72 -99 0 -148 -19 -97 -38 21 -8 -156 -44
-282 -58 l-58 -7 0 29 c0 31 -19 140 -50 297 -11 54 -20 108 -20 118 0 27 30
24 146 -14 145 -49 405 -76 404 -42 -1 6 -20 9 -43 7 -70 -5 -248 26 -358 63
-56 19 -116 35 -131 35 -25 0 -28 3 -28 36 0 33 -2 35 -27 30 -42 -8 -186 -20
-203 -17 -8 2 -19 10 -26 19 -10 14 -14 14 -28 3 -24 -20 -53 -8 -170 69 -58
39 -118 75 -132 80 -25 10 -98 11 -144 3z m108 -170 c83 -71 89 -79 102 -124
6 -19 5 -29 -2 -29 -13 0 -74 48 -177 139 -70 62 -73 66 -50 72 44 12 50 10
127 -58z m-114 -12 c39 -33 105 -88 146 -122 91 -75 104 -97 76 -134 -13 -18
-16 -17 -67 21 -58 42 -167 135 -237 202 l-42 41 22 25 c13 13 25 24 27 25 1
1 35 -26 75 -58z m-57 -87 c48 -44 133 -114 188 -156 55 -41 105 -81 112 -89
16 -20 29 -149 15 -149 -6 0 -23 11 -37 26 -25 25 -45 25 -45 -2 0 -8 6 -14
13 -14 17 0 59 -44 50 -53 -3 -4 1 -7 9 -7 20 0 33 -17 42 -52 6 -25 3 -28
-17 -28 -13 0 -36 13 -52 30 -41 43 -101 82 -120 78 -11 -2 4 -18 44 -47 89
-64 91 -68 37 -76 -31 -5 -51 -3 -61 5 -10 8 -15 9 -15 2 0 -7 -7 -7 -23 1
-73 39 -344 234 -379 273 -9 11 -20 32 -24 49 l-7 29 39 -30 c68 -53 166 -116
171 -110 10 9 -8 25 -80 73 -111 74 -136 101 -143 158 -8 56 -15 58 100 -28
44 -32 92 -65 108 -73 60 -31 23 5 -92 91 -66 49 -120 92 -120 96 0 3 19 13
41 22 47 19 47 19 157 -70 57 -46 97 -60 47 -16 -16 14 -54 47 -84 73 l-53 47
33 21 c18 11 39 18 45 14 7 -4 52 -43 101 -88z m525 34 c15 1 28 0 28 -3 0 -2
-40 -54 -88 -114 -49 -60 -95 -120 -104 -133 -19 -28 -25 -24 -34 29 -6 40 -5
43 70 126 42 47 76 91 76 97 0 6 5 8 12 4 7 -5 25 -7 40 -6z m165 -46 c-26
-26 -47 -51 -47 -55 0 -16 19 -4 67 43 l51 50 7 -29 c5 -22 -1 -41 -24 -79
-40 -65 -39 -77 4 -27 l34 39 5 -27 c3 -15 8 -38 11 -51 3 -14 -3 -33 -15 -49
-21 -27 -27 -57 -10 -57 6 0 15 12 21 28 10 25 12 26 19 7 19 -44 10 -76 -40
-148 -27 -40 -55 -79 -62 -88 -12 -14 -125 -39 -178 -39 -21 0 -20 2 9 35 30
34 40 65 22 65 -5 0 -24 -24 -42 -54 -31 -49 -38 -55 -77 -61 -24 -4 -45 -5
-47 -3 -2 2 19 30 46 63 64 77 84 114 70 128 -8 8 -11 8 -11 0 0 -6 -25 -45
-56 -88 -62 -84 -67 -84 -78 -3 -7 47 -6 49 42 100 89 96 102 113 102 125 0
21 -18 15 -36 -12 -9 -14 -21 -25 -27 -25 -14 0 -47 -30 -47 -43 0 -5 8 -3 18
4 9 7 -1 -6 -23 -29 l-40 -43 -8 25 c-9 28 20 73 134 211 101 122 117 132 209
134 l44 1 -47 -48z m-1004 -69 l6 -51 -62 -7 c-34 -3 -88 -11 -120 -17 -32 -6
-60 -8 -63 -5 -4 3 13 26 37 51 34 35 61 52 114 70 39 14 73 22 76 18 4 -4 9
-30 12 -59z m19 -121 c6 -23 5 -40 -6 -60 -8 -15 -23 -49 -32 -77 -10 -27 -22
-55 -26 -62 -5 -7 -8 -22 -6 -35 4 -19 10 -12 33 37 15 33 33 78 40 100 l12
40 11 -65 c10 -53 9 -66 -2 -72 -14 -8 -79 -151 -91 -200 -4 -16 -12 -28 -19
-28 -6 0 -22 -3 -35 -7 -21 -5 -22 -4 -12 15 15 28 14 42 -3 42 -8 0 -17 -11
-20 -25 -7 -28 -28 -38 -95 -49 l-44 -7 17 25 c16 26 22 86 8 86 -4 0 -14 -24
-22 -52 -14 -49 -18 -54 -53 -62 -48 -12 -59 -2 -64 61 -3 34 6 86 32 183 37
138 55 180 79 180 7 0 21 9 31 20 10 11 26 20 36 20 14 0 6 -23 -45 -124 -64
-126 -120 -281 -114 -313 2 -9 14 17 27 58 14 40 38 103 54 139 24 54 31 62
37 45 4 -11 3 -21 -1 -23 -14 -6 -10 -29 6 -36 10 -4 15 -20 15 -50 0 -25 4
-47 9 -51 14 -8 24 32 17 69 -5 28 -3 34 19 44 40 18 34 56 -14 83 l-39 21 37
73 c32 65 39 73 70 79 19 3 37 4 38 2 2 -2 -12 -36 -32 -76 -36 -75 -41 -90
-27 -90 4 0 25 35 46 78 44 87 60 104 95 100 19 -2 27 -11 33 -36z m128 -147
c47 -36 228 -156 286 -191 16 -10 11 -12 -32 -18 -62 -9 -100 8 -209 90 -91
68 -106 85 -115 133 -8 46 -10 46 70 -14z"/>
<path d="M1053 4080 c-27 -11 -27 -9 -6 -116 11 -55 21 -84 30 -84 9 0 13 13
13 40 0 28 4 40 14 40 36 0 61 85 33 108 -19 16 -60 22 -84 12z"/>
<path d="M8430 4455 c-80 -7 -179 -18 -220 -24 -41 -6 -111 -11 -155 -11 -85
-1 -175 -25 -183 -49 -4 -10 0 -12 14 -7 11 5 73 12 139 17 66 5 183 17 260
27 106 13 212 17 438 16 208 0 296 3 294 10 -9 27 -380 41 -587 21z"/>
<path d="M3860 4334 c0 -71 -3 -89 -17 -100 -27 -19 -9 -28 30 -15 70 24 127
107 99 146 -17 24 -66 55 -88 55 -23 0 -24 -2 -24 -86z"/>
<path d="M9596 4391 c-22 -3 -41 -11 -43 -17 -2 -7 12 -25 31 -41 l36 -29 -22
-39 c-11 -22 -31 -55 -44 -74 -13 -19 -21 -38 -18 -43 7 -11 194 -10 194 1 0
19 -23 71 -31 71 -5 0 -9 -11 -9 -25 0 -24 -3 -25 -55 -25 -58 0 -63 4 -42 29
7 9 25 35 40 58 l27 42 -25 29 c-29 35 -24 42 27 42 27 0 38 -4 38 -15 0 -23
20 -18 29 8 5 14 4 25 -3 29 -13 9 -72 8 -130 -1z"/>
<path d="M8524 4335 c-8 -19 2 -45 16 -45 5 0 10 7 10 15 0 17 55 21 65 5 7
-11 -15 -57 -56 -117 -47 -69 -41 -84 41 -98 42 -7 74 9 50 25 -8 5 -24 10
-35 10 -39 1 -46 13 -24 45 27 40 59 114 59 134 0 29 -22 41 -72 41 -34 0 -50
-5 -54 -15z"/>
<path d="M9891 4322 c-23 -4 -23 -6 -17 -64 3 -34 6 -76 6 -94 0 -19 5 -34 10
-34 6 0 10 10 10 23 0 32 12 46 48 56 38 11 40 6 11 -26 -20 -20 -20 -23 -5
-29 9 -3 28 -3 44 1 25 6 26 8 9 20 -12 8 -14 15 -8 20 6 3 11 15 11 26 0 13
-7 19 -24 19 -20 0 -25 6 -28 31 -3 36 -31 57 -67 51z"/>
<path d="M8014 4259 c-4 -8 0 -17 11 -23 10 -6 29 -20 42 -31 l25 -20 -35 -52
c-19 -29 -32 -54 -29 -57 14 -15 35 -2 63 38 31 43 32 43 50 25 37 -37 60 -16
28 25 -22 27 -21 35 7 74 15 20 15 22 -1 22 -9 0 -30 -8 -46 -17 -26 -15 -30
-15 -46 -1 -26 23 -60 31 -69 17z"/>
<path d="M8768 4241 c-11 -18 -13 -18 -36 -3 l-25 16 9 -44 c21 -107 -3 -250
-43 -250 -16 0 -14 -31 3 -37 18 -6 63 47 74 88 6 22 19 78 30 126 10 49 22
96 25 106 10 24 -21 23 -37 -2z"/>
<path d="M2637 4222 c-10 -10 -17 -33 -17 -50 0 -24 -10 -41 -41 -71 -24 -23
-36 -41 -30 -45 13 -8 49 15 79 49 30 34 72 34 72 1 0 -32 -18 -43 -34 -21
-11 15 -13 15 -25 1 -30 -36 40 -64 73 -30 39 38 22 104 -26 104 -16 0 -17 5
-12 40 7 45 -10 55 -39 22z"/>
<path d="M9257 4063 c-4 -3 -7 -51 -7 -105 0 -59 -4 -98 -10 -98 -15 0 -12
-19 5 -36 10 -10 15 -35 15 -72 0 -31 3 -74 7 -96 6 -37 5 -38 -16 -27 -17 10
-22 9 -28 -5 -4 -10 4 -24 23 -40 57 -46 61 -34 45 151 -7 72 -6 92 5 98 12 7
12 12 -1 30 -20 29 -21 117 0 117 18 0 20 41 5 71 -11 19 -31 25 -43 12z"/>
<path d="M10442 4009 c-19 -6 -31 -15 -29 -22 5 -13 9 -13 45 -2 30 9 30 -18
0 -39 -18 -13 -19 -16 -5 -22 12 -4 14 -11 6 -31 -14 -37 -11 -43 18 -43 30 0
83 44 83 69 1 37 22 -23 24 -65 1 -60 20 -61 24 -2 4 56 -11 88 -39 88 -11 0
-17 5 -14 10 4 6 -6 10 -23 10 -26 0 -29 3 -25 21 4 12 0 25 -8 30 -16 10 -14
10 -57 -2z"/>
<path d="M7653 3948 c-17 -21 -45 -117 -38 -128 4 -6 13 -9 20 -6 10 4 15 -14
20 -72 3 -42 11 -90 16 -106 21 -65 12 -107 -39 -178 -76 -107 -192 -258 -252
-328 -112 -131 -123 -146 -111 -168 6 -11 15 -57 20 -103 36 -308 81 -661 99
-791 8 -50 6 -57 -10 -61 -10 -3 -18 -12 -18 -21 0 -26 -101 -175 -159 -236
-13 -13 -14 -13 -7 5 4 11 10 36 13 55 l5 35 -20 -20 c-19 -19 -52 -114 -52
-149 0 -27 46 -19 85 15 43 38 46 55 5 34 -26 -13 -22 -5 33 62 34 43 85 110
112 148 27 39 53 73 58 76 13 9 125 25 297 43 80 9 232 25 338 38 149 16 203
19 233 11 48 -13 51 -11 126 92 33 44 118 150 189 235 72 85 149 180 172 211
47 63 41 61 222 74 l75 5 -45 -22 c-56 -28 -54 -27 -48 -33 2 -3 31 4 63 14
58 19 123 70 112 88 -10 16 -118 36 -130 24 -7 -7 -1 -15 23 -24 l33 -14 -44
-6 c-24 -4 -83 -9 -132 -13 -78 -6 -87 -5 -81 9 3 9 -1 24 -10 32 -9 9 -16 28
-16 41 0 26 -12 104 -61 409 -30 186 -37 321 -18 357 20 37 -1 41 -122 24
-250 -34 -426 -59 -474 -67 -27 -4 -134 -8 -237 -8 l-187 -1 -5 33 c-3 17 -10
66 -16 107 -6 41 -13 91 -16 110 -3 25 -2 31 5 20 19 -27 23 -1 11 72 -12 78
-21 96 -37 76z m1016 -385 c-41 -53 -282 -300 -409 -420 l-45 -42 -204 -21
c-112 -11 -210 -19 -216 -16 -7 2 -14 36 -18 83 -3 43 -11 92 -18 108 -8 17
-14 57 -14 90 -1 33 -5 79 -9 102 l-8 41 53 6 c30 4 124 8 209 11 85 2 191 11
235 18 74 14 155 24 370 46 44 5 82 9 84 10 2 0 -3 -7 -10 -16z m48 -308 c57
-351 74 -498 59 -507 -6 -4 -32 -8 -58 -8 -54 0 -69 -25 -20 -33 15 -2 -1 -5
-35 -6 -34 0 -63 3 -65 8 -3 10 -190 -17 -198 -29 -3 -4 -19 -11 -37 -14 -50
-11 -67 13 -87 124 -10 52 -20 139 -23 192 l-6 98 149 148 c82 82 178 182 214
222 l65 74 8 -55 c4 -30 20 -126 34 -214z m-1012 120 c4 -38 17 -124 30 -190
13 -66 20 -123 17 -127 -4 -4 -63 -12 -132 -18 -69 -7 -163 -15 -210 -20 -47
-4 -86 -7 -87 -6 -1 1 41 53 93 116 52 63 134 166 181 228 59 78 88 110 93
100 4 -7 11 -44 15 -83z m513 -407 c7 -57 17 -128 22 -158 5 -30 9 -74 9 -97
1 -39 -1 -43 -24 -43 -14 0 -25 2 -25 5 0 2 -6 29 -14 59 -25 96 -39 245 -25
262 10 13 10 17 -2 25 -17 11 -144 2 -219 -16 -101 -25 -150 -22 -150 9 0 13
88 26 305 46 44 4 87 8 95 9 13 1 18 -20 28 -101z m-461 17 c1 -30 -8 -45 -88
-129 l-89 -94 15 -128 c9 -71 20 -160 26 -199 16 -109 16 -108 -13 -123 -47
-22 -106 -115 -63 -98 11 4 8 -4 -7 -24 -13 -19 -28 -28 -38 -25 -10 3 -24
-10 -44 -43 -25 -41 -30 -45 -36 -27 -8 23 -27 156 -35 260 -4 39 -10 97 -16
130 -13 87 -12 110 4 96 10 -8 29 -7 71 4 67 18 66 18 66 6 0 -5 -13 -14 -30
-21 -29 -12 -41 -30 -19 -30 7 0 9 -10 5 -25 -5 -18 -2 -27 9 -31 23 -9 65 4
65 21 0 20 -21 30 -31 14 -5 -8 -9 -9 -9 -4 0 23 19 37 51 39 38 2 54 26 17
26 -19 0 -24 5 -24 23 1 19 -4 22 -39 22 -37 0 -42 3 -65 44 -14 25 -29 46
-35 48 -5 2 -19 -25 -29 -60 -11 -34 -21 -53 -22 -42 -2 11 -10 83 -19 160 -9
77 -18 154 -20 172 -4 31 -3 32 48 38 29 3 106 12 172 19 66 8 143 14 170 15
l50 1 2 -35z m333 2 c0 -8 -39 -47 -100 -100 -61 -54 -68 -57 -117 -57 -51 0
-52 1 -58 34 -14 71 -7 80 70 93 39 7 90 16 115 21 48 10 90 14 90 9z m51
-201 c11 -65 19 -119 17 -120 -42 -25 -108 -34 -108 -15 0 11 -25 8 -64 -7
-13 -5 -16 2 -16 37 0 24 -4 59 -10 78 -9 33 -8 36 73 118 80 82 82 84 85 56
2 -15 12 -81 23 -147z m-331 -32 c0 -14 5 -45 11 -69 11 -43 11 -44 -36 -105
-31 -41 -45 -68 -42 -80 4 -15 -6 -27 -40 -50 -25 -17 -47 -30 -48 -28 -2 2
-8 64 -14 138 -7 74 -14 145 -16 156 -4 20 2 24 63 38 69 16 101 23 115 25 4
0 7 -11 7 -25z m970 -70 c0 -6 -88 -122 -110 -144 -8 -9 -80 -96 -160 -193
-115 -142 -145 -175 -151 -160 -13 35 -44 298 -44 372 l0 75 124 18 c103 15
232 30 324 37 9 0 17 -2 17 -5z m-506 -96 c3 -24 8 -80 11 -125 4 -46 10 -96
15 -113 5 -16 12 -70 16 -120 l7 -90 -58 0 c-32 0 -133 -9 -224 -20 -154 -18
-355 -41 -495 -56 -33 -3 -66 -8 -74 -11 -8 -4 26 47 75 113 49 65 97 131 107
145 19 31 33 34 211 58 l130 17 66 70 c37 38 82 89 101 114 30 39 56 56 95 59
7 1 14 -17 17 -41z m-330 -35 c3 -21 8 -59 12 -84 l6 -47 -64 -11 c-103 -17
-178 -24 -178 -16 0 14 101 144 132 170 16 14 42 25 58 25 25 0 29 -4 34 -37z"/>
<path d="M9692 3857 c-29 -107 -29 -111 6 -101 15 5 44 8 65 8 43 0 44 3 18
78 -22 63 -42 98 -56 98 -5 0 -20 -37 -33 -83z"/>
<path d="M3044 3906 c-16 -12 -19 -27 -19 -112 0 -69 4 -98 13 -101 8 -3 12 7
12 30 0 32 4 37 35 47 36 12 75 62 75 98 0 43 -75 68 -116 38z"/>
<path d="M6343 3745 c7 -73 15 -94 28 -74 6 10 10 9 15 -6 4 -11 17 -46 29
-77 l23 -58 -24 6 c-25 6 -35 -13 -11 -22 8 -3 -5 -23 -38 -57 -49 -51 -85
-125 -85 -173 0 -18 -5 -20 -27 -16 -22 4 -25 2 -21 -15 6 -23 6 -23 -113 -77
-71 -31 -98 -51 -86 -62 2 -3 35 10 73 29 132 65 136 66 149 53 7 -6 15 -27
19 -47 9 -50 31 -76 88 -105 46 -23 59 -25 137 -21 47 2 96 8 109 12 18 6 21
4 16 -10 -5 -12 -2 -16 11 -13 12 2 25 -11 42 -44 14 -27 29 -48 34 -48 15 0
11 18 -16 70 l-25 49 23 3 c13 2 21 9 20 18 -2 9 14 22 42 33 77 32 165 95
250 180 120 120 170 204 191 320 6 37 7 37 43 31 33 -7 35 -6 22 10 -8 9 -10
20 -6 24 4 4 10 1 12 -6 3 -7 16 -17 28 -22 21 -8 23 -12 14 -42 -11 -41 -12
-58 0 -58 4 0 14 20 21 45 12 45 13 45 36 30 16 -10 25 -11 30 -4 7 12 -13 29
-34 29 -9 0 -11 10 -6 38 7 34 6 36 -9 23 -10 -7 -17 -20 -17 -28 0 -16 -31
-14 -37 2 -3 11 33 34 120 77 70 33 76 34 52 8 -13 -14 -15 -24 -8 -31 7 -7
17 -2 32 19 39 55 18 80 -54 66 -34 -6 -46 -19 -24 -26 9 -3 -180 -108 -194
-108 -3 0 -3 9 0 20 8 29 -15 25 -29 -5 -6 -14 -18 -24 -27 -23 -10 2 -15 -3
-14 -12 2 -11 -52 -39 -190 -99 -105 -46 -205 -90 -220 -97 -25 -12 -28 -12
-23 2 4 11 0 14 -14 12 -12 -2 -30 10 -48 32 -27 32 -34 34 -99 38 -63 4 -70
6 -66 23 6 23 -12 25 -25 3 -7 -12 -15 2 -35 57 -14 41 -25 74 -24 76 1 1 16
-5 33 -13 26 -13 30 -19 26 -44 -3 -18 0 -30 7 -30 6 0 11 9 11 21 0 18 4 20
25 15 14 -4 35 -1 47 5 17 9 24 8 33 -5 7 -9 17 -16 22 -16 13 0 3 61 -13 77
-20 20 -36 16 -29 -7 8 -25 -3 -26 -22 -2 -13 15 -14 14 -10 -14 3 -29 1 -31
-15 -20 -15 8 -18 18 -13 44 7 38 -11 45 -21 7 -6 -26 -18 -32 -29 -15 -4 6
-10 8 -15 5 -4 -2 -23 20 -41 50 -47 77 -64 74 -56 -10z m816 -168 c-13 -98
-52 -162 -173 -283 -98 -98 -122 -116 -206 -158 -88 -43 -95 -45 -98 -26 -4
24 -11 25 -26 4 -12 -16 -13 -16 -82 156 -27 66 -23 81 23 101 l42 18 -10 -26
c-5 -15 -6 -30 -1 -35 5 -5 16 9 25 32 15 38 38 52 52 30 10 -15 35 -12 35 5
0 8 -8 15 -17 15 -31 0 0 17 157 85 127 54 282 127 286 133 0 1 -3 -22 -7 -51z
m-702 -107 c-3 -11 -1 -20 4 -20 9 0 53 -79 47 -85 -2 -1 -44 -23 -95 -48
l-91 -45 -6 23 c-7 29 21 99 58 143 30 35 46 41 46 17 0 -24 17 -17 24 10 4
14 9 25 12 25 4 0 4 -9 1 -20z m116 -260 l50 -123 -23 -19 c-18 -14 -40 -18
-109 -18 -79 0 -91 3 -134 30 -47 30 -58 49 -60 112 -2 28 1 32 23 33 17 0 24
5 23 15 -2 10 25 30 80 57 45 23 86 41 91 39 5 -1 32 -58 59 -126z"/>
<path d="M8820 3775 c0 -42 34 -145 48 -145 8 0 12 21 12 70 0 39 4 70 9 70
13 0 21 -26 21 -66 0 -24 5 -34 15 -34 8 0 15 9 15 21 0 25 17 59 30 59 6 0
10 -27 10 -61 0 -75 23 -79 28 -4 5 80 -3 97 -43 94 -19 -2 -40 2 -47 9 -16
16 -33 15 -49 -4 -11 -14 -13 -14 -21 0 -14 24 -28 19 -28 -9z"/>
<path d="M9449 3541 c-30 -24 -21 -36 15 -20 23 11 30 10 54 -8 15 -11 28 -32
30 -46 3 -25 1 -27 -38 -27 -74 0 -120 -80 -70 -125 23 -21 76 -14 111 14 19
15 24 31 27 88 5 83 -6 109 -53 129 -44 18 -48 18 -76 -5z"/>
<path d="M4932 3477 c-12 -13 -22 -32 -22 -42 0 -10 -5 -33 -12 -51 -24 -68
30 -113 98 -81 46 22 69 69 54 110 -13 39 -58 87 -80 87 -9 0 -26 -10 -38 -23z"/>
<path d="M10569 3403 c-14 -15 -41 -48 -60 -73 l-34 -44 -6 53 c-8 58 -12 66
-30 56 -26 -17 20 -295 49 -295 12 0 14 10 9 48 -3 26 -9 56 -13 67 -4 11 18
-5 48 -36 55 -58 93 -78 109 -62 6 6 -4 20 -26 37 -39 30 -95 101 -95 122 0 7
18 35 41 64 24 30 39 59 37 71 -3 19 -5 19 -29 -8z"/>
<path d="M5650 3376 c-61 -11 -150 -51 -150 -67 0 -4 9 -11 20 -14 18 -6 20
-16 21 -108 1 -56 1 -106 0 -111 -5 -23 12 -88 26 -102 23 -23 43 1 45 55 1
40 2 38 7 -19 6 -62 7 -65 34 -68 26 -3 27 -2 27 42 0 25 2 46 5 46 12 0 91
-43 122 -66 35 -26 59 -31 66 -11 8 22 -13 47 -70 84 l-55 35 28 17 c39 24 93
87 111 129 30 71 -14 144 -95 157 -20 3 -46 8 -57 9 -11 2 -49 -2 -85 -8z
m150 -61 c65 -34 23 -136 -79 -193 l-41 -23 0 78 c0 43 -3 95 -6 116 l-7 37
52 0 c29 0 65 -7 81 -15z"/>
<path d="M10030 3343 c0 -45 -11 -72 -31 -78 -16 -5 -17 -10 -7 -33 7 -15 13
-28 14 -30 1 -2 18 7 37 18 l36 22 5 -24 c3 -13 7 -32 8 -42 2 -11 8 -21 14
-23 7 -2 13 17 16 54 4 44 1 64 -12 83 -9 14 -25 37 -34 53 -9 15 -23 27 -31
27 -10 0 -15 -10 -15 -27z"/>
<path d="M880 3290 c-36 -4 -105 -8 -153 -9 -98 -1 -94 2 -107 -84 l-8 -52 -1
48 c-1 56 -21 64 -21 8 0 -45 19 -142 31 -155 10 -12 16 20 23 118 4 44 11 83
17 87 18 11 312 22 380 14 70 -8 76 8 7 19 -83 13 -104 13 -168 6z"/>
<path d="M5243 3211 c-22 -16 -48 -46 -58 -67 -9 -22 -23 -46 -30 -54 -7 -8
-16 -35 -20 -60 -9 -59 16 -93 79 -109 85 -21 201 -4 201 29 0 12 -20 16 -100
20 -103 5 -125 11 -125 35 0 13 34 21 119 27 40 3 65 33 41 48 -8 5 -41 10
-72 10 -69 0 -72 9 -24 62 38 42 78 57 101 38 16 -13 45 -7 45 9 0 22 -33 41
-74 41 -32 0 -54 -8 -83 -29z"/>
<path d="M4844 3193 c4 -16 20 -40 36 -55 51 -47 49 -66 -14 -129 -53 -53 -69
-90 -46 -104 6 -4 40 21 77 54 l66 61 34 -60 c34 -60 45 -68 73 -50 13 8 9 20
-23 80 l-38 70 51 60 c27 34 50 65 50 71 0 5 -12 9 -27 9 -19 0 -39 -13 -67
-44 l-40 -43 -51 53 c-57 61 -91 72 -81 27z"/>
<path d="M9413 3065 c-21 -19 -24 -24 -11 -25 9 0 20 5 23 10 12 19 63 11 79
-12 27 -38 21 -55 -18 -50 -62 7 -132 -49 -124 -99 2 -13 17 -31 35 -42 29
-17 34 -17 61 -3 17 9 44 35 61 58 27 37 31 50 29 93 -3 44 -7 52 -37 72 -43
29 -63 29 -98 -2z"/>
<path d="M194 3052 c-20 -13 -32 -67 -26 -120 5 -55 18 -68 28 -27 l6 24 28
-21 c16 -11 31 -29 33 -39 3 -12 14 -19 30 -19 43 0 77 70 41 84 -26 10 -72 7
-80 -5 -5 -8 -10 -6 -16 5 -7 12 -5 24 6 41 20 31 20 49 0 69 -17 17 -33 20
-50 8z"/>
<path d="M4245 2934 c-104 -62 -208 -122 -231 -133 -108 -52 -320 -241 -426
-381 -129 -170 -184 -285 -263 -552 -17 -58 -31 -88 -41 -88 -17 0 -18 -12 -2
-28 15 -15 21 -14 -140 -2 -79 6 -166 6 -241 0 -136 -11 -457 -12 -581 -2 -73
6 -85 9 -82 25 3 20 -18 23 -36 5 -9 -9 -12 12 -12 95 0 99 1 107 19 107 27 0
37 20 13 27 -22 5 -32 54 -32 158 0 47 4 64 15 69 20 7 19 26 -1 26 -15 0 -16
11 -10 103 9 129 13 145 39 149 32 5 33 27 0 34 l-28 5 6 152 c4 84 7 154 8
157 1 3 8 -10 16 -27 16 -38 41 -46 29 -10 -4 12 -13 44 -20 71 -14 52 -36 82
-52 72 -14 -9 -44 -125 -37 -144 6 -15 8 -15 22 3 14 18 15 12 9 -74 -3 -52
-6 -123 -6 -158 0 -60 -1 -63 -24 -63 -38 0 -41 -19 -5 -27 l32 -6 -7 -75 c-3
-41 -6 -94 -6 -118 0 -39 -2 -43 -27 -46 -34 -4 -33 -22 2 -26 l25 -3 0 -109
c0 -105 -1 -109 -22 -112 -30 -4 -30 -22 0 -26 22 -3 23 -6 20 -100 l-3 -97
-27 2 c-17 1 -28 -3 -28 -11 0 -10 -44 -15 -187 -20 -104 -3 -244 -10 -313
-16 -69 -5 -251 -14 -404 -20 -280 -11 -318 -8 -288 22 16 16 15 28 -2 28 -10
0 -16 20 -20 68 -26 266 -86 442 -203 596 -58 78 -72 87 -92 62 -9 -10 -6 -17
12 -29 53 -35 165 -234 200 -357 18 -65 44 -212 51 -292 5 -59 -5 -74 -46 -69
-12 2 -18 -5 -18 -18 0 -13 -7 -21 -17 -22 -12 0 -9 -5 10 -13 l27 -12 -25
-24 c-14 -13 -25 -27 -25 -32 0 -15 24 -8 47 14 21 19 26 20 34 8 13 -19 5
-95 -22 -195 -45 -172 -117 -303 -248 -449 -39 -43 -69 -81 -67 -83 14 -14 54
18 115 91 154 184 222 333 262 569 12 71 15 77 37 77 21 0 22 2 12 15 -11 13
0 15 91 15 57 0 176 4 264 10 88 5 273 16 410 25 138 9 284 15 325 15 l75 0
-32 -20 c-51 -30 -39 -42 19 -19 29 11 55 22 59 25 4 2 10 -34 14 -81 7 -77 6
-87 -11 -100 -18 -13 -18 -14 -1 -20 15 -6 17 -22 17 -125 0 -110 -1 -119 -20
-125 -26 -8 -26 -25 0 -25 19 0 20 -7 20 -124 0 -120 -1 -124 -22 -130 l-23
-7 23 -9 c22 -9 22 -11 22 -220 0 -122 4 -210 9 -210 16 0 18 30 13 228 -4
169 -3 192 10 192 24 0 30 27 7 33 -17 5 -19 15 -19 109 0 72 5 112 15 132 18
35 18 36 0 36 -12 0 -15 20 -15 120 0 113 1 120 20 120 11 0 20 5 20 11 0 6
-9 13 -20 16 -18 5 -20 14 -20 89 0 45 4 85 8 88 5 3 22 -2 38 -10 16 -9 40
-20 54 -25 l25 -9 -25 22 -25 23 460 -1 c579 0 544 1 538 -24 -6 -22 0 -25 27
-10 16 8 21 0 44 -73 101 -312 406 -695 737 -920 131 -90 218 -151 336 -237
48 -34 66 -38 61 -13 -2 10 -39 42 -83 72 -44 30 -130 91 -192 135 -62 45
-149 106 -193 136 -78 53 -252 222 -336 325 -69 85 -192 272 -233 353 -32 65
-81 189 -81 207 0 3 12 5 26 5 19 0 25 4 20 15 -3 9 0 15 9 15 8 0 15 -5 15
-11 0 -5 10 -3 22 5 16 11 46 16 105 16 l82 0 -38 -82 c-46 -99 -55 -128 -43
-128 5 0 30 46 55 103 l46 102 86 3 c47 1 85 0 85 -3 0 -3 -4 -13 -10 -23 -14
-27 -71 -153 -85 -192 -85 -228 -95 -265 -74 -258 7 2 27 51 46 108 63 193
133 354 162 370 11 5 71 10 133 10 l113 0 -35 -21 c-43 -26 -45 -28 -38 -35 6
-5 58 17 103 44 11 7 33 17 49 22 23 8 26 13 16 24 -12 16 -93 46 -122 46 -32
0 -19 -16 23 -29 23 -7 39 -14 37 -15 -1 -2 -65 -6 -140 -9 l-137 -6 61 122
c33 67 78 152 99 189 37 64 48 98 31 98 -5 0 -55 -92 -112 -204 l-104 -204
-71 -4 c-77 -5 -95 -2 -95 16 0 27 344 698 404 790 67 100 84 146 48 127 -26
-14 -45 -38 -38 -49 3 -5 -18 -46 -46 -93 -50 -81 -378 -732 -392 -776 -6 -20
-14 -22 -100 -25 l-92 -3 45 85 c25 47 61 115 81 151 19 37 55 102 79 145 24
44 58 104 74 134 61 113 122 216 154 262 18 26 33 50 33 54 0 3 16 25 35 48
38 47 42 56 22 56 -19 0 -147 -200 -247 -385 -23 -44 -46 -84 -50 -90 -4 -5
-33 -59 -65 -120 -192 -364 -179 -345 -223 -345 -28 0 -33 3 -24 12 17 17 15
41 -3 34 -40 -15 2 131 66 227 22 33 59 95 81 136 23 42 51 90 62 106 67 93
197 306 192 313 -5 9 80 88 159 148 22 17 87 57 145 89 58 32 117 65 131 74
15 9 79 48 143 86 103 62 141 97 104 94 -7 -1 -98 -52 -203 -115z"/>
<path d="M714 2898 c3 -29 2 -42 -2 -29 -4 14 -14 27 -21 29 -11 4 -13 -3 -8
-26 4 -17 9 -62 13 -99 4 -37 10 -75 15 -83 14 -28 32 41 33 130 l1 85 70 -3
c39 -2 93 -7 120 -12 54 -9 65 -6 47 12 -6 6 -56 15 -112 19 -56 5 -110 13
-120 19 -36 19 -42 13 -36 -42z"/>
<path d="M1445 2923 c-81 -10 -93 -26 -114 -146 -6 -31 -15 -66 -21 -78 -11
-19 -13 -18 -42 26 -34 51 -68 76 -68 50 0 -9 13 -29 28 -45 16 -15 33 -43 38
-61 5 -18 15 -34 21 -36 21 -7 61 70 77 151 8 44 22 86 29 93 8 8 39 17 70 20
50 5 57 4 57 -12 0 -11 5 -15 16 -11 9 3 18 6 20 6 2 0 4 9 4 19 0 29 -29 35
-115 24z"/>
<path d="M780 2841 c0 -7 7 -14 15 -17 11 -5 15 -21 15 -60 0 -60 16 -71 43
-31 16 22 16 22 16 -12 1 -57 22 -21 28 48 3 33 7 61 9 61 2 0 19 -8 39 -17
27 -13 38 -14 47 -5 18 18 -36 35 -129 40 -58 3 -83 1 -83 -7z"/>
<path d="M10362 2764 c-22 -44 -22 -47 -6 -85 10 -21 24 -41 31 -44 12 -4 77
20 118 43 10 6 -9 -21 -32 -46 -19 -19 -16 -40 6 -52 43 -22 68 14 66 97 -2
69 -23 93 -79 91 -23 0 -48 -4 -57 -9 -13 -6 -15 -2 -11 22 6 43 -11 35 -36
-17z"/>
<path d="M6236 2749 c-40 -31 -32 -94 15 -120 45 -24 109 34 93 85 -17 56 -62
71 -108 35z"/>
<path d="M5195 2747 c-28 -21 -9 -37 44 -37 50 0 69 -10 94 -50 15 -24 14 -28
-34 -105 -27 -43 -49 -84 -49 -90 0 -5 -9 -21 -20 -35 -28 -36 -25 -63 15
-141 36 -72 44 -119 22 -137 -7 -6 -34 -17 -60 -24 -38 -10 -52 -10 -67 0 -28
17 -40 15 -40 -8 0 -25 36 -34 103 -26 59 6 98 31 111 70 8 21 3 43 -27 117
-20 49 -37 96 -37 104 0 18 16 28 60 35 38 6 57 40 23 40 -47 1 -46 16 1 86
50 74 54 90 32 133 -17 33 -49 55 -91 65 -16 4 -37 9 -46 12 -8 2 -23 -2 -34
-9z"/>
<path d="M9665 2673 c-33 -8 -96 -22 -140 -32 -44 -10 -109 -26 -145 -36 -36
-10 -85 -21 -110 -24 l-45 -6 -3 -104 c-3 -98 -4 -103 -18 -82 -12 16 -24 21
-47 19 -37 -3 -39 -22 -4 -26 18 -2 29 -14 40 -44 10 -24 21 -38 29 -36 18 6
25 48 27 156 1 88 2 92 24 92 12 0 57 11 101 25 43 13 99 27 125 31 81 12 258
59 262 69 6 15 -30 15 -96 -2z"/>
<path d="M6444 2666 c-3 -8 -1 -31 5 -51 7 -27 7 -42 -2 -56 -9 -15 -8 -22 9
-38 14 -13 23 -37 27 -74 4 -30 10 -62 13 -71 5 -12 0 -16 -19 -16 -31 0 -104
-54 -134 -99 -41 -61 -25 -160 30 -190 82 -44 227 62 227 166 0 28 -34 103
-52 114 -6 4 -2 14 9 25 192 183 208 202 198 234 -10 30 -53 48 -146 60 -115
14 -158 13 -165 -4z m102 -393 c30 -46 24 -87 -21 -133 -50 -52 -93 -67 -133
-46 -34 17 -42 34 -42 82 0 38 19 83 44 103 13 11 16 11 16 -1 0 -22 48 -21
60 2 16 29 54 25 76 -7z"/>
<path d="M6890 2649 c0 -8 4 -20 9 -28 6 -9 4 -22 -5 -36 -10 -15 -12 -44 -10
-100 l4 -80 -33 -25 c-36 -27 -60 -59 -51 -68 3 -3 17 5 31 18 33 31 42 20 21
-25 -31 -65 -32 -100 -3 -129 70 -70 216 16 192 113 -6 26 -54 103 -67 109
-15 7 -7 18 67 102 98 111 98 131 0 144 -153 19 -155 19 -155 5z m95 -332 c29
-45 29 -80 -1 -110 -32 -32 -76 -35 -104 -7 -29 29 -25 45 21 95 47 51 62 55
84 22z"/>
<path d="M4355 2610 c-4 -6 1 -27 10 -46 16 -34 16 -34 -12 -59 -15 -13 -31
-25 -35 -25 -13 0 -9 -30 3 -30 6 0 24 11 41 25 16 14 36 25 43 25 8 0 31 -20
52 -45 20 -25 41 -45 45 -45 23 0 15 32 -16 66 -20 22 -36 42 -36 45 0 3 18
20 40 38 39 31 52 61 27 61 -7 0 -28 -13 -47 -30 -41 -35 -56 -37 -65 -10 -8
25 -41 44 -50 30z"/>
<path d="M5796 2587 c-7 -17 -16 -72 -20 -122 -3 -49 -10 -106 -16 -125 -11
-40 0 -60 24 -41 16 14 26 62 35 173 l6 77 50 -71 c28 -39 55 -73 60 -75 6 -1
26 19 45 47 19 27 38 49 42 50 4 0 4 -47 1 -104 -4 -76 -3 -105 6 -111 25 -15
36 16 37 113 1 105 10 162 25 162 14 0 15 -121 3 -257 -5 -54 -3 -63 10 -63
26 0 34 37 39 185 3 77 7 151 9 165 3 23 0 25 -44 28 -53 3 -60 -2 -112 -83
-42 -67 -60 -65 -116 12 -56 77 -67 82 -84 40z"/>
<path d="M5548 2526 c-87 -38 -136 -149 -90 -205 12 -16 32 -23 72 -28 47 -4
59 -2 83 17 15 12 27 30 27 41 0 24 -16 25 -29 0 -15 -27 -76 -36 -107 -16
-52 34 -24 52 90 57 29 2 51 8 54 16 3 9 -15 12 -65 12 -93 0 -103 9 -58 48
25 23 46 32 70 32 37 0 56 17 34 31 -19 12 -48 10 -81 -5z"/>
<path d="M10636 2384 c-3 -9 -6 -95 -6 -192 -1 -183 -14 -455 -26 -531 -6 -39
-5 -43 12 -39 24 4 29 50 44 418 6 151 13 294 17 318 5 37 3 42 -15 42 -11 0
-23 -7 -26 -16z"/>
<path d="M9543 2348 c-9 -15 -11 -778 -2 -778 28 0 31 37 28 387 -2 197 -1
367 1 377 6 22 -14 33 -27 14z"/>
<path d="M10360 2343 c-60 -6 -70 -16 -71 -77 0 -41 -2 -46 -9 -28 -5 12 -15
22 -21 22 -13 0 -4 -125 12 -167 8 -21 12 -23 24 -13 16 13 21 39 30 153 l7
77 78 0 c43 0 82 5 85 10 7 12 -38 31 -68 28 -12 -1 -42 -3 -67 -5z"/>
<path d="M9689 2319 c-75 -75 -59 -209 26 -209 65 0 101 85 70 166 -24 64 -59
80 -96 43z"/>
<path d="M4344 2265 c-3 -8 8 -37 25 -65 17 -28 31 -56 31 -64 0 -8 -14 -43
-30 -79 -33 -69 -51 -167 -31 -167 6 0 11 12 11 28 0 15 17 59 38 97 31 59 41
69 60 67 20 -3 22 0 17 21 -5 17 2 37 24 69 35 52 37 58 17 58 -8 0 -28 -16
-44 -36 l-30 -37 -31 62 c-31 61 -47 74 -57 46z"/>
<path d="M8522 2117 c-6 -6 -24 -43 -42 -82 -17 -38 -40 -82 -51 -96 -10 -15
-19 -34 -19 -42 0 -20 26 -29 39 -13 8 9 26 11 68 5 77 -11 97 -5 89 29 -3 15
-10 53 -16 86 -16 89 -47 139 -68 113z"/>
<path d="M8838 2103 c-30 -35 -90 -175 -79 -186 13 -13 40 8 52 40 5 14 17 23
29 23 16 0 20 -7 20 -35 0 -24 5 -35 15 -35 10 0 15 10 15 31 0 18 7 38 18 45
16 13 16 15 -1 28 -10 7 -21 33 -25 57 -8 48 -21 58 -44 32z"/>
<path d="M6090 1977 c-96 -4 -204 -9 -240 -10 l-65 -2 -6 -118 c-7 -129 -18
-157 -38 -102 -15 42 -74 76 -94 55 -7 -8 -8 -14 -2 -16 51 -20 60 -32 83
-104 13 -42 21 -89 18 -107 -2 -18 1 -39 9 -50 13 -17 14 -16 24 10 6 16 11
52 11 81 0 29 4 77 9 107 5 30 13 89 16 131 l7 77 46 -2 c26 -1 98 5 160 12
100 12 241 11 396 -2 16 -1 31 4 33 10 11 33 -118 43 -367 30z"/>
<path d="M6206 1913 c-3 -15 -4 -54 -3 -86 3 -63 13 -77 59 -77 29 0 68 40 68
71 0 21 -54 53 -75 45 -10 -3 -15 6 -17 31 -4 44 -24 55 -32 16z"/>
<path d="M9812 1924 c-14 -27 -26 -155 -18 -197 7 -37 34 -56 48 -35 5 7 6 59
2 116 l-6 103 70 -6 c45 -5 72 -4 76 3 10 16 -6 22 -87 28 -67 6 -76 5 -85
-12z"/>
<path d="M10304 1920 c-39 -15 -58 -130 -28 -175 21 -32 40 -37 73 -20 60 30
81 136 36 180 -25 26 -45 30 -81 15z"/>
<path d="M6526 1863 c17 -134 -6 -264 -57 -319 -23 -24 -25 -44 -5 -44 20 0
61 56 76 103 l12 37 25 -20 c30 -24 52 -25 79 -5 22 17 54 20 54 4 0 -6 6 -9
13 -6 7 2 12 24 13 58 1 30 5 84 9 122 7 58 6 67 -8 67 -21 0 -37 -31 -37 -73
0 -43 -5 -47 -41 -34 -25 10 -32 8 -52 -11 -12 -12 -27 -37 -33 -55 -9 -27
-10 -18 -6 51 5 90 -11 172 -35 172 -11 0 -12 -10 -7 -47z"/>
<path d="M4981 1884 c-26 -19 -26 -3 -5 -276 8 -97 4 -103 -46 -66 -33 24 -45
20 -35 -12 9 -29 70 -58 93 -43 14 8 17 27 17 109 0 55 -4 134 -8 177 -5 49
-4 77 2 77 5 0 13 -9 16 -20 3 -11 13 -20 21 -20 21 0 17 36 -8 65 -22 25 -24
25 -47 9z"/>
<path d="M5890 1893 c-49 -18 -78 -86 -47 -111 21 -17 133 -22 154 -7 15 11
21 11 35 -2 16 -14 18 -14 24 1 3 9 4 23 0 31 -8 22 33 20 49 -2 13 -17 14
-17 33 1 17 15 19 23 11 44 -5 15 -12 33 -14 41 -4 10 -12 7 -30 -13 -29 -31
-45 -34 -38 -6 6 24 -5 25 -34 5 -18 -13 -22 -13 -33 0 -12 15 -40 21 -40 9 0
-3 8 -19 17 -35 17 -28 17 -30 -5 -51 -21 -22 -22 -22 -23 -3 -1 11 0 34 1 52
1 22 -4 35 -19 42 -11 6 -21 11 -23 10 -2 0 -10 -3 -18 -6z"/>
<path d="M9611 1866 c-25 -27 -25 -59 0 -64 11 -2 19 6 23 22 8 33 44 54 52
31 7 -18 -10 -47 -60 -101 -20 -22 -36 -42 -36 -46 0 -10 55 -38 74 -38 21 0
87 60 80 71 -3 5 -20 1 -38 -11 -32 -19 -66 -27 -66 -14 0 3 18 26 40 52 67
75 63 122 -9 122 -27 0 -44 -7 -60 -24z"/>
<path d="M5123 1793 c-18 -4 -21 -11 -21 -49 0 -25 -3 -48 -6 -51 -3 -4 -1
-12 5 -20 7 -7 9 -28 6 -48 -7 -45 8 -54 28 -15 l16 30 23 -27 c32 -36 44 -23
22 23 -16 36 -16 37 9 69 54 71 20 108 -82 88z"/>
<path d="M8140 1755 c0 -19 -4 -35 -10 -35 -5 0 -10 7 -10 15 0 8 -4 15 -8 15
-17 0 -20 -13 -10 -39 5 -14 13 -59 17 -99 7 -86 25 -100 28 -22 2 30 8 82 15
114 l11 59 164 -6 c131 -5 163 -4 163 7 0 16 -91 26 -247 26 l-113 0 0 -35z"/>
<path d="M7452 1762 c-23 -7 -23 -8 16 -39 22 -17 42 -40 44 -50 4 -16 0 -18
-27 -15 -26 3 -36 -2 -54 -23 -25 -33 -26 -39 -5 -60 19 -19 68 -12 97 13 21
19 23 90 2 118 -20 27 -19 32 10 36 14 2 27 8 28 13 2 12 -77 17 -111 7z"/>
<path d="M5860 1730 c-28 -19 8 -28 139 -34 140 -7 301 -26 301 -35 -1 -15
-29 -41 -44 -41 -9 0 -30 -7 -47 -15 -31 -17 -49 -13 -49 10 0 15 -27 28 -35
15 -3 -4 -2 -15 1 -24 8 -21 -19 -21 -40 -1 -10 10 -24 13 -41 9 -14 -4 -31
-1 -40 6 -12 10 -16 9 -21 -4 -3 -9 -1 -23 6 -32 10 -11 10 -18 2 -26 -15 -15
-15 -48 -1 -48 7 0 18 8 25 18 11 14 16 15 33 5 12 -7 23 -13 26 -13 10 0 5
36 -7 48 -6 6 -9 15 -5 18 3 4 13 -1 22 -10 9 -9 20 -16 24 -16 5 0 11 -13 15
-30 7 -36 26 -40 26 -6 0 38 17 40 49 4 26 -29 31 -31 54 -21 18 9 27 9 36 0
20 -20 31 12 31 87 l0 69 55 -7 c45 -5 55 -3 55 9 0 8 -10 17 -22 20 -85 18
-161 28 -283 35 -77 5 -165 11 -195 15 -33 3 -61 2 -70 -5z"/>
<path d="M7657 1673 c-16 -19 -26 -81 -15 -98 3 -6 9 -31 13 -57 5 -33 12 -48
22 -48 13 0 15 9 10 47 -6 52 10 75 45 65 14 -3 16 -8 7 -18 -16 -20 -2 -34
37 -34 39 0 45 16 12 30 -13 5 -17 9 -10 9 22 2 12 29 -13 35 -18 5 -25 13
-25 31 0 23 -32 55 -56 55 -6 0 -18 -8 -27 -17z"/>
<path d="M8731 1641 c-24 -57 -26 -68 -10 -73 20 -7 -3 -83 -24 -82 -19 2 -22
-7 -7 -22 12 -12 -22 -55 -200 -254 -41 -47 -120 -141 -174 -209 -84 -105
-394 -435 -545 -579 -39 -38 -47 -42 -57 -28 -16 23 -26 20 -22 -6 3 -19 -5
-25 -52 -39 -30 -10 -66 -18 -80 -18 l-25 -1 23 18 c31 24 20 32 -27 20 -36
-9 -151 -91 -151 -107 0 -9 98 -21 171 -21 27 0 49 4 49 9 0 11 -50 21 -109
21 -40 1 -43 2 -26 12 11 6 69 22 129 34 96 20 112 21 130 8 26 -18 36 -18 36
1 0 19 14 22 215 40 93 8 199 20 235 26 167 27 249 42 291 54 l47 13 6 -30 c8
-40 8 -93 -1 -101 -3 -4 -12 -2 -20 5 -25 20 -37 -6 -18 -36 36 -55 68 -55
110 -1 31 41 15 58 -21 24 l-25 -23 3 79 3 80 90 7 c50 3 110 11 135 17 25 6
73 11 108 11 48 0 62 -3 62 -15 0 -8 7 -15 15 -15 8 0 15 8 15 18 0 29 7 30
68 15 58 -14 318 -74 427 -99 33 -7 107 -21 165 -30 110 -17 148 -29 120 -37
-8 -3 -24 -8 -35 -13 -40 -14 15 -17 107 -4 48 6 97 9 108 5 18 -6 21 -3 18
16 -2 19 -16 27 -73 46 -75 24 -115 29 -115 14 0 -5 24 -19 53 -30 63 -24 31
-29 -46 -6 -29 8 -128 30 -222 50 -179 36 -286 59 -450 96 -101 23 -101 23
-97 51 5 30 -14 40 -24 13 -23 -58 -48 43 -45 180 1 87 -2 122 -17 166 -29 81
-47 112 -80 133 -23 15 -32 32 -42 75 -7 31 -28 106 -46 168 -39 128 -40 141
-16 159 16 13 15 14 -6 20 -18 5 -22 12 -18 28 3 11 6 30 6 40 0 19 0 19 14 1
11 -16 14 -10 18 49 10 116 -14 142 -51 57z m-45 -318 c-4 -8 -9 -32 -12 -52
-5 -33 -9 -37 -30 -33 -29 5 -32 -14 -3 -23 17 -6 19 -12 13 -38 -8 -41 -12
-47 -30 -47 -20 0 -17 -30 4 -31 9 -1 -12 -5 -48 -9 -36 -4 -93 -18 -127 -32
-35 -14 -63 -23 -63 -19 0 7 88 108 199 229 46 50 79 78 88 75 8 -3 12 -12 9
-20z m86 -110 c19 -71 35 -128 34 -129 -1 -1 -35 2 -76 5 -49 4 -69 9 -56 14
15 6 16 10 6 22 -15 18 -4 75 15 75 23 0 29 22 11 36 -14 10 -16 20 -11 46 7
33 22 58 34 58 4 0 23 -57 43 -127z m-142 -162 c0 -5 -3 -22 -6 -39 -6 -28 -8
-29 -37 -21 -40 11 -37 11 -37 -4 0 -7 15 -20 33 -29 l32 -16 -50 -6 c-150
-19 -290 -62 -302 -92 -10 -26 3 -25 70 7 86 40 267 66 267 39 0 -5 -7 -10
-15 -10 -17 0 -21 -26 -4 -32 7 -2 8 -15 2 -38 -8 -30 -14 -35 -42 -38 -27 -3
-30 -6 -20 -18 6 -8 17 -14 24 -14 14 0 14 -49 0 -82 -8 -20 -40 -29 -54 -15
-8 8 -14 6 -23 -5 -7 -8 -28 -20 -46 -26 -27 -9 -34 -9 -39 3 -8 22 -23 18
-23 -5 0 -29 -39 -42 -67 -24 -30 19 -36 18 -28 -5 5 -15 -1 -22 -30 -31 -45
-15 -58 -10 -77 32 -32 69 -32 72 20 129 53 58 80 125 45 112 -12 -4 -9 4 13
28 17 19 46 51 64 72 40 45 79 70 168 108 65 28 162 40 162 20z m175 -12 c20
-21 66 -179 51 -173 -7 3 -18 -2 -25 -10 -10 -12 -7 -18 19 -32 33 -20 35 -25
49 -99 l9 -50 -45 -42 c-48 -45 -68 -50 -132 -33 -20 5 -53 12 -73 15 -47 7
-63 33 -44 70 8 16 17 22 21 16 3 -6 13 -11 21 -11 12 0 14 7 9 30 -4 19 -3
30 4 30 6 0 11 7 11 16 0 12 -6 15 -24 10 -49 -12 -75 23 -42 57 10 9 12 28 9
59 -5 40 -3 46 16 51 19 5 20 8 10 25 -7 12 -9 33 -5 57 l7 38 71 -5 c40 -3
75 -11 83 -19z m-699 -344 c-22 -34 -20 -62 9 -120 24 -47 25 -51 8 -62 -20
-16 -30 -16 -38 -3 -10 16 -22 12 -28 -9 -5 -22 -57 -38 -67 -21 -5 8 -16 3
-33 -14 -28 -28 -62 -34 -71 -13 -3 8 -8 7 -16 -6 -6 -9 -25 -24 -43 -33 -20
-10 27 43 128 145 88 89 161 161 164 161 2 0 -4 -11 -13 -25z m466 -97 c-7 -7
-12 -20 -12 -29 0 -16 -4 -16 -47 -3 -58 18 -73 18 -73 0 0 -7 15 -17 33 -21
17 -4 35 -9 40 -10 4 -1 10 -3 15 -4 4 -1 -1 -6 -11 -12 -26 -15 -191 -18
-245 -4 -45 11 -46 12 -19 19 15 3 32 4 37 1 6 -4 20 1 32 9 12 9 42 16 66 16
34 0 43 3 39 14 -7 18 41 28 67 14 14 -8 21 -6 28 6 5 9 21 16 35 16 21 0 24
-3 15 -12z"/>
<path d="M9270 1650 c0 -5 12 -10 26 -10 46 0 64 -17 64 -61 0 -37 -1 -39 -20
-29 -38 20 -90 -12 -90 -56 0 -35 40 -42 85 -15 43 25 63 28 45 6 -10 -12 -9
-16 5 -21 23 -9 65 12 65 34 0 26 -30 64 -46 58 -10 -4 -14 3 -14 27 0 47 -31
77 -80 77 -22 0 -40 -4 -40 -10z"/>
<path d="M10532 1447 c-15 -16 -22 -36 -22 -64 0 -52 7 -71 31 -84 22 -11 73
11 83 36 12 33 6 83 -15 109 -25 32 -49 33 -77 3z"/>
<path d="M9234 1409 c-2 -4 2 -9 8 -12 9 -3 3 -12 -15 -26 -35 -28 -26 -45 12
-23 23 13 34 14 52 5 24 -11 24 -11 -13 -27 -43 -18 -62 -48 -54 -82 5 -19 13
-24 39 -24 40 0 50 7 71 47 22 44 20 60 -11 91 l-28 27 98 -2 c56 -1 97 2 97
8 0 5 -6 11 -12 14 -25 7 -239 11 -244 4z"/>
<path d="M5187 1364 c-4 -4 -7 -23 -7 -43 0 -27 -3 -32 -10 -21 -7 11 -12 12
-20 4 -12 -12 1 -89 19 -107 11 -11 31 29 31 63 0 12 9 19 30 22 35 5 37 -1
10 -32 -11 -13 -20 -27 -20 -32 0 -11 67 -10 91 2 28 15 24 33 -6 26 -23 -6
-24 -5 -15 20 13 33 13 32 -9 44 -13 7 -28 7 -45 0 -23 -8 -26 -7 -26 10 0 18
7 20 56 20 40 0 55 3 52 13 -5 13 -119 23 -131 11z"/>
<path d="M5501 1351 c-13 -23 -41 -109 -41 -125 0 -4 7 -5 16 -2 12 5 15 2 10
-10 -3 -8 -6 -21 -6 -28 0 -9 -9 -12 -24 -9 -16 3 -31 -2 -44 -15 -12 -12 -40
-26 -64 -32 -141 -35 -172 -45 -228 -78 -82 -48 -179 -147 -214 -216 l-28 -56
-57 8 c-79 10 -156 9 -159 -3 -1 -6 39 -13 99 -16 110 -7 136 -20 97 -50 -22
-17 -22 -17 -2 -45 31 -46 55 -117 44 -128 -15 -15 -12 -36 4 -30 34 13 206
-107 186 -131 -14 -17 -1 -26 20 -13 13 8 33 5 86 -15 38 -15 89 -29 114 -32
25 -3 60 -8 79 -11 l34 -5 -6 -72 c-3 -40 -8 -80 -12 -89 -5 -14 -2 -18 14
-18 17 0 21 6 21 33 0 17 3 55 6 83 l7 52 51 7 c28 3 56 11 63 17 9 7 37 9 76
5 51 -5 76 -1 131 18 37 13 76 30 85 38 23 20 82 49 88 44 3 -3 -7 -13 -21
-22 -14 -10 -26 -21 -26 -26 0 -13 34 -11 48 3 9 9 12 8 12 -7 0 -21 6 -13 78
109 19 31 35 56 37 56 1 0 0 -11 -3 -25 -3 -18 0 -25 11 -25 11 0 21 19 32 58
29 100 35 107 86 104 24 -1 126 -16 227 -33 100 -17 192 -27 202 -24 11 4 20
2 20 -3 0 -11 -93 -42 -126 -42 -13 0 -24 -4 -24 -10 0 -13 22 -12 97 4 67 14
117 41 108 57 -18 28 -161 77 -178 60 -7 -7 0 -15 24 -25 46 -20 40 -20 -161
14 -96 16 -185 30 -197 30 -21 0 -22 4 -21 73 3 132 -2 155 -38 200 -19 23
-42 54 -52 69 -9 16 -24 28 -32 28 -10 1 -8 6 8 17 21 15 31 43 14 43 -4 0
-18 -7 -30 -16 -28 -19 -49 -6 -54 34 -2 16 -9 27 -18 27 -9 0 -14 -8 -12 -21
l3 -21 -118 19 c-65 11 -133 22 -151 24 -31 5 -33 8 -27 31 3 14 19 45 36 69
30 44 38 79 17 72 -7 -3 -23 -19 -35 -38 -19 -28 -23 -30 -23 -12 0 34 -20 76
-30 66 -6 -6 -5 -32 2 -70 15 -82 6 -114 -31 -114 -16 0 -31 6 -34 13 -3 10
-9 10 -26 0 -11 -7 -23 -13 -26 -13 -7 0 -6 40 2 69 6 22 6 22 20 -9 7 -18 16
-30 20 -27 9 9 -18 144 -32 164 -11 15 -14 14 -24 -6z m-38 -238 c-8 -3 -11
-14 -7 -29 6 -24 -34 -113 -78 -177 -11 -16 -18 -30 -16 -33 7 -7 33 26 72 91
l36 60 -6 -100 c-4 -60 -13 -114 -23 -135 l-16 -35 -80 2 c-44 1 -126 5 -182
10 l-101 8 51 85 c92 152 136 208 173 220 19 7 38 10 43 8 5 -2 -27 -68 -70
-147 -43 -79 -79 -146 -79 -148 0 -9 28 24 44 52 79 140 152 252 174 264 9 6
31 10 47 10 17 0 24 -3 18 -6z m260 -9 l46 -16 -33 -46 c-18 -26 -62 -104 -97
-174 -62 -123 -65 -128 -96 -128 -51 0 -63 9 -63 46 0 36 27 97 87 197 l35 58
44 -7 c30 -4 44 -3 44 5 0 6 -7 14 -15 16 -51 16 -49 14 -25 40 13 14 24 25
25 25 1 0 22 -7 48 -16z m146 -10 l31 -16 -25 -41 c-14 -23 -60 -104 -101
-179 l-76 -137 -46 6 c-26 3 -49 7 -51 9 -2 2 14 34 35 71 20 37 51 93 67 124
38 76 61 99 97 99 36 0 39 13 8 28 l-23 11 23 7 c12 3 22 13 22 20 0 17 0 17
39 -2z m-753 -188 l-86 -145 -33 6 c-17 3 -33 6 -34 7 -1 1 32 53 75 115 66
99 145 181 160 167 2 -3 -35 -70 -82 -150z m814 105 c0 -6 -4 -13 -10 -16 -5
-3 -14 -15 -20 -25 -19 -35 7 -29 48 11 l42 40 0 -27 c0 -15 -32 -84 -72 -155
l-73 -129 -47 0 c-81 0 -82 1 -21 108 99 176 117 202 135 202 10 0 18 -4 18
-9z m140 -66 c14 9 50 -23 50 -44 0 -19 -129 -222 -130 -204 0 6 5 24 11 39
11 29 5 74 -10 74 -4 0 -14 -27 -21 -59 l-12 -59 -42 5 c-22 3 -42 7 -43 7 -3
2 86 158 95 166 2 3 7 -1 9 -8 7 -18 23 -4 23 20 0 12 5 36 12 55 11 30 13 31
29 17 10 -9 23 -13 29 -9z m-662 -220 c4 -4 -87 -188 -132 -268 -41 -72 -39
-72 -108 -45 -23 9 -27 15 -23 37 5 25 5 25 -6 4 -7 -13 -17 -23 -23 -23 -19
1 -46 26 -46 43 0 9 -4 19 -10 22 -6 3 0 32 15 72 32 85 24 95 -12 15 -16 -35
-34 -61 -43 -62 -8 0 -28 11 -45 24 l-29 24 28 53 c67 126 62 121 127 117 31
-1 60 -1 62 2 5 5 238 -10 245 -15z m42 -95 c0 -104 -1 -106 -57 -204 -16 -27
-5 -37 13 -12 13 18 14 17 14 -20 l0 -39 -65 0 c-108 0 -108 2 -7 203 47 94
90 172 94 172 4 0 8 -45 8 -100z m208 74 c30 -8 26 -18 -57 -174 -71 -135 -79
-154 -61 -148 7 2 47 72 90 156 42 84 79 154 81 156 4 5 100 -12 106 -18 2 -2
-4 -19 -15 -37 -10 -19 -47 -88 -81 -155 l-63 -121 -64 -10 c-35 -5 -64 -5
-64 -1 0 5 -18 5 -40 2 -38 -6 -40 -5 -40 18 0 69 22 141 66 218 72 124 79
130 142 114z m305 -43 c10 -10 -15 -63 -64 -138 -18 -26 -41 -63 -53 -80 -12
-18 -32 -37 -46 -42 -36 -14 -103 -31 -107 -27 -6 5 117 238 144 275 24 32 28
33 71 27 26 -3 50 -10 55 -15z m121 -43 c-13 -20 -24 -41 -24 -46 0 -26 -171
-156 -185 -140 -2 2 20 40 49 85 28 44 59 95 68 113 16 29 21 31 67 29 l49 -2
-24 -39z"/>
<path d="M9976 1346 c-22 -34 -14 -44 18 -22 36 23 46 20 46 -14 0 -27 -3 -30
-31 -30 -57 0 -89 -33 -69 -71 14 -24 60 -25 89 -1 16 12 24 34 30 75 4 31 10
59 12 61 5 5 158 -10 201 -19 23 -5 29 -4 26 6 -7 20 -53 29 -183 36 l-121 6
-18 -27z"/>
<path d="M7044 1237 c-3 -8 2 -34 11 -58 14 -40 14 -49 -2 -102 -18 -58 -18
-58 -51 -52 -18 3 -40 9 -49 12 -11 4 -14 1 -11 -13 4 -23 76 -39 218 -50 84
-6 94 -5 82 8 -8 10 -40 17 -94 22 -45 4 -84 9 -87 12 -3 2 19 49 47 103 51
97 63 136 41 129 -6 -2 -21 -22 -33 -45 l-22 -41 -12 44 c-12 44 -28 57 -38
31z"/>
<path d="M7016 911 c-18 -20 -15 -61 5 -61 6 0 1 -13 -10 -29 -12 -16 -21 -34
-21 -39 0 -16 41 -42 67 -42 26 0 69 37 78 67 5 18 1 24 -22 29 -43 10 -44 13
-23 37 29 31 22 51 -21 55 -25 2 -40 -3 -53 -17z"/>
<path d="M2483 443 c-10 -16 -27 -46 -38 -68 -10 -22 -27 -52 -37 -66 -21 -32
-35 -109 -20 -109 7 0 19 12 29 28 10 15 22 30 28 34 17 13 75 9 79 -4 16 -61
23 -73 44 -76 17 -3 22 2 22 17 0 12 -4 21 -10 21 -5 0 -10 18 -10 39 0 22 5
43 10 46 17 10 11 25 -9 25 -15 0 -20 10 -26 53 -12 89 -30 107 -62 60z"/>
<path d="M2725 456 c-16 -12 -20 -31 -25 -115 -7 -138 -5 -143 58 -160 29 -8
55 -11 59 -8 10 10 -27 46 -51 49 -19 3 -21 10 -24 90 -4 112 4 128 58 121 43
-6 55 9 21 27 -28 14 -74 13 -96 -4z"/>
<path d="M3800 440 c0 -9 25 -17 118 -40 l42 -11 0 -48 c0 -26 -3 -89 -6 -139
l-7 -92 -88 0 c-50 0 -89 -4 -89 -10 0 -14 56 -21 140 -18 l75 3 6 155 c5 128
4 158 -8 172 -25 28 -183 53 -183 28z"/>
<path d="M7015 419 c-48 -43 -65 -99 -41 -143 29 -54 98 -82 160 -65 48 13 64
35 43 56 -13 14 -21 15 -42 5 -16 -7 -23 -17 -19 -24 14 -22 -79 -1 -98 22
-28 35 -23 86 11 121 36 36 47 36 55 4 8 -33 36 -33 36 -1 0 29 -24 56 -50 56
-11 0 -35 -14 -55 -31z"/>
<path d="M2937 429 c-28 -16 -57 -88 -57 -141 0 -40 4 -50 25 -64 33 -21 85
-12 119 23 22 22 26 35 26 83 0 47 -4 62 -25 84 -25 27 -57 33 -88 15z"/>
<path d="M323 420 c-29 -12 -83 -87 -83 -116 0 -45 121 -88 194 -70 49 12 30
32 -34 33 -33 1 -72 9 -87 17 l-28 15 28 1 c36 0 85 28 93 52 8 28 -4 54 -32
66 -14 7 -26 12 -27 11 -1 0 -12 -4 -24 -9z"/>
<path d="M1263 389 c-22 -22 -15 -28 35 -31 43 -3 47 -5 47 -28 0 -22 -5 -25
-40 -28 -54 -5 -75 -42 -23 -42 20 0 21 -1 3 -20 -26 -29 -5 -50 50 -50 56 0
75 8 75 31 0 21 -11 24 -26 9 -7 -7 -19 -7 -35 -1 l-24 9 25 6 c14 3 34 7 44
8 27 4 33 28 7 28 -23 0 -26 12 -11 40 24 44 -91 106 -127 69z"/>
<path d="M6492 388 c-26 -26 -6 -108 27 -108 7 0 11 -26 11 -78 0 -83 5 -99
27 -81 8 7 13 33 13 68 0 73 8 101 30 101 9 0 22 -12 29 -26 12 -27 49 -30 42
-3 -2 8 -7 31 -11 52 -9 48 -18 57 -35 34 -20 -27 -49 -17 -55 18 -4 25 -11
31 -35 33 -17 2 -36 -3 -43 -10z"/>
<path d="M803 363 c-5 -11 8 -29 42 -59 l48 -43 -23 -71 c-33 -103 -11 -108
41 -10 13 25 25 47 26 49 2 3 14 -6 27 -18 23 -22 46 -22 46 1 0 5 -11 23 -25
40 -21 25 -24 36 -19 69 8 49 -13 54 -40 8 l-18 -31 -42 41 c-46 46 -54 48
-63 24z"/>
<path d="M6222 370 c-42 -17 -47 -50 -28 -173 21 -138 24 -147 42 -147 12 0
14 10 9 48 -3 26 -10 84 -15 129 -11 96 -7 113 27 113 22 0 25 -3 19 -27 -21
-94 -22 -91 18 -90 39 1 52 -6 41 -23 -5 -7 -19 -10 -37 -6 -24 5 -29 3 -26
-11 6 -30 32 -37 70 -19 62 30 59 64 -7 86 -31 10 -33 13 -25 36 14 37 12 52
-10 74 -21 21 -42 24 -78 10z"/>
<path d="M6814 361 c-45 -28 -64 -59 -64 -108 0 -41 2 -43 40 -54 47 -14 130
4 130 28 0 12 -11 14 -57 8 -44 -5 -63 -3 -78 9 -19 15 -19 15 10 17 17 0 45
0 63 -1 28 -1 33 2 30 17 -2 12 -14 19 -33 21 -42 5 -53 19 -30 36 13 9 22 11
26 4 9 -14 49 0 49 17 0 7 -10 15 -22 19 -31 8 -29 8 -64 -13z"/>
<path d="M3275 348 c-55 -43 -64 -127 -18 -174 23 -23 130 -15 149 11 19 26
11 30 -41 15 -39 -11 -48 -10 -70 4 -33 22 -32 36 4 36 36 0 95 40 99 67 4 29
-31 63 -67 63 -15 0 -41 -10 -56 -22z"/>
<path d="M1900 344 c-48 -30 -61 -58 -51 -106 17 -75 84 -105 166 -73 25 9 45
21 45 26 0 12 -32 12 -65 -1 -20 -8 -35 -6 -66 10 -43 22 -52 50 -16 50 47 0
98 21 109 46 24 53 -61 86 -122 48z"/>
<path d="M5992 286 c-17 -30 -32 -60 -32 -66 0 -9 -11 -10 -35 -6 -31 6 -36 4
-44 -18 -13 -32 1 -80 23 -84 10 -2 25 3 35 12 9 9 26 13 38 10 27 -7 41 15
20 31 -23 17 -22 22 18 88 19 32 35 65 35 73 0 30 -27 12 -58 -40z"/>
<path d="M1050 320 c0 -6 7 -25 16 -42 17 -32 14 -109 -5 -132 -16 -20 -29
-83 -20 -97 15 -24 43 4 51 51 4 23 16 58 28 77 11 19 20 39 20 44 0 6 9 29
20 51 25 52 25 58 0 58 -12 0 -25 -10 -32 -25 -6 -14 -14 -25 -18 -25 -4 0
-13 11 -20 25 -13 25 -40 35 -40 15z"/>
</g>
</svg>
