<svg width="251" height="185" viewBox="0 0 251 185" fill="none" xmlns="http://www.w3.org/2000/svg">
<g clip-path="url(#clip0)">
<path opacity="0.1" d="M2.70154 88.6958C6.66498 104.001 15.0482 117.232 28.2962 123.646C55.8373 136.974 117.95 130.1 164.306 122.209C188.285 118.128 209.362 106.865 224.673 91.0146L2.70154 88.6958Z" fill="#FFA24D"/>
<path opacity="0.1" d="M245.793 16.6507H220.358C219.151 16.6507 218.161 15.757 218.161 14.6648C218.161 13.5727 219.151 12.6767 220.358 12.6767H224.757C223.548 12.6767 222.56 11.7829 222.56 10.6886C222.56 9.59416 223.548 8.70269 224.757 8.70269H221.618C220.408 8.70269 219.418 7.80894 219.418 6.71454C219.418 5.62015 220.408 4.72868 221.618 4.72868H234.893C231.947 3.49065 228.504 2.61058 224.536 2.14774C188.336 -2.05427 175.412 0.725033 170.853 3.58185C165.17 7.18706 158.858 9.68863 152.247 10.9553C129.913 15.1208 88.145 20.1322 50.2881 9.35932C31.4725 3.99453 17.4875 13.0483 9.10657 28.1829H250.211C249.896 23.7848 248.953 19.7218 247.224 16.1674C246.814 16.4834 246.31 16.6535 245.793 16.6507Z" fill="#FFA24D"/>
<path opacity="0.1" d="M0.545427 56.7487C-0.431525 65.6502 -0.0994304 74.6466 1.53115 83.4519L224.844 90.8368C230.991 84.4662 236.214 77.2658 240.36 69.446L0.545427 56.7487ZM88.8684 75.798H84.4715C85.6808 75.798 86.6711 76.694 86.6711 77.7861C86.6711 78.8782 85.6808 79.772 84.4715 79.772H59.0365C57.8294 79.772 56.8391 78.8782 56.8391 77.7861C56.8391 76.694 57.8294 75.798 59.0365 75.798H63.4358C62.2264 75.798 61.2384 74.9042 61.2384 73.8121C61.2384 72.72 62.2264 71.824 63.4358 71.824H60.2938C59.0844 71.824 58.0941 70.9302 58.0941 69.8381C58.0941 68.746 59.0844 67.85 60.2938 67.85H85.7287C86.9381 67.85 87.9261 68.7437 87.9261 69.8381C87.9261 70.9325 86.9381 71.824 85.7287 71.824H88.8684C90.0778 71.824 91.0658 72.7177 91.0658 73.8121C91.0658 74.9065 90.0778 75.798 88.8684 75.798Z" fill="#FFA24D"/>
<path opacity="0.1" d="M250.22 28.3196L6.41634 33.6776C3.45003 40.57 1.48314 48.363 0.577271 56.4386H245.948C247.545 51.7139 248.73 46.86 249.489 41.9311C250.222 37.1865 250.514 32.5969 250.22 28.3196ZM50.0781 45.8869H45.6811C46.8905 45.8869 47.8808 46.7829 47.8808 47.875C47.8808 48.9672 46.8905 49.8632 45.6811 49.8632H20.2462C19.0391 49.8632 18.0488 48.9672 18.0488 47.875C18.0488 46.7829 19.0391 45.8869 20.2462 45.8869H24.6454C23.4361 45.8869 22.4481 44.9931 22.4481 43.901C22.4481 42.8089 23.4361 41.9129 24.6454 41.9129H21.5034C20.2941 41.9129 19.3038 41.0191 19.3038 39.927C19.3038 38.8349 20.2941 37.9389 21.5034 37.9389H46.9384C48.1477 37.9389 49.1358 38.8326 49.1358 39.927C49.1358 41.0214 48.1477 41.9129 46.9384 41.9129H50.0781C51.2875 41.9129 52.2755 42.8089 52.2755 43.901C52.2755 44.9931 51.2875 45.8869 50.0781 45.8869Z" fill="#FFA24D"/>
<path opacity="0.1" d="M124.375 178.085C180.703 178.085 226.366 173.887 226.366 168.71C226.366 163.532 180.703 159.334 124.375 159.334C68.047 159.334 22.3842 163.532 22.3842 168.71C22.3842 173.887 68.047 178.085 124.375 178.085Z" fill="#FFA24D"/>
<path d="M228.324 91.2722C228.322 91.2563 228.322 91.2403 228.324 91.2244C228.324 91.1993 228.324 91.1765 228.324 91.1537C228.278 90.8926 228.179 90.6435 228.034 90.4218C227.512 89.5867 226.784 88.8991 225.921 88.4246C224.415 87.5992 222.345 87.2458 221.743 85.6703C221.558 85.1824 221.554 84.6512 221.462 84.1405C221.303 83.3447 220.936 82.605 220.4 81.9955C219.864 81.386 219.176 80.9282 218.407 80.6681C217.691 80.4287 216.917 80.3625 216.221 80.0661C214.665 79.4049 213.843 77.7748 213.148 76.2677C212.247 74.3221 211.346 72.3758 210.446 70.4287C209.761 70.7729 208.876 70.6111 208.235 70.1801C207.617 69.7205 207.125 69.1128 206.804 68.4131C205.875 66.612 205.476 64.5714 204.385 62.8568C203.295 61.1423 201.116 59.788 199.19 60.5335C198.814 60.7212 198.425 60.882 198.026 61.0146C196.376 61.3999 194.551 59.5167 193.139 60.4309C192.904 60.5813 192.713 60.7904 192.584 61.0374C192.583 61.0222 192.583 61.007 192.584 60.9918C192.4 61.3627 192.298 61.7684 192.283 62.182C192.283 62.2663 192.283 62.3484 192.283 62.4282C192.283 62.4419 192.283 62.4556 192.283 62.4692C192.283 62.7975 192.303 63.1304 192.308 63.4633C192.313 63.7429 192.292 64.0223 192.244 64.2978V64.275C192.217 64.43 192.178 64.5826 192.126 64.731C191.758 65.7159 190.74 66.3612 190.264 67.2868V67.2412C190.21 67.3419 190.163 67.4463 190.124 67.5536C190.04 67.7962 189.996 68.0513 189.994 68.3083C189.953 70.0479 191.799 71.6849 192.014 73.5522C192.167 74.8746 192.47 75.2987 193.595 76.0465L193.841 76.2107C193.743 76.2107 193.643 76.2244 193.531 76.2266C193.487 76.2274 193.444 76.232 193.401 76.2403C193.203 76.1857 192.994 76.1758 192.792 76.2113C192.589 76.2468 192.396 76.3268 192.228 76.4455C191.366 77.1295 189.326 76.6028 188.42 76.4455C187.514 76.2882 184.411 76.7123 183.977 78.4314C183.544 80.1505 182.8 83.6982 182.8 83.6982C182.8 83.6982 182.8 85.9485 182.524 86.368C182.513 86.3975 182.513 86.4297 182.524 86.4592C182.524 87.0908 182.547 90.8869 181.935 91.865C181.784 92.093 181.796 92.5969 181.908 93.2171C181.264 94.0447 180.66 95.0114 180.767 95.6453C180.963 96.9426 183.596 101.021 187.37 98.8372C187.37 98.8372 189.517 94.9134 186.816 92.8272L186.932 92.3712C187.749 93.3744 188.354 94.0949 188.354 94.0949C188.354 94.0949 188.386 94.1792 188.436 94.3229H188.354C188.706 95.2817 188.92 96.2859 188.988 97.3051C188.978 97.6788 188.91 98.0486 188.787 98.4018H188.858C188.837 98.4793 188.815 98.5568 188.787 98.6298C188.655 99.0148 188.407 99.3498 188.078 99.5896C186.191 100.926 184.03 110.467 184.03 110.467C184.03 110.467 179.749 125.892 178.893 126.769C178.186 127.49 182.631 129.519 185.967 129.277C186.433 129.25 186.893 129.162 187.336 129.017C187.357 129.245 187.379 129.473 187.402 129.681C187.473 130.365 187.546 130.999 187.592 131.197C187.71 131.694 187.945 136.769 187.945 136.769C187.945 136.769 187.464 140.066 187.58 142.36C187.58 142.517 187.601 142.668 187.614 142.816L187.199 142.88C186.569 144.293 189.164 156.088 189.517 157.079C189.752 157.861 189.884 158.669 189.91 159.485C189.91 159.485 189.682 160.324 189.871 160.782C189.989 161.062 190.066 161.358 190.099 161.66C190.099 161.66 189.944 162.421 190.179 162.918C190.414 163.415 190.14 164.286 190.14 164.286C190.14 164.286 190.063 167.722 189.355 169.592C189.163 170.095 189.107 170.64 189.193 171.172C189.279 171.704 189.504 172.203 189.846 172.62C189.895 172.685 189.949 172.746 190.006 172.804C190.006 172.804 193.908 172.836 194.594 172.804H194.683C194.959 172.766 195.667 169.674 195.037 168.185C194.407 166.696 194.959 164.863 194.959 164.863V162.155C194.959 162.155 195.667 161.503 194.959 160.103C194.252 158.703 194.368 158.279 194.368 158.279C194.368 158.279 195.156 156.026 194.33 155.301C193.504 154.576 194.487 151.826 194.487 151.826L194.766 142.661C194.62 142.613 194.471 142.575 194.321 142.547C194.305 142.396 194.289 142.241 194.273 142.077C194.111 140.417 193.971 138.16 194.332 137.517C194.693 136.874 194.866 131.261 194.923 127.36L198.519 127.497C198.594 129.321 198.674 130.985 198.724 131.197C198.843 131.694 199.08 136.769 199.08 136.769C199.08 136.769 198.597 140.066 198.713 142.36C198.713 142.517 198.734 142.668 198.747 142.816L198.332 142.88C197.702 144.293 200.297 156.088 200.65 157.079C200.885 157.861 201.017 158.669 201.045 159.485C201.045 159.485 200.817 160.324 201.004 160.782C201.122 161.062 201.199 161.358 201.232 161.66C201.232 161.66 201.077 162.421 201.312 162.918C201.547 163.415 201.273 164.286 201.273 164.286C201.273 164.286 201.196 167.722 200.488 169.592C200.299 170.096 200.246 170.641 200.335 171.172C200.424 171.703 200.651 172.201 200.995 172.615C201.044 172.68 201.097 172.742 201.154 172.8C201.154 172.8 205.056 172.832 205.743 172.8H205.832C206.108 172.761 206.816 169.669 206.186 168.181C205.556 166.692 206.108 164.859 206.108 164.859V162.155C206.108 162.155 206.816 161.503 206.108 160.103C205.401 158.703 205.517 158.279 205.517 158.279C205.517 158.279 206.304 156.026 205.478 155.301C204.652 154.576 205.636 151.826 205.636 151.826L205.919 142.661C205.769 142.613 205.617 142.575 205.462 142.547C205.447 142.396 205.431 142.241 205.415 142.077C205.253 140.417 205.113 138.16 205.474 137.517C205.764 136.99 205.93 133.598 206.006 130.285C206.006 130.057 206.006 129.829 206.024 129.601C207.676 129.532 209.321 129.348 210.948 129.049C210.948 129.049 209.024 122.253 209.613 121.147C209.866 120.67 209.501 118.133 209.002 115.399C209.698 115.963 210.565 116.276 211.461 116.288C212.322 117.941 214.939 121.744 216.413 122.33C218.142 123.014 216.844 116.949 216.02 116.072C215.63 115.592 215.302 115.066 215.044 114.505C215.066 114.478 215.092 114.455 215.114 114.43C215.137 114.405 215.155 107.978 214.761 108.094C214.366 108.21 213.896 107.139 213.896 107.139L212.677 96.4524L212.166 91.979C212.593 92.2937 213.1 92.4943 213.535 92.8067C214.722 93.6754 215.11 95.2007 215.63 96.5504C216.059 97.6608 216.661 98.762 217.649 99.4597C218.637 100.157 220.086 100.342 221.072 99.6352C221.985 98.9718 222.254 97.7748 222.455 96.6827C224.111 97.264 226.122 95.7091 225.907 94.0105C225.855 93.591 225.7 93.1327 225.919 92.7656C226.357 92.0406 227.744 92.4624 228.2 91.7465C228.277 91.6227 228.317 91.4794 228.314 91.3338C228.321 91.3019 228.324 91.2882 228.324 91.2722ZM206.165 97.1501C206.14 97.5582 206.701 100.837 207.158 103.431C206.784 101.815 206.033 100.089 204.554 98.9056C204.554 98.9056 204.554 98.8236 204.536 98.6776H204.554C204.554 98.6776 204.493 98.0256 204.484 97.0976C204.486 96.2751 204.547 95.4537 204.666 94.6398V94.6193H204.636C204.636 94.5509 204.655 94.4802 204.666 94.4118C204.757 93.7249 204.943 93.0542 205.221 92.4191C205.343 92.1702 205.484 91.9309 205.643 91.7032C205.887 93.9079 206.188 96.7374 206.165 97.1501ZM207.393 104.747C207.594 105.866 207.737 106.653 207.737 106.653L208.949 114.966V115.005C208.296 111.496 207.464 107.798 207.464 107.798C207.549 106.781 207.525 105.758 207.393 104.747Z" fill="url(#paint0_linear)"/>
<path d="M192.543 74.0082C192.315 71.9015 190.033 70.0844 190.718 68.0803C191.09 66.9881 192.253 66.3201 192.646 65.2348C192.906 64.5189 192.79 63.7323 192.792 62.9708C192.794 62.2093 192.972 61.3589 193.606 60.9371C194.975 60.0251 196.737 61.9015 198.334 61.5185C198.72 61.3865 199.096 61.2265 199.459 61.0397C201.323 60.2987 203.432 61.6484 204.479 63.3539C205.526 65.0593 205.919 67.093 206.818 68.8851C207.125 69.5771 207.6 70.1814 208.201 70.643C208.821 71.0716 209.67 71.2335 210.341 70.8915L212.954 76.7054C213.638 78.2034 214.423 79.8267 215.92 80.4856C216.591 80.7797 217.339 80.8459 218.033 81.0853C218.787 81.351 219.458 81.8099 219.978 82.4161C220.499 83.0223 220.851 83.7545 220.999 84.5394C221.088 85.0501 221.09 85.5791 221.271 86.0647C221.853 87.6334 223.854 87.9845 225.312 88.8007C226.155 89.276 226.862 89.9598 227.365 90.7866C227.594 91.181 227.79 91.6986 227.546 92.0862C227.105 92.7975 225.766 92.378 225.341 93.1008C225.127 93.4656 225.278 93.9216 225.341 94.3411C225.549 96.0305 223.603 97.5786 222.001 96.9995C221.807 98.0871 221.544 99.2795 220.664 99.9384C219.717 100.645 218.314 100.458 217.357 99.7651C216.401 99.072 215.822 97.9754 215.407 96.8696C214.902 95.5244 214.526 94.0059 213.378 93.1418C212.963 92.8317 212.465 92.6311 212.059 92.3187C211.146 91.6211 210.69 90.4697 210.364 89.3548C209.942 87.964 209.606 86.5344 208.995 85.2211C208.383 83.9079 207.416 82.6858 206.09 82.0862C204.846 81.5276 203.414 81.5641 202.129 81.1103C199.918 80.3306 198.282 78.4724 196.082 77.5969C195.379 77.3016 194.713 76.9251 194.097 76.4751C192.99 75.7478 192.689 75.326 192.543 74.0082Z" fill="#3F3D56"/>
<g opacity="0.1">
<path opacity="0.1" d="M192.749 64.788C192.796 64.6988 192.837 64.6066 192.872 64.5121C193.13 63.7962 193.015 63.0096 193.018 62.2481C193.018 61.9941 193.041 61.7407 193.088 61.4911C192.878 61.9416 192.776 62.435 192.79 62.9321C192.787 63.5454 192.86 64.1883 192.749 64.788Z" fill="black"/>
<path opacity="0.1" d="M220.878 99.2225C219.931 99.9271 218.528 99.7424 217.572 99.047C216.616 98.3516 216.034 97.2595 215.63 96.1491C215.126 94.8039 214.752 93.2855 213.602 92.4214C213.189 92.1113 212.689 91.9084 212.285 91.5983C211.372 90.9006 210.916 89.7492 210.587 88.6457C210.165 87.2549 209.832 85.8254 209.218 84.5121C208.605 83.1988 207.642 81.9768 206.314 81.3771C205.072 80.8185 203.639 80.855 202.355 80.4013C200.141 79.6215 198.505 77.7634 196.308 76.8878C195.605 76.5916 194.938 76.2152 194.321 75.7661C193.239 75.0205 192.952 74.5987 192.792 73.2832C192.564 71.3087 190.556 69.5873 190.868 67.7269C190.817 67.8275 190.772 67.9311 190.734 68.037C190.049 70.0433 192.331 71.8605 192.559 73.9649C192.707 75.2805 193.015 75.7023 194.088 76.4478C194.705 76.8969 195.372 77.2734 196.075 77.5696C198.273 78.4451 199.909 80.3055 202.122 81.083C203.407 81.539 204.84 81.5003 206.081 82.0588C207.409 82.6585 208.363 83.8828 208.986 85.1938C209.609 86.5048 209.942 87.9298 210.355 89.3274C210.69 90.4309 211.13 91.5823 212.052 92.28C212.465 92.5901 212.965 92.793 213.369 93.1031C214.51 93.9672 214.893 95.4857 215.397 96.8308C215.813 97.9366 216.395 99.031 217.351 99.7241C218.307 100.417 219.71 100.604 220.657 99.8997C221.262 99.4437 221.57 98.7483 221.773 98.0028C221.592 98.4836 221.283 98.9056 220.878 99.2225Z" fill="black"/>
<path opacity="0.1" d="M225.567 92.3849C225.48 92.5484 225.442 92.7337 225.458 92.9184C225.973 92.41 227.137 92.7086 227.543 92.0543C227.638 91.8926 227.675 91.7038 227.648 91.5185C227.119 92.0201 225.955 91.7214 225.567 92.3849Z" fill="black"/>
<path opacity="0.1" d="M222.215 96.2836C222.172 96.5116 222.129 96.7556 222.074 96.9927C223.47 97.4282 225.084 96.3087 225.312 94.8952C224.757 95.9827 223.388 96.71 222.215 96.2836Z" fill="black"/>
</g>
<path d="M195.491 75.1049C195.491 75.1049 196.251 76.637 194.008 76.669C191.765 76.7009 195.452 86.6188 195.452 86.6188L199.181 91.3612L203.82 88.8532L204.087 81.9357L204.429 77.7565C204.429 77.7565 200.094 76.3498 200.892 74.4893C201.691 72.6288 195.491 75.1049 195.491 75.1049Z" fill="#FBBEBE"/>
<path d="M208.956 115.543C208.956 115.543 211.694 118.235 214.889 114.663L212.436 112.061H209.332L208.956 115.543Z" fill="#575A89"/>
<path opacity="0.1" d="M209.253 112.061L208.876 115.543C208.876 115.543 211.614 118.235 214.809 114.663" fill="black"/>
<path d="M213.86 112.535C213.86 112.535 214.962 115.424 215.76 116.297C216.559 117.171 217.814 123.213 216.141 122.529C214.469 121.845 211.274 116.753 211.083 115.88C210.891 115.007 210.818 112.535 210.818 112.535H213.86Z" fill="#FBBEBE"/>
<path d="M189.94 127.355L204.694 127.925L202.982 121.692L195.551 121.541L189.94 127.355Z" fill="#575A89"/>
<path opacity="0.1" d="M191.991 127.355L206.747 127.925L205.036 121.692L197.602 121.541L191.991 127.355Z" fill="black"/>
<path d="M194.768 137.645C194.419 138.295 194.553 140.543 194.711 142.205C194.811 143.263 194.921 144.077 194.921 144.077C194.921 144.077 189.406 145.787 188.571 144.305C188.358 143.928 188.253 143.27 188.217 142.497C188.103 140.217 188.571 136.931 188.571 136.931C188.571 136.931 188.342 131.879 188.228 131.384C188.183 131.186 188.112 130.556 188.044 129.875C187.943 128.862 187.847 127.736 187.847 127.736L195.377 123.746C195.377 123.746 195.377 124.494 195.363 125.645C195.322 129.261 195.201 136.847 194.768 137.645Z" fill="#FBBEBE"/>
<path opacity="0.1" d="M194.921 144.077C194.921 144.077 189.406 145.787 188.571 144.305C188.358 143.928 188.253 143.269 188.217 142.497C189.358 142.323 192.831 141.844 194.711 142.205C194.811 143.263 194.921 144.077 194.921 144.077Z" fill="black"/>
<path d="M195.11 172.804H195.024C194.36 172.829 190.585 172.804 190.585 172.804C190.53 172.747 190.478 172.686 190.43 172.622C190.097 172.205 189.876 171.709 189.791 171.181C189.705 170.654 189.756 170.114 189.94 169.612C190.624 167.75 190.7 164.33 190.7 164.33C190.7 164.33 190.967 163.456 190.738 162.962C190.51 162.467 190.661 161.708 190.661 161.708C190.626 161.407 190.549 161.114 190.433 160.834C190.243 160.378 190.471 159.542 190.471 159.542C190.445 158.731 190.317 157.927 190.09 157.148C189.748 156.161 187.238 144.419 187.847 143.012C187.847 143.012 193.171 142.1 195.188 142.784L194.921 151.904C194.921 151.904 193.969 154.64 194.768 155.363C195.567 156.085 194.807 158.327 194.807 158.327C194.807 158.327 194.693 158.744 195.377 160.15C196.062 161.557 195.377 162.202 195.377 162.202V164.9C195.377 164.9 194.846 166.724 195.452 168.206C196.059 169.688 195.377 172.757 195.11 172.804Z" fill="#3F3D56"/>
<path d="M205.558 137.645C205.209 138.295 205.344 140.543 205.501 142.205C205.602 143.263 205.711 144.077 205.711 144.077C205.711 144.077 200.196 145.787 199.361 144.305C199.149 143.928 199.044 143.27 199.007 142.497C198.893 140.217 199.361 136.931 199.361 136.931C199.361 136.931 199.133 131.879 199.019 131.384C198.957 131.117 198.85 128.573 198.766 126.29C198.695 124.343 198.638 122.583 198.638 122.583L206.168 123.746C206.168 123.746 206.168 127.054 206.074 130.454C205.992 133.751 205.839 137.13 205.558 137.645Z" fill="#FBBEBE"/>
<path opacity="0.1" d="M205.711 144.077C205.711 144.077 200.196 145.787 199.361 144.305C199.149 143.928 199.044 143.269 199.007 142.497C200.148 142.323 203.621 141.844 205.501 142.205C205.602 143.263 205.711 144.077 205.711 144.077Z" fill="black"/>
<path d="M205.901 172.804H205.814C205.15 172.83 201.376 172.804 201.376 172.804C201.321 172.747 201.269 172.686 201.221 172.622C200.887 172.205 200.667 171.709 200.581 171.181C200.495 170.654 200.546 170.114 200.73 169.612C201.415 167.741 201.483 164.321 201.483 164.321C201.483 164.321 201.75 163.447 201.522 162.953C201.294 162.458 201.444 161.699 201.444 161.699C201.409 161.398 201.333 161.104 201.216 160.825C201.027 160.369 201.255 159.533 201.255 159.533C201.229 158.722 201.101 157.918 200.874 157.139C200.532 156.151 198.022 144.41 198.631 143.003C198.631 143.003 203.954 142.091 205.971 142.775L205.704 151.895C205.704 151.895 204.753 154.631 205.552 155.353C206.35 156.076 205.59 158.317 205.59 158.317C205.59 158.317 205.476 158.735 206.161 160.141C206.845 161.548 206.161 162.193 206.161 162.193V164.891C206.161 164.891 205.629 166.715 206.236 168.197C206.843 169.679 206.168 172.757 205.901 172.804Z" fill="#3F3D56"/>
<path opacity="0.1" d="M198.458 76.8969C201.419 76.8969 203.82 74.4981 203.82 71.539C203.82 68.5798 201.419 66.181 198.458 66.181C195.496 66.181 193.095 68.5798 193.095 71.539C193.095 74.4981 195.496 76.8969 198.458 76.8969Z" fill="black"/>
<path d="M198.458 76.6689C201.419 76.6689 203.82 74.2701 203.82 71.311C203.82 68.3519 201.419 65.953 198.458 65.953C195.496 65.953 193.095 68.3519 193.095 71.311C193.095 74.2701 195.496 76.6689 198.458 76.6689Z" fill="#FBBEBE"/>
<path opacity="0.1" d="M187.847 127.736L195.377 123.746C195.377 123.746 195.377 124.494 195.363 125.645C194.264 126.302 192.605 127.289 191.01 128.222C190.143 128.73 189.296 129.223 188.571 129.635C188.402 129.727 188.226 129.803 188.044 129.863C187.943 128.862 187.847 127.736 187.847 127.736Z" fill="black"/>
<path opacity="0.1" d="M206.168 123.737C206.168 123.737 206.168 127.045 206.074 130.445H206.047C205.484 130.465 204.921 130.447 204.36 130.392C203.377 130.287 202.59 130.027 202.307 129.512C201.734 128.509 200.13 127.232 198.775 126.281C198.704 124.334 198.647 122.574 198.647 122.574L206.168 123.737Z" fill="black"/>
<path d="M204.767 94.7606C204.576 96.2447 204.539 97.7446 204.657 99.2362C208.116 102.086 207.47 108.089 207.47 108.089C207.47 108.089 210.133 120.251 209.563 121.352C208.992 122.453 210.854 129.218 210.854 129.218C209.267 129.518 207.66 129.703 206.047 129.77C205.484 129.79 204.921 129.772 204.36 129.717C203.377 129.612 202.59 129.352 202.307 128.837C201.243 126.977 196.641 124.202 196.641 124.202C196.641 124.202 193.725 125.948 191.01 127.538C190.143 128.046 189.296 128.539 188.57 128.951C187.982 129.263 187.331 129.442 186.665 129.473C183.437 129.713 179.135 127.693 179.82 126.977C180.657 126.101 184.803 110.75 184.803 110.75C184.803 110.75 186.893 101.249 188.719 99.9202C189.039 99.6787 189.278 99.3454 189.403 98.9649C190.029 97.2298 188.983 94.4483 188.983 94.4483C188.983 94.4483 183.09 87.1911 183.354 86.7716C183.619 86.352 183.621 84.1131 183.621 84.1131C183.621 84.1131 184.345 80.5791 184.762 78.8691C185.18 77.1591 188.185 76.7396 189.059 76.8924C189.933 77.0452 191.909 77.5764 192.744 76.8924C193.579 76.2084 194.989 77.1591 194.989 77.1591L198.453 78.1122L201.567 76.2882C201.567 76.2882 204.689 76.4478 204.956 76.865C205.223 77.2823 209.33 78.0825 209.33 78.0825C211.42 79.487 211.345 86.1765 211.345 86.1765C211.345 86.1765 206.325 90.5449 205.298 92.7884C205.032 93.4187 204.853 94.0822 204.767 94.7606Z" fill="#575A89"/>
<path d="M210.209 85.2508L211.35 86.1628L212.529 96.7647L213.707 107.405C213.707 107.405 214.163 108.47 214.544 108.356C214.925 108.242 214.886 114.663 214.886 114.663C214.886 114.663 210.519 111.979 208.954 115.543L207.735 106.949C207.735 106.949 206.175 98.1715 206.213 97.4875C206.252 96.8035 205.415 89.3935 205.415 89.3935L210.209 85.2508Z" fill="#575A89"/>
<path d="M184.196 85.7456L183.359 86.7716C183.359 86.7716 183.437 91.1788 182.789 92.2435C182.141 93.3083 184.577 99.5395 185.49 99.1587C186.403 98.778 188.456 89.0515 188.456 88.9376C188.456 88.8236 184.196 85.7456 184.196 85.7456Z" fill="#575A89"/>
<path d="M184.121 92.0155C184.121 92.0155 181.458 94.7127 181.648 96.0055C181.837 97.2982 184.386 101.359 188.037 99.1769C188.037 99.1769 191.423 92.8135 184.121 92.0155Z" fill="#575A89"/>
<path opacity="0.1" d="M195.023 172.811C194.359 172.836 190.585 172.811 190.585 172.811C190.53 172.753 190.478 172.693 190.43 172.629C191.395 172.301 193.481 171.808 195.023 172.811Z" fill="black"/>
<path opacity="0.1" d="M205.819 172.811C205.155 172.836 201.381 172.811 201.381 172.811C201.325 172.753 201.273 172.693 201.225 172.629C202.186 172.301 204.272 171.808 205.819 172.811Z" fill="black"/>
<path opacity="0.1" d="M191.279 105.978C190.697 111.555 190.889 122.622 191.01 127.538C190.143 128.046 189.296 128.539 188.571 128.951C187.982 129.263 187.331 129.442 186.665 129.473C186.423 127.987 189.773 112.718 191.279 105.978Z" fill="black"/>
<path opacity="0.1" d="M191.991 102.813C191.975 102.893 191.699 104.106 191.279 105.978C191.443 104.38 191.672 103.233 191.991 102.813Z" fill="black"/>
<path opacity="0.1" d="M201.255 102.212C201.255 102.212 204.488 122.503 194.914 125.011C194.912 125.002 201.538 123.997 201.255 102.212Z" fill="black"/>
<path opacity="0.1" d="M206.047 129.77C205.484 129.79 204.921 129.772 204.36 129.717L201.777 101.972C203.425 103.048 205.396 122.738 206.047 129.77Z" fill="black"/>
<path opacity="0.1" d="M194.464 68.16C194.636 68.1464 194.808 68.1642 194.973 68.2125C195.215 68.3331 195.434 68.4969 195.617 68.6958C195.914 68.9443 196.27 69.1134 196.651 69.1871C197.031 69.2609 197.425 69.237 197.794 69.1176C198.054 69.0014 198.33 68.9246 198.613 68.8896C199.049 68.8896 199.425 69.2088 199.651 69.5736C199.877 69.9384 199.993 70.3716 200.187 70.7615C200.381 71.1514 200.691 71.5207 201.118 71.6165C201.323 71.6244 201.524 71.6709 201.711 71.7533C201.826 71.8465 201.914 71.9685 201.967 72.1067C202.323 72.8751 202.606 73.7825 203.366 74.1587C203.645 74.2881 203.95 74.3543 204.258 74.3525C204.571 74.3755 204.885 74.319 205.171 74.1883C205.451 74.0316 205.684 73.8004 205.841 73.5203C206.316 72.736 206.371 71.7647 206.259 70.855C206.12 69.7074 205.711 68.6089 205.066 67.6493C204.386 66.6788 203.461 65.9059 202.384 65.4096C201.308 64.9133 200.119 64.7114 198.939 64.8244C198.527 64.8707 198.119 64.9469 197.718 65.0524C196.267 65.44 194.843 66.1651 193.962 67.3803C193.749 67.6836 193.515 67.9716 193.262 68.2421C193.661 68.2034 194.063 68.1692 194.464 68.16Z" fill="black"/>
<path d="M194.464 67.9321C194.636 67.9185 194.808 67.9362 194.973 67.9845C195.215 68.1051 195.434 68.2689 195.617 68.4679C195.914 68.7163 196.27 68.8854 196.651 68.9591C197.031 69.0329 197.425 69.009 197.794 68.8897C198.054 68.7734 198.33 68.6966 198.613 68.6617C199.049 68.6617 199.425 68.9809 199.651 69.3457C199.877 69.7105 199.993 70.1436 200.187 70.5335C200.381 70.9234 200.691 71.2928 201.118 71.3885C201.323 71.3965 201.524 71.4429 201.711 71.5253C201.826 71.6186 201.914 71.7405 201.967 71.8787C202.323 72.6471 202.606 73.5545 203.366 73.9307C203.645 74.0601 203.95 74.1263 204.258 74.1245C204.571 74.1475 204.885 74.091 205.171 73.9603C205.451 73.8036 205.684 73.5724 205.841 73.2923C206.316 72.508 206.371 71.5367 206.259 70.627C206.12 69.4794 205.711 68.381 205.066 67.4213C204.386 66.4508 203.461 65.6779 202.384 65.1816C201.308 64.6853 200.119 64.4834 198.939 64.5964C198.527 64.6427 198.119 64.7189 197.718 64.8244C196.267 65.212 194.843 65.9371 193.962 67.1523C193.749 67.4557 193.515 67.7436 193.262 68.0141C193.661 67.9754 194.063 67.9412 194.464 67.9321Z" fill="#3F3D56"/>
<path opacity="0.1" d="M188.646 80.6908C188.646 80.6908 188.913 82.8203 188 83.3515C187.087 83.8828 188.646 80.6908 188.646 80.6908Z" fill="black"/>
<path opacity="0.1" d="M208.002 97.1842C208.002 97.1842 210.17 93.9922 210.476 94.9042C210.781 95.8162 208.002 97.1842 208.002 97.1842Z" fill="black"/>
<path opacity="0.1" d="M208.155 98.2467C208.155 98.2467 210.293 95.6247 210.498 96.6507C210.704 97.6767 208.155 98.2467 208.155 98.2467Z" fill="black"/>
<path opacity="0.1" d="M201.876 95.1254C201.1 95.1363 200.344 94.8875 199.726 94.4186H199.539C198.899 95.003 198.058 95.319 197.191 95.3009C196.74 95.3114 196.292 95.2303 195.874 95.0626C195.455 94.8948 195.075 94.6439 194.756 94.3251H194.508C193.851 94.8597 193.026 95.1446 192.179 95.1291C191.332 95.1137 190.517 94.799 189.88 94.2407L188.988 94.2248C188.988 94.2248 190.033 97.0064 189.408 98.7414L204.657 99.0128C204.539 97.5211 204.576 96.0213 204.767 94.5371V94.5166L203.929 94.5007C203.327 94.9181 202.609 95.1366 201.876 95.1254Z" fill="black"/>
<path opacity="0.1" d="M201.876 95.5814C201.1 95.5923 200.344 95.3435 199.726 94.8746H199.539C198.899 95.459 198.058 95.7749 197.191 95.7569C196.74 95.7674 196.292 95.6863 195.874 95.5185C195.455 95.3508 195.075 95.0999 194.756 94.7811H194.508C193.851 95.3157 193.026 95.6006 192.179 95.5851C191.332 95.5697 190.517 95.2549 189.88 94.6967L188.988 94.6808C188.988 94.6808 190.033 97.4624 189.408 99.1974L204.657 99.4687C204.539 97.9771 204.576 96.4772 204.767 94.9931V94.9726L203.929 94.9566C203.327 95.3741 202.609 95.5926 201.876 95.5814Z" fill="black"/>
<path d="M201.876 95.3534C201.1 95.3643 200.344 95.1155 199.726 94.6466H199.539C198.899 95.231 198.058 95.547 197.191 95.5289C196.74 95.5394 196.292 95.4583 195.874 95.2906C195.455 95.1228 195.075 94.8719 194.756 94.5531H194.508C193.851 95.0877 193.026 95.3726 192.179 95.3571C191.332 95.3417 190.517 95.027 189.88 94.4688L188.988 94.4528C188.988 94.4528 190.033 97.2344 189.408 98.9694L204.657 99.2408C204.539 97.7491 204.576 96.2493 204.767 94.7651V94.7446L203.929 94.7287C203.327 95.1461 202.609 95.3646 201.876 95.3534Z" fill="#3F3D56"/>
<path opacity="0.1" d="M201.198 80.1505C201.198 80.1505 204.408 80.3557 204.429 80.8117C204.45 81.2677 201.198 80.1505 201.198 80.1505Z" fill="black"/>
<path opacity="0.1" d="M193.399 78.2057C193.399 78.2057 190.188 78.4109 190.168 78.8669C190.147 79.3229 193.399 78.2057 193.399 78.2057Z" fill="black"/>
<path opacity="0.1" d="M205.668 87.5285C205.636 87.5057 205.604 87.4875 205.572 87.4669C206.394 88.2056 206.257 89.8199 205.248 91.1514C204.24 92.4829 202.708 93.0369 201.777 92.4396C201.807 92.4647 201.832 92.492 201.864 92.5171C202.777 93.2148 204.374 92.6676 205.428 91.2905C206.482 89.9134 206.585 88.2284 205.668 87.5285Z" fill="black"/>
<path opacity="0.1" d="M188.032 90.9804C187.22 89.5166 187.325 87.9001 188.244 87.2868C188.21 87.3028 188.174 87.3165 188.139 87.3347C187.131 87.8956 186.999 89.5759 187.834 91.0898C188.669 92.6037 190.175 93.3698 191.183 92.8181C191.217 92.7989 191.249 92.7776 191.279 92.7542C190.273 93.2102 188.844 92.4441 188.032 90.9804Z" fill="black"/>
<path opacity="0.1" d="M189.118 78.6366L188.824 79.0926L188.073 78.6936L188.468 78.0871C188.729 78.2104 188.953 78.3998 189.118 78.6366Z" fill="black"/>
<path d="M184.349 95.5107C184.349 95.5107 185.018 92.3689 184.121 91.3703C183.224 90.3716 183.512 85.1368 184.881 85.2508C186.25 85.3648 188.304 89.5052 187.961 90.3807C187.619 91.2563 186.325 95.7387 186.325 95.7387L184.349 95.5107Z" fill="#FBBEBE"/>
<path opacity="0.1" d="M205.819 72.8431C205.661 73.1233 205.429 73.3544 205.148 73.5112C204.862 73.6418 204.548 73.6983 204.235 73.6753C203.927 73.6771 203.622 73.611 203.343 73.4815C202.583 73.103 202.3 72.1956 201.944 71.4295C201.899 71.2913 201.819 71.1672 201.711 71.0693C201.527 70.9853 201.328 70.9366 201.125 70.9257C200.698 70.8299 200.39 70.4583 200.194 70.0707C199.998 69.6831 199.881 69.2544 199.658 68.8828C199.434 68.5112 199.055 68.1851 198.62 68.1988C198.336 68.2364 198.06 68.3171 197.8 68.4382C197.431 68.5566 197.038 68.5798 196.657 68.5056C196.277 68.4315 195.921 68.2624 195.624 68.0141C195.44 67.8152 195.222 67.6514 194.98 67.5308C194.815 67.4825 194.643 67.4647 194.471 67.4783C194.209 67.4783 193.949 67.5034 193.686 67.5239C193.556 67.6942 193.417 67.8571 193.269 68.0118C193.668 67.9776 194.07 67.9434 194.471 67.9343C194.643 67.9207 194.815 67.9385 194.98 67.9868C195.222 68.1074 195.44 68.2712 195.624 68.4701C195.921 68.7184 196.277 68.8875 196.657 68.9616C197.038 69.0358 197.431 69.0126 197.8 68.8942C198.06 68.7731 198.336 68.6924 198.62 68.6548C199.055 68.6548 199.432 68.974 199.658 69.3388C199.884 69.7036 200 70.1368 200.194 70.5267C200.388 70.9165 200.698 71.2859 201.125 71.3817C201.328 71.3926 201.527 71.4413 201.711 71.5253C201.826 71.6185 201.914 71.7405 201.967 71.8787C202.323 72.647 202.606 73.5545 203.366 73.9307C203.645 74.0601 203.95 74.1263 204.258 74.1245C204.571 74.1475 204.885 74.091 205.171 73.9603C205.451 73.8036 205.684 73.5724 205.841 73.2923C206.196 72.6478 206.354 71.9141 206.298 71.181C206.28 71.7665 206.116 72.3382 205.819 72.8431Z" fill="black"/>
<path d="M185.36 98.0028C186.494 98.0028 187.414 97.3801 187.414 96.612C187.414 95.8438 186.494 95.2212 185.36 95.2212C184.226 95.2212 183.307 95.8438 183.307 96.612C183.307 97.3801 184.226 98.0028 185.36 98.0028Z" fill="#575A89"/>
<path d="M118.422 174.029C157.299 174.029 188.815 142.538 188.815 103.691C188.815 64.845 157.299 33.3539 118.422 33.3539C79.5451 33.3539 48.0292 64.845 48.0292 103.691C48.0292 142.538 79.5451 174.029 118.422 174.029Z" fill="#FFA24D"/>
<path d="M155.357 139.038C155.357 150.141 137.888 139.986 119.159 139.986C100.43 139.986 81.4867 149.722 81.4867 138.618C81.4867 132.287 87.5243 123.482 96.1859 117.086C102.712 112.266 110.725 108.814 118.775 108.814C127.054 108.814 135.163 112.551 141.632 117.681C149.796 124.15 155.357 132.841 155.357 139.038Z" fill="#444053"/>
<path d="M141.63 117.677C131.674 116.179 113.669 114.353 96.186 117.082C102.712 112.262 110.726 108.81 118.776 108.81C127.052 108.81 135.161 112.547 141.63 117.677Z" fill="#F6F8FB"/>
<path opacity="0.05" d="M81.4868 54.0401C81.4868 54.0401 60.2822 67.5855 60.4556 88.7734C60.6291 109.961 81.4868 54.0401 81.4868 54.0401Z" fill="black"/>
<path d="M188.787 15.7843C188.787 15.7843 169.575 14.6284 171.841 28.0803C171.841 28.0803 171.384 30.456 173.547 31.5367C173.547 31.5367 173.582 30.5404 175.517 30.8778C176.206 30.9931 176.907 31.0267 177.604 30.9781C178.547 30.9141 179.443 30.5442 180.155 29.9248C180.155 29.9248 185.556 27.6972 187.658 18.876C187.658 18.876 189.212 16.9517 189.15 16.4592L185.908 17.8409C185.908 17.8409 187.014 20.1778 186.136 22.1204C186.136 22.1204 186.031 17.9275 185.408 18.0164C185.283 18.0369 183.724 18.8258 183.724 18.8258C183.724 18.8258 185.629 22.8979 184.18 25.855C184.18 25.855 184.726 20.839 183.117 19.1199L180.835 20.4514C180.835 20.4514 183.062 24.6557 181.552 28.0871C181.552 28.0871 181.94 22.8249 180.356 20.7752L178.287 22.3871C178.287 22.3871 180.379 26.5321 179.104 29.3776C179.104 29.3776 178.937 23.2513 177.839 22.7884C177.839 22.7884 176.03 24.3844 175.754 25.0388C175.754 25.0388 177.187 28.0461 176.299 29.6329C176.299 29.6329 175.754 25.5518 175.307 25.529C175.307 25.529 173.504 28.233 173.315 30.0889C173.315 30.0889 173.395 27.3301 174.869 25.2713C174.869 25.2713 173.125 25.57 172.11 26.7009C172.11 26.7009 172.391 24.788 175.304 24.6215C175.304 24.6215 176.794 22.5695 177.194 22.4464C177.194 22.4464 174.284 22.2025 172.521 22.9845C172.521 22.9845 174.072 21.181 177.725 21.9995L179.779 20.3352C179.779 20.3352 175.95 19.8108 174.325 20.3899C174.325 20.3899 176.194 18.7939 180.329 19.9567L182.554 18.6274C182.554 18.6274 179.288 17.9252 177.342 18.1714C177.342 18.1714 179.396 17.0657 183.204 18.2649L184.801 17.5513C184.801 17.5513 182.408 17.0816 181.707 17.0087C181.007 16.9357 180.97 16.7396 180.97 16.7396C182.49 16.4927 184.049 16.6735 185.472 17.2617C185.472 17.2617 188.844 15.9963 188.787 15.7843Z" fill="#FFA24D"/>
<path d="M169.082 9.80392C169.082 9.80392 160.411 9.27952 161.424 15.358C161.424 15.358 161.221 16.4318 162.196 16.9197C162.196 16.9197 162.209 16.4637 163.086 16.6233C163.397 16.6745 163.713 16.6898 164.028 16.6689C164.454 16.6386 164.859 16.4714 165.182 16.1924C165.182 16.1924 167.622 15.1847 168.571 11.1993C168.571 11.1993 169.274 10.3306 169.255 10.1072L167.791 10.7319C167.791 10.7319 168.293 11.7875 167.898 12.6653C167.898 12.6653 167.85 10.7706 167.569 10.8162C167.512 10.8162 166.807 11.181 166.807 11.181C166.807 11.181 167.67 13.021 167.019 14.357C167.019 14.357 167.266 12.0907 166.54 11.3133L165.509 11.9152C165.509 11.9152 166.515 13.8167 165.833 15.3671C165.833 15.3671 166.006 12.9891 165.292 12.0634L164.356 12.7907C164.356 12.7907 165.301 14.6626 164.726 15.9485C164.726 15.9485 164.651 13.1806 164.153 12.9708C164.153 12.9708 163.337 13.6913 163.211 13.9877C163.211 13.9877 163.859 15.3557 163.457 16.0648C163.457 16.0648 163.211 14.2202 163.001 14.2134C163.001 14.2134 162.186 15.4332 162.102 16.2654C162.141 15.4909 162.383 14.7403 162.803 14.088C162.333 14.1768 161.9 14.4011 161.557 14.7332C161.557 14.7332 161.682 13.8691 163.003 13.7939C163.003 13.7939 163.676 12.8682 163.857 12.8112C163.857 12.8112 162.542 12.7018 161.746 13.0552C161.746 13.0552 162.447 12.2389 164.099 12.5992L165.011 11.8491C165.011 11.8491 163.282 11.6211 162.547 11.8719C162.547 11.8719 163.391 11.1514 165.26 11.6781L166.264 11.0762C166.264 11.0762 164.79 10.7592 163.909 10.8732C163.909 10.8732 164.838 10.3739 166.558 10.9166L167.277 10.5928C167.277 10.5928 166.196 10.3808 165.881 10.3488C165.566 10.3169 165.545 10.228 165.545 10.228C166.23 10.1141 166.933 10.1931 167.576 10.456C167.576 10.456 169.107 9.89968 169.082 9.80392Z" fill="#FFA24D"/>
<path opacity="0.1" d="M244.855 166.441C248.249 166.441 251 165.977 251 165.404C251 164.831 248.249 164.366 244.855 164.366C241.461 164.366 238.71 164.831 238.71 165.404C238.71 165.977 241.461 166.441 244.855 166.441Z" fill="#FFA24D"/>
<path opacity="0.1" d="M10.6718 183.698C14.0655 183.698 16.8166 183.234 16.8166 182.661C16.8166 182.088 14.0655 181.623 10.6718 181.623C7.27811 181.623 4.52698 182.088 4.52698 182.661C4.52698 183.234 7.27811 183.698 10.6718 183.698Z" fill="#FFA24D"/>
<path opacity="0.1" d="M46.3429 185C49.7366 185 52.4878 184.535 52.4878 183.963C52.4878 183.39 49.7366 182.925 46.3429 182.925C42.9493 182.925 40.1981 183.39 40.1981 183.963C40.1981 184.535 42.9493 185 46.3429 185Z" fill="#FFA24D"/>
<path d="M231.406 178.071C236.474 178.071 240.581 177.377 240.581 176.521C240.581 175.665 236.474 174.97 231.406 174.97C226.339 174.97 222.231 175.665 222.231 176.521C222.231 177.377 226.339 178.071 231.406 178.071Z" fill="#FFA24D"/>
<path d="M235.199 173.988C235.618 173.646 235.923 173.186 236.075 172.668C236.187 172.145 235.963 171.516 235.463 171.325C234.902 171.11 234.302 171.5 233.848 171.892C233.394 172.285 232.871 172.731 232.276 172.649C232.582 172.372 232.811 172.021 232.941 171.628C233.07 171.236 233.096 170.818 233.015 170.413C232.989 170.245 232.918 170.087 232.81 169.957C232.497 169.624 231.934 169.765 231.559 170.027C230.373 170.862 230.042 172.472 230.035 173.922C229.916 173.399 230.017 172.855 230.015 172.326C230.012 171.797 229.864 171.186 229.412 170.905C229.132 170.756 228.817 170.682 228.499 170.691C227.966 170.67 227.372 170.723 227.007 171.113C226.551 171.598 226.672 172.41 227.066 172.937C227.461 173.463 228.059 173.805 228.609 174.172C229.052 174.435 229.429 174.795 229.713 175.223C229.747 175.284 229.774 175.347 229.795 175.413H233.138C233.886 175.033 234.579 174.553 235.199 173.988Z" fill="#FFA24D"/>
<path d="M13.54 154.87C13.54 154.87 14.7927 156.507 12.9605 158.974C11.1282 161.441 9.61767 163.534 10.2223 165.075C10.2223 165.075 12.9856 160.483 15.2422 160.417C17.4989 160.351 16.0135 157.631 13.54 154.87Z" fill="#FFA24D"/>
<path opacity="0.1" d="M13.5401 154.87C13.6489 155.028 13.7349 155.201 13.7956 155.383C15.9907 157.959 17.159 160.365 15.0506 160.424C13.0837 160.481 10.7152 163.992 10.1608 164.879C10.1801 164.948 10.203 165.016 10.2292 165.082C10.2292 165.082 12.9925 160.49 15.2491 160.424C17.5058 160.358 16.0135 157.631 13.5401 154.87Z" fill="black"/>
<path d="M15.8697 156.956C15.8697 157.533 15.8036 158 15.7237 158C15.6438 158 15.58 157.544 15.58 156.956C15.58 156.368 15.6598 156.651 15.742 156.651C15.8241 156.651 15.8697 156.379 15.8697 156.956Z" fill="#FFD037"/>
<path d="M16.6593 157.645C16.1528 157.921 15.7124 158.087 15.6736 158.016C15.6348 157.946 16.0159 157.668 16.5224 157.392C17.029 157.116 16.8282 157.316 16.867 157.392C16.9058 157.467 17.175 157.369 16.6593 157.645Z" fill="#FFD037"/>
<path d="M6.91846 154.87C6.91846 154.87 5.66576 156.507 7.49575 158.974C9.32573 161.441 10.8386 163.534 10.2339 165.075C10.2339 165.075 7.46837 160.483 5.21397 160.417C2.95958 160.351 4.44273 157.631 6.91846 154.87Z" fill="#FFA24D"/>
<path opacity="0.1" d="M6.91835 154.87C6.80857 155.028 6.72247 155.2 6.66279 155.383C4.46772 157.959 3.29717 160.365 5.40781 160.424C7.37242 160.481 9.74319 163.992 10.2954 164.879C10.2768 164.948 10.2547 165.016 10.2292 165.082C10.2292 165.082 7.46369 160.49 5.2093 160.424C2.9549 160.358 4.44262 157.631 6.91835 154.87Z" fill="black"/>
<path d="M4.58862 156.956C4.58862 157.533 4.65251 158 4.73238 158C4.81224 158 4.87613 157.544 4.87613 156.956C4.87613 156.368 4.79627 156.651 4.7164 156.651C4.63654 156.651 4.58862 156.379 4.58862 156.956Z" fill="#FFD037"/>
<path d="M3.78775 157.645C4.29431 157.921 4.73697 158.087 4.77576 158.016C4.81455 157.946 4.43349 157.668 3.92694 157.392C3.42039 157.116 3.6189 157.316 3.58239 157.392C3.54588 157.467 3.2812 157.369 3.78775 157.645Z" fill="#FFD037"/>
<path d="M4.98792 164.868C4.98792 164.868 8.49272 164.761 9.55147 164.008C10.6102 163.256 14.9433 162.36 15.2057 163.552C15.4681 164.745 20.4721 169.549 16.5155 169.581C12.5589 169.612 7.32217 168.963 6.26799 168.322C5.21381 167.681 4.98792 164.868 4.98792 164.868Z" fill="#A8A8A8"/>
<path opacity="0.2" d="M16.5816 169.172C12.625 169.204 7.38834 168.554 6.33416 167.914C5.53098 167.426 5.21153 165.673 5.10429 164.863H4.98792C4.98792 164.863 5.21609 167.688 6.26343 168.329C7.31076 168.969 12.5543 169.619 16.5109 169.587C17.6518 169.587 18.0465 169.17 18.026 168.57C17.8663 168.938 17.4327 169.166 16.5816 169.172Z" fill="black"/>
<path d="M93.3954 94.4688C94.7348 94.3935 101.039 93.9193 105.044 91.637C105.687 91.259 106.413 91.0452 107.159 91.0146C108.432 90.9781 109.897 91.5094 108.959 94.4825C107.44 99.3457 98.6161 104.818 93.1398 104.514C87.8735 104.223 81.626 102.102 77.5005 94.6466C77.1053 93.9293 76.9106 93.1189 76.9369 92.3005C76.9848 90.7957 77.5325 88.9102 80.3596 91.0123C84.1793 93.8509 91.4262 94.389 92.8797 94.4688C93.0515 94.478 93.2236 94.478 93.3954 94.4688Z" fill="#444053"/>
<path d="M144.051 94.4688C145.39 94.3935 151.695 93.9193 155.699 91.637C156.342 91.259 157.069 91.0452 157.814 91.0146C159.088 90.9781 160.553 91.5094 159.615 94.4825C158.095 99.3457 149.272 104.818 143.795 104.514C138.529 104.223 132.281 102.102 128.156 94.6466C127.761 93.9293 127.566 93.1189 127.592 92.3005C127.64 90.7957 128.188 88.9102 131.015 91.0123C134.835 93.8509 142.082 94.389 143.535 94.4688C143.707 94.478 143.879 94.478 144.051 94.4688Z" fill="#444053"/>
</g>
<defs>
<linearGradient id="paint0_linear" x1="203.566" y1="172.82" x2="203.566" y2="60.1801" gradientUnits="userSpaceOnUse">
<stop stop-color="#808080" stop-opacity="0.25"/>
<stop offset="0.54" stop-color="#808080" stop-opacity="0.12"/>
<stop offset="1" stop-color="#808080" stop-opacity="0.1"/>
</linearGradient>
<clipPath id="clip0">
<rect width="251" height="185" fill="white"/>
</clipPath>
</defs>
</svg>
