<?xml version="1.0" encoding="utf-8"?>
<!-- Generator: Adobe Illustrator 24.1.0, SVG Export Plug-In . SVG Version: 6.00 Build 0)  -->
<!DOCTYPE svg PUBLIC "-//W3C//DTD SVG 1.1//EN" "http://www.w3.org/Graphics/SVG/1.1/DTD/svg11.dtd" [
	<!ENTITY ns_extend "http://ns.adobe.com/Extensibility/1.0/">
	<!ENTITY ns_ai "http://ns.adobe.com/AdobeIllustrator/10.0/">
	<!ENTITY ns_graphs "http://ns.adobe.com/Graphs/1.0/">
	<!ENTITY ns_vars "http://ns.adobe.com/Variables/1.0/">
	<!ENTITY ns_imrep "http://ns.adobe.com/ImageReplacement/1.0/">
	<!ENTITY ns_sfw "http://ns.adobe.com/SaveForWeb/1.0/">
	<!ENTITY ns_custom "http://ns.adobe.com/GenericCustomNamespace/1.0/">
	<!ENTITY ns_adobe_xpath "http://ns.adobe.com/XPath/1.0/">
]>
<svg version="1.1" xmlns:x="&ns_extend;" xmlns:i="&ns_ai;" xmlns:graph="&ns_graphs;"
	 xmlns="http://www.w3.org/2000/svg" xmlns:xlink="http://www.w3.org/1999/xlink" x="0px" y="0px" viewBox="0 0 1000 425"
	 enable-background="new 0 0 1000 425" xml:space="preserve">
<metadata>
	<sfw  xmlns="&ns_sfw;">
		<slices></slices>
		<sliceSourceBounds  bottomLeftOrigin="true" height="6523.869" width="4902.606" x="-1952.465" y="2146.647"></sliceSourceBounds>
	</sfw>
</metadata>
<g id="FILL-BACKGROUND">
</g>
<g id="N-TEXT">
</g>
<g id="AG-GUIDE" display="none">
	<g id="POLYLINE_1439_" display="inline">
		<g>
			<g>
				
					<line fill="none" stroke="#FF6B6B" stroke-width="2.25" stroke-linecap="round" stroke-linejoin="round" x1="62.963" y1="61.153" x2="64.963" y2="61.153"/>
				
					<line fill="none" stroke="#FF6B6B" stroke-width="2.25" stroke-linecap="round" stroke-linejoin="round" stroke-dasharray="5.0049,8.7586" x1="73.722" y1="61.153" x2="83.106" y2="61.153"/>
				
					<line fill="none" stroke="#FF6B6B" stroke-width="2.25" stroke-linecap="round" stroke-linejoin="round" x1="87.485" y1="61.153" x2="89.485" y2="61.153"/>
			</g>
		</g>
	</g>
</g>
<g id="N-DIMENSIONS">
</g>
<g id="AG-DIAGRAM">
	<g id="POLYLINE_1438_">
		<g>
			<g>
				
					<line fill="none" stroke="#FF6B6B" stroke-width="3.25" stroke-linecap="round" stroke-linejoin="round" x1="62.963" y1="366.159" x2="64.963" y2="366.159"/>
				
					<line fill="none" stroke="#FF6B6B" stroke-width="3.25" stroke-linecap="round" stroke-linejoin="round" stroke-dasharray="3.9763,6.9586" x1="71.922" y1="366.159" x2="954.168" y2="366.159"/>
				
					<line fill="none" stroke="#FF6B6B" stroke-width="3.25" stroke-linecap="round" stroke-linejoin="round" x1="957.647" y1="366.159" x2="959.647" y2="366.159"/>
			</g>
		</g>
	</g>
</g>
<g id="AG-DETAIL-DIAGRAM">
</g>
<g id="AG-PEOPLE">
	<g id="POLYLINE_1431_">
		
			<path fill="none" stroke="#FF6B6B" stroke-width="2.25" stroke-linecap="round" stroke-linejoin="round" stroke-miterlimit="10" d="
			M311.765,350.889c-1.094,3.587-2.071,7.387-1.638,11.163c0.109,0.794,0.212,1.614,0.528,2.356c0.162,0.371,0.413,0.71,0.751,0.937
			c0.308,0.211,0.667,0.339,1.026,0.432c1.363,0.326,2.859,0.319,4.255,0.362c11.262-0.037,29.882,0.136,40.948-0.124
			c1.633-0.062,3.594-0.111,5.207-0.284c1.067-0.122,2.169-0.257,3.157-0.703c0.406-0.188,0.784-0.45,1.072-0.794
			c0.32-0.379,0.533-0.838,0.679-1.31c0.39-1.315,0.357-2.722,0.2-4.072c-0.214-1.669-0.653-3.342-1.488-4.813
			c-0.368-0.632-0.825-1.245-1.464-1.621c-0.418-0.249-0.894-0.39-1.37-0.475c-1.91-0.326-6.361-0.11-8.34-0.149
			c-1.732-0.008-3.489-0.17-5.153-0.67c-2.166-0.635-4.161-1.777-5.94-3.152"/>
	</g>
	<g id="POLYLINE_1432_">
		
			<path fill="none" stroke="#FF6B6B" stroke-width="2.25" stroke-linecap="round" stroke-linejoin="round" stroke-miterlimit="10" d="
			M294.251,202.647c0.241,1.41,0.614,2.96,0.582,4.394c-0.005,1.087-0.241,2.164-0.536,3.205c-0.442,1.571-1.147,3.608-1.338,5.214
			c-0.098,0.786-0.113,1.597,0.068,2.372c0.351,1.483,1.418,2.691,2.624,3.571c0.833,0.592,1.795,1.124,2.813,1.294
			c0.585,0.1,1.198-0.002,1.779-0.091"/>
	</g>
	<g id="POLYLINE_1433_">
		
			<path fill="none" stroke="#FF6B6B" stroke-width="2.25" stroke-linecap="round" stroke-linejoin="round" stroke-miterlimit="10" d="
			M310.036,206.365c-0.345,3.544-0.713,7.353-0.618,10.895c0.088,4.305,0.66,8.755,1.282,13.015
			c1.383,9.095,3.4,19.078,5.396,28.064c0.261,1.12,1.015,4.363,1.292,5.429c0.187,0.738,0.84,3.094,0.974,3.815
			c0.178,0.871,0.233,1.772,0.124,2.656c-0.296,2.259-1.285,4.937-1.799,7.156c-0.542,2.139-0.77,4.373-0.851,6.574
			c-0.092,3.234-0.114,7.819-0.602,10.964c-0.645,4.889-2.227,11.213-3.109,16.089c-0.571,3.173-0.948,6.443-0.944,9.67
			c0.002,3.67,0.422,9.464,0.28,13.112c-0.049,3.036-0.729,7.467-1.112,10.506c-0.143,1.326-0.294,2.705-0.179,4.037
			c0.053,0.547,0.157,1.105,0.419,1.594c0.165,0.307,0.404,0.578,0.707,0.754c0.322,0.19,0.698,0.269,1.068,0.279
			c0.395,0.011,0.792-0.048,1.178-0.127c1.413-0.285,4.175-1.353,5.571-1.81c1.969-0.654,4.008-1.206,6.07-1.462
			c1.66-0.214,3.359-0.202,5.025-0.074c2.764,0.198,6.143,0.844,8.903,1.198c0.781,0.092,1.605,0.172,2.391,0.168
			c0.743-0.013,1.53-0.065,2.187-0.445l0.03-0.018l0.029-0.019l0.029-0.019c0.901-0.611,0.972-1.817,0.956-2.81
			c-0.024-1.054-0.259-2.673-0.386-3.745c-0.141-1.167-0.227-2.393-0.227-3.568c-0.006-3.086,0.465-6.18,1.21-9.17
			c1.322-5.541,4.658-12.898,6.799-18.238c2.006-4.964,3.794-10.156,5.099-15.35c2.222-8.846,3.742-18.046,4.319-27.151
			c0.327-4.554-0.007-10.242,0-14.814c0.03-10.323,3.061-21.266,4.872-31.385c0.273-1.719,0.422-3.487,0.383-5.229
			c-0.033-2.064-0.341-4.161-0.68-6.193l-1.498-8.303c-0.486-3.001-0.915-6.088-0.787-9.132c0.063-1.443,0.293-2.896,0.623-4.301
			c0.627-2.722,1.757-5.548,2.122-8.325c0.255-1.929,0.103-3.905-0.132-5.829l-0.604-4.392c-0.124-1.008-0.217-2.052-0.208-3.068
			c0.006-1.134,0.129-2.286,0.316-3.404c0.144-0.901,0.501-2.531,0.692-3.442c0.687-3.207,1.586-7.742,2.538-10.844"/>
	</g>
	<g id="POLYLINE_1434_">
		
			<path fill="none" stroke="#FF6B6B" stroke-width="2.25" stroke-linecap="round" stroke-linejoin="round" stroke-miterlimit="10" d="
			M301.869,133.191c-0.149,3.052-0.267,6.868-0.805,9.849c-0.396,2.413-1.122,4.805-2.002,7.084l-2.126,5.397
			c-1.174,3.096-2.24,6.332-2.337,9.668c-0.129,5.063,1.684,9.987,4.148,14.342c0.837,1.487,2.258,3.591,3.054,5.097
			c0.444,0.844,0.83,1.737,1.03,2.673c0.287,1.343,0.183,2.739,0.003,4.089c-0.123,0.907-0.335,2.138-0.401,2.991
			c-0.079,0.841-0.136,2.658-0.204,3.513c-0.213,2.735-1.036,9.145-1.273,11.9c-0.415,4.606-0.69,9.671-0.736,14.291
			c-0.031,3.305,0.044,6.803,0.284,10.099c0.155,2.498,0.888,8.722,1.17,11.308c0.37,3.364,0.66,6.975,0.719,10.354
			c0.106,4.317,0,11.052,0.616,15.269c0.245,1.836,0.682,3.662,1.354,5.39c0.934,2.448,2.392,5.109,3.114,7.632
			c1.375,4.833,1.031,10.4,1.051,15.387c-0.012,2.087,0.198,4.316,0.466,6.389c0.57,4.496,1.239,9.423,2.196,13.843"/>
	</g>
	<g id="POLYLINE_1435_">
		
			<path fill="none" stroke="#FF6B6B" stroke-width="2.25" stroke-linecap="round" stroke-linejoin="round" stroke-miterlimit="10" d="
			M419.21,154.592c0.985,0.012,4.185,0.093,5.22,0.118c0.465,0.009,2.391-0.003,2.893-0.005c2.001-0.009,4,0.325,5.929,0.839
			c3.453,0.881,7.012,2.367,10.271,3.821c1.982,0.812,4.265,1.674,6.376,0.84c0.872-0.345,1.645-0.91,2.321-1.553
			c0.873-0.838,1.607-1.821,2.203-2.872c0.448-0.803,0.843-1.655,1.035-2.558c0.127-0.607,0.143-1.252-0.05-1.847
			c-0.274-0.872-0.981-1.513-1.705-2.027c-1.473-1.034-3.595-1.961-5.152-2.867c-2.056-1.157-4.362-2.749-6.694-3.244
			c-1.329-0.289-2.711-0.191-4.044,0.014c-1.419,0.213-3.05,0.644-4.488,0.686c-0.572,0.019-1.155-0.014-1.723-0.076
			c-1.328-0.152-4.064-0.649-5.398-0.866c-1.026-0.155-2.134-0.319-3.169-0.343c-0.862-0.027-1.807,0.069-2.667,0.154"/>
	</g>
	<g id="POLYLINE_1436_">
		
			<path fill="none" stroke="#FF6B6B" stroke-width="2.25" stroke-linecap="round" stroke-linejoin="round" stroke-miterlimit="10" d="
			M346.294,124.181c1.724,4.782,4.222,9.328,7.55,13.185c3.703,4.274,8.323,7.693,13.004,10.821
			c4.248,2.749,8.727,5.376,13.634,6.734c3.527,0.977,7.334,1.234,10.978,1.468c7.021,0.382,14.857,0.516,21.892,0.35
			c1.217-0.057,2.482-0.124,3.674-0.391c0.646-0.156,1.356-0.365,1.817-0.867c0.24-0.266,0.352-0.624,0.376-0.977
			c0.049-0.631-0.118-1.46-0.195-2.092c-0.215-1.723-0.044-3.48,0.32-5.171c0.251-1.254,0.808-2.717,0.998-3.981
			c0.034-0.299,0.062-0.64-0.079-0.914c-0.182-0.322-0.566-0.371-0.897-0.411c-0.638-0.048-1.364-0.061-1.996-0.145
			c-2.019-0.251-4.037-0.772-5.974-1.389c-2.879-0.906-6.114-2.478-8.957-3.5c-1.057-0.387-2.42-0.687-3.507-1
			c-0.526-0.158-1.048-0.354-1.529-0.619c-0.714-0.388-1.638-1.128-2.302-1.617c-0.59-0.434-1.213-0.851-1.864-1.186
			c-0.605-0.315-1.261-0.563-1.908-0.779c-1.043-0.351-2.633-0.761-3.665-1.131c-0.524-0.189-1.051-0.402-1.52-0.706
			c-0.473-0.302-0.854-0.731-1.14-1.212c-0.315-0.519-0.642-1.276-0.94-1.806c-0.371-0.669-0.815-1.316-1.286-1.918
			c-0.927-1.18-2.005-2.255-3.181-3.186c-0.966-0.767-2.041-1.434-3.113-2.042c-2.045-1.187-4.78-2.361-6.352-4.033
			c-0.705-0.72-1.422-1.651-2.1-2.397c-0.809-0.898-1.712-1.78-2.629-2.567c-1.085-0.93-2.255-1.785-3.476-2.528
			c-1.532-0.956-3.908-2.094-5.435-3.058c-0.321-0.218-0.668-0.44-0.879-0.773c-0.11-0.179-0.142-0.364-0.156-0.565
			c-0.015-1.162,0.153-2.366,0.288-3.519c0.308-2.328,0.752-4.692,1.393-6.952c0.855-2.962,2.107-6.57,2.292-9.641
			c0.264-3.813-0.515-7.663-1.985-11.177c-1.519-3.602-3.819-6.895-6.738-9.501c-1.832-1.616-3.953-2.993-6.327-3.643
			c-1.537-0.422-3.17-0.467-4.733-0.166c-1.928,0.367-3.744,1.227-5.345,2.351c-3.771,2.671-6.419,6.684-8.134,10.925
			c-1.349,3.315-1.958,6.862-2.061,10.428c-0.117,3.912,0.118,8.547-0.398,12.423c-0.158,1.188-0.386,2.392-0.771,3.528
			c-0.455,1.37-1.228,2.644-2.307,3.611c-1.952,1.799-5.501,3.063-7.857,4.225c-1.941,0.934-3.855,2.01-5.57,3.317
			c-2.649,2.026-4.966,4.509-6.943,7.189c-1.357,1.879-2.619,3.887-3.401,6.079c-0.488,1.337-0.666,2.919-0.857,4.328
			c-0.144,1.033-0.419,2.051-0.865,2.995c-1.106,2.395-3.511,5.696-4.883,7.983c-2.326,3.812-4.366,7.918-6.041,12.057
			c-1.514,3.813-2.834,7.789-3.195,11.896c-0.23,2.213-0.102,4.894-0.099,7.13c-0.042,2.063-0.239,4.428-0.083,6.481
			c0.173,2.78,0.603,5.699,1.042,8.451c0.539,3.255,1.203,6.69,1.985,9.896c0.374,1.478,0.764,3.013,1.318,4.435
			c0.283,0.705,0.635,1.405,1.173,1.95c0.437,0.449,0.991,0.769,1.566,1.007c0.69,0.286,1.422,0.479,2.156,0.616
			c2.085,0.369,4.281,0.36,6.313-0.274c2.358-0.746,4.296-2.421,5.838-4.31"/>
	</g>
	<g id="POLYLINE_1437_">
		
			<path fill="none" stroke="#FF6B6B" stroke-width="2.25" stroke-linecap="round" stroke-linejoin="round" stroke-miterlimit="10" d="
			M357.211,71.949c1.478,1.075,2.845,2.36,3.801,3.93c0.838,1.361,1.335,2.914,1.592,4.486c0.485,3.106,0.327,6.308,0.027,9.426
			c-0.602,5.651-1.904,11.269-3.924,16.582"/>
	</g>
	<g id="POLYLINE_1441_">
		
			<path fill="none" stroke="#FF6B6B" stroke-width="2.25" stroke-linecap="round" stroke-linejoin="round" stroke-miterlimit="10" d="
			M119.293,328.58c-2.048,1.017-4.196,2.064-6.086,3.352c-1.265,0.86-2.429,1.925-3.127,3.306c-0.453,0.872-0.781,1.824-1.056,2.766
			c-0.441,1.534-0.739,3.144-0.948,4.727c-0.271,2.13-0.404,4.32-0.264,6.464c0.126,2.045,0.528,4.136,0.968,6.137
			c0.529,2.319,1.151,4.682,2.319,6.77c0.43,0.754,0.946,1.475,1.592,2.059c0.541,0.489,1.174,0.876,1.853,1.143
			c1.946,0.76,4.203,0.581,6.069-0.326"/>
	</g>
	<g id="POLYLINE_1442_">
		
			<path fill="none" stroke="#FF6B6B" stroke-width="2.25" stroke-linecap="round" stroke-linejoin="round" stroke-miterlimit="10" d="
			M150.905,326.344c4.908-3.906,9.196-8.899,13.338-13.593c2.14-2.507,4.267-5.212,5.169-8.436
			c1.011-3.602,0.246-7.543,1.208-11.151c0.375-1.382,1.129-2.63,1.966-3.779c1.327-1.836,3.039-3.638,3.725-5.841
			c0.494-1.533,0.608-3.176,0.69-4.776c0.054-1.346,0.151-4.007,0.273-5.337c0.126-1.502,0.355-3.168,0.583-4.661l1.802-10.696
			c0.48-3.229,0.946-6.546,0.718-9.813c-0.098-1.521-0.407-3.296-0.618-4.812c-0.097-0.756-0.175-1.531-0.118-2.293
			c0.103-1.652,1.157-3.151,1.82-4.62c0.665-1.414,1.025-2.958,1.201-4.506c0.365-3.308-0.011-6.697-0.974-9.878
			c-1.039-3.44-2.851-7.243-3.894-10.681c-0.657-2.105-1.085-4.301-1.223-6.504c-0.401-6.198,0.819-12.927,1.402-19.092
			c0.647-6.398,0.839-15.65,1.232-22.102c0.288-5.002,1.178-11.845,1.808-16.844"/>
	</g>
	<g id="POLYLINE_1443_">
		
			<path fill="none" stroke="#FF6B6B" stroke-width="2.25" stroke-linecap="round" stroke-linejoin="round" stroke-miterlimit="10" d="
			M145.055,85.704c-0.103,3.267,0.135,6.623,0.524,9.868c0.444,3.668,1.008,7.438,2.104,10.971c0.643,2.026,1.456,4.054,2.777,5.739
			c0.804,1.021,1.799,1.899,2.925,2.549c1.095,0.634,2.312,1.058,3.559,1.268c3.975,0.679,6.812-0.957,9.15-4.083
			c1.381-1.836,2.475-3.901,3.355-6.02c0.761-1.882,1.399-3.856,1.637-5.878c0.112-1.022,0.103-2.079-0.189-3.072
			c-0.212-0.729-0.591-1.41-1.102-1.972c-1.138-1.235-2.738-1.945-4.339-2.366c-2.508-0.643-5.25-0.52-7.607,0.596
			c-1.551,0.714-2.941,1.754-4.175,2.927c-1.453,1.388-2.728,2.98-3.846,4.647c-0.665,0.999-1.293,2.05-1.821,3.128
			c-0.234,0.495-0.479,1.007-0.617,1.539"/>
	</g>
	<g id="POLYLINE_1444_">
		
			<path fill="none" stroke="#FF6B6B" stroke-width="2.25" stroke-linecap="round" stroke-linejoin="round" stroke-miterlimit="10" d="
			M219.529,213.613l0.569-0.641c0.499-0.569,0.959-1.194,1.226-1.907c0.493-1.335,0.444-3.082,0.562-4.491
			c0.062-0.843,0.154-1.71,0.333-2.536c0.141-0.661,0.354-1.325,0.589-1.958c0.74-2.031,1.901-4.088,2.075-6.275
			c0.121-1.605-0.441-3.166-1.054-4.623l-1.43-3.254c-0.342-0.827-0.654-1.686-0.885-2.549c-0.417-1.486-0.76-3.766-1.031-5.313
			c-0.227-1.216-0.466-2.466-0.995-3.591c-0.547-1.197-1.606-2.053-2.371-3.085c-0.341-0.466-0.6-0.995-0.726-1.559
			c-0.235-1.039-0.19-2.128-0.138-3.186c0.147-2.376,0.455-5.031-0.012-7.376c-0.781-4.229-3.332-8.333-5.317-12.103
			c-4.53-8.174-10.344-19.656-15.787-27.154c-1.474-2.017-3.11-3.965-4.993-5.615c-4.701-4.172-11.049-6.099-16.823-8.295
			c-1.059-0.396-2.977-1.257-4.033-1.721"/>
	</g>
	<g id="POLYLINE_1445_">
		
			<path fill="none" stroke="#FF6B6B" stroke-width="2.25" stroke-linecap="round" stroke-linejoin="round" stroke-miterlimit="10" d="
			M208.86,214.589c-0.189-1.293-1.007-2.895-1.498-4.107c-0.507-1.233-0.938-2.534-0.973-3.879c-0.026-1.043,0.16-2.095,0.535-3.069
			c0.273-0.703,0.648-1.374,1.148-1.941c0.529-0.603,1.224-1.088,2.017-1.254c0.839-0.177,1.714-0.008,2.505,0.296
			c1.132,0.441,2.147,1.155,3.041,1.971c1.122,1.036,2.08,2.268,2.763,3.636c1.43,2.855,1.438,6.191,0.859,9.271
			c-0.345,1.809-0.834,3.614-1.51,5.329c-0.525,1.307-1.181,2.586-2.079,3.678c-0.633,0.768-1.399,1.444-2.285,1.904
			c-0.52,0.268-1.089,0.465-1.677,0.499c-0.4,0.023-0.809-0.037-1.175-0.205c-0.339-0.153-0.631-0.398-0.872-0.679
			c-0.505-0.594-0.825-1.325-1.061-2.062c-0.319-1.026-0.476-2.105-0.488-3.178c-0.011-0.796,0.095-1.597,0.262-2.374
			C208.637,217.185,209.057,215.864,208.86,214.589z"/>
	</g>
	<g id="POLYLINE_1446_">
		
			<path fill="none" stroke="#FF6B6B" stroke-width="2.25" stroke-linecap="round" stroke-linejoin="round" stroke-miterlimit="10" d="
			M179.466,160.344c0.786,3.22,1.689,6.518,3.48,9.342c1.021,1.617,2.305,3.435,2.912,5.249c0.997,2.924,1.057,6.325,2.047,9.251
			c0.298,0.89,0.728,1.74,1.275,2.502c0.829,1.187,2.141,2.419,3.148,3.466c1.132,1.155,2.098,2.49,2.971,3.847
			c1.085,1.664,2.337,3.825,3.712,5.249l1.437,1.488c0.516,0.549,1.005,1.139,1.381,1.794c0.439,0.762,0.743,1.612,1.019,2.445
			c0.501,1.538,0.981,3.33,1.756,4.746c1.033,1.913,2.618,3.463,4.256,4.864"/>
	</g>
	<g id="POLYLINE_1447_">
		
			<path fill="none" stroke="#FF6B6B" stroke-width="2.25" stroke-linecap="round" stroke-linejoin="round" stroke-miterlimit="10" d="
			M121.898,357.98c-1.287-1.985-2.365-4.219-2.493-6.616c-0.11-2.008,0.505-4.326,0.885-6.295c0.23-1.181,0.42-2.409,0.458-3.613
			c0.058-1.68-0.126-3.408-0.348-5.073c-0.513-3.517-1.236-7.777-1.398-11.254c-0.219-4.288,0.01-8.743,0.322-13.026
			c0.182-2.594,1.004-10.309,0.997-12.698c-0.003-0.69-0.063-1.385-0.202-2.061c-0.302-1.464-0.98-3.359-1.378-4.811
			c-0.815-2.871-1.422-6.056-1.956-9.002c-2.31-13.866-4.192-28.804-5.163-42.824c-0.286-4.084-0.263-10.684-0.555-14.78
			c-0.195-3.135-1.028-7.99-1.499-11.137c-0.484-3.464-0.915-7.034-0.508-10.526c0.241-2.111,0.934-4.299,1.54-6.333
			c0.337-1.181,0.709-2.417,0.683-3.657c-0.018-0.7-0.217-1.386-0.5-2.023c-0.562-1.231-1.4-2.522-1.816-3.819
			c-0.779-2.286-1.103-4.728-1.364-7.12"/>
	</g>
	<g id="POLYLINE_1448_">
		
			<path fill="none" stroke="#FF6B6B" stroke-width="2.25" stroke-linecap="round" stroke-linejoin="round" stroke-miterlimit="10" d="
			M150.956,232.916c-0.292,3.372-0.516,6.865-0.301,10.245c0.263,4.872,1.92,12.517,2.762,17.387
			c0.723,4.205,1.301,8.59,1.504,12.85c0.121,2.709,0.12,5.486-0.262,8.174c-0.309,2.271-0.95,4.904-0.32,7.154
			c0.349,1.302,1.063,2.688,1.568,3.94c0.246,0.623,0.472,1.269,0.551,1.937c0.041,0.347,0.038,0.704-0.038,1.047
			c-0.086,0.396-0.261,0.768-0.472,1.112c-0.618,0.984-1.513,1.849-2.19,2.79c-0.423,0.578-0.794,1.206-1.041,1.88
			c-0.297,0.809-0.434,1.674-0.496,2.531c-0.275,4.371,1.051,8.847,0.591,13.217c-0.179,2.034-0.872,4.524-1.362,6.514
			c-0.357,1.449-0.624,2.986-0.806,4.467c-0.903,7.622-0.622,18.091-1.859,25.657"/>
	</g>
	<g id="POLYLINE_1449_">
		
			<path fill="none" stroke="#FF6B6B" stroke-width="2.25" stroke-linecap="round" stroke-linejoin="round" stroke-miterlimit="10" d="
			M141.552,366.159c-1.5-0.023-17.471,0.059-18.498-0.063c-0.47-0.037-0.954-0.084-1.404-0.233c-0.29-0.096-0.567-0.25-0.77-0.482
			c-0.301-0.342-0.446-0.793-0.52-1.237c-0.121-0.767-0.05-1.555,0.092-2.314c0.568-2.811,2.109-5.4,4.182-7.365
			c1.739-1.618,3.864-2.787,6.072-3.635c2.633-1.025,5.467-1.461,8.281-1.547c1.445-0.046,2.922-0.019,4.347,0.24
			c0.914,0.169,1.826,0.438,2.635,0.903c1.006,0.577,1.802,1.474,2.367,2.479c0.767,1.375,1.186,2.941,1.278,4.509
			c0.072,1.26-0.115,2.529-0.359,3.763c-0.257,1.232-0.538,2.509-1.206,3.592c-0.173,0.268-0.378,0.521-0.631,0.717
			c-0.229,0.179-0.496,0.304-0.773,0.389c-0.305,0.094-0.627,0.145-0.944,0.181C144.413,366.192,142.854,366.146,141.552,366.159z"
			/>
	</g>
	<g id="POLYLINE_1450_">
		
			<path fill="none" stroke="#FF6B6B" stroke-width="2.25" stroke-linecap="round" stroke-linejoin="round" stroke-miterlimit="10" d="
			M81.63,222.393c-0.621,1.894-1.201,3.854-1.359,5.848c-0.196,2.231,0.09,4.49,0.498,6.682c0.485,2.538,1.178,5.111,2.016,7.556
			c0.348,0.971,0.697,1.997,1.224,2.886c0.399,0.68,0.964,1.282,1.703,1.585c0.617,0.259,1.295,0.341,1.959,0.353
			c1.053,0.012,2.11-0.16,3.125-0.434c1.333-0.374,2.708-0.912,3.638-1.981c0.807-0.913,1.139-2.132,1.28-3.319
			c0.199-1.67,0.114-3.403,0.008-5.079c-0.152-1.883-0.48-5.691-0.56-7.527c-0.086-1.815-0.258-6.158-0.413-7.912"/>
	</g>
	<g id="POLYLINE_1451_">
		
			<path fill="none" stroke="#FF6B6B" stroke-width="2.25" stroke-linecap="round" stroke-linejoin="round" stroke-miterlimit="10" d="
			M145.055,85.704c6.959-0.672,16.716-2.054,23.682-3.112c0.438-0.081,0.886-0.173,1.294-0.355c0.297-0.13,0.569-0.332,0.733-0.616
			c0.177-0.297,0.251-0.644,0.298-0.983c0.083-0.652,0.063-1.321-0.01-1.973c-0.08-0.663-0.215-1.332-0.493-1.943
			c-0.263-0.589-0.682-1.099-1.114-1.572"/>
	</g>
	<g id="POLYLINE_1452_">
		
			<path fill="none" stroke="#FF6B6B" stroke-width="2.25" stroke-linecap="round" stroke-linejoin="round" stroke-miterlimit="10" d="
			M170.642,96.362l0.063-1.8c0.072-3.542-0.418-8.759-0.645-12.339"/>
	</g>
	<g id="POLYLINE_1453_">
		
			<path fill="none" stroke="#FF6B6B" stroke-width="2.25" stroke-linecap="round" stroke-linejoin="round" stroke-miterlimit="10" d="
			M117.384,146.573c-1.483,3.302-2.887,6.994-4.116,10.404c-1.141,3.218-2.303,6.588-3.059,9.916
			c-0.229,1.029-0.414,2.097-0.491,3.149c-0.095,1.182-0.065,2.627-0.169,3.808c-0.161,1.936-0.759,3.843-1.348,5.686
			c-1.057,3.126-3.189,9.153-4.018,12.259c-1.147,4.074-2.199,8.618-3.062,12.765l-2.3,12.141c-0.195,0.927-0.407,1.879-0.848,2.725
			c-0.24,0.455-0.571,0.88-1.024,1.138c-0.275,0.16-0.581,0.263-0.89,0.332c-0.944,0.207-2.273,0.179-3.244,0.23
			c-2.898,0.131-6.38,0.981-9.271,1.199c-1.159,0.091-2.344,0.117-3.496-0.06c-1.318-0.213-2.666-0.661-3.657-1.587
			c-0.378-0.362-0.688-0.816-0.803-1.332c-0.146-0.654-0.012-1.331,0.134-1.974c0.277-1.102,0.594-2.298,0.638-3.434
			c0.156-2.386-0.47-7.278-0.647-9.709c-0.419-5.694-0.185-11.468,0.394-17.142c0.653-6.175,1.758-12.371,3.537-18.325
			c1.372-4.597,3.205-9.167,5.233-13.515c2.24-5.025,13.484-25.546,16.266-30.818c1.151-2.126,2.374-4.302,3.783-6.267
			c0.861-1.194,1.811-2.346,2.906-3.333c1.486-1.35,3.245-2.379,5.058-3.224c1.558-0.745,6.172-2.579,7.845-3.278
			c2.084-0.826,4.281-1.656,6.445-2.234c1.083-0.293,2.526-0.554,3.611-0.844c0.351-0.098,0.708-0.209,1.04-0.359
			c0.351-0.158,0.692-0.366,0.942-0.663c0.251-0.296,0.398-0.669,0.469-1.048c0.114-0.615,0.065-1.251-0.015-1.867
			c-0.198-1.436-0.733-3.42-0.991-4.849c-0.293-1.537-0.466-3.118-0.455-4.684c0.021-3.199,0.577-6.402,1.448-9.475
			c1.063-3.692,2.641-7.29,4.935-10.388c1.37-1.846,3.011-3.512,4.914-4.809c1.906-1.303,4.083-2.226,6.36-2.624
			c3.65-0.664,7.422,0.133,10.77,1.634c2.5,1.136,4.895,2.651,6.71,4.737c1.094,1.263,1.916,2.749,2.529,4.298"/>
	</g>
	<g id="POLYLINE_1454_">
		
			<path fill="none" stroke="#FF6B6B" stroke-width="2.25" stroke-linecap="round" stroke-linejoin="round" stroke-miterlimit="10" d="
			M140.543,80.481c-0.249,0.605-0.316,1.274-0.375,1.921c-0.211,3.395,0.194,6.95,0.5,10.336c0.719,6.454,1.384,13.362,3.028,19.637
			c0.695,2.508,1.514,5.11,3.054,7.239c0.596,0.808,1.33,1.53,2.2,2.038c0.87,0.511,1.857,0.797,2.849,0.95
			c1.026,0.159,2.086,0.189,3.123,0.175c4.52-0.119,9.424-0.744,13.92-1.314c2.003-0.319,4.933-0.599,6.863-1.177
			c0.352-0.115,0.706-0.252,1.014-0.463c0.244-0.165,0.45-0.396,0.547-0.677c0.073-0.202,0.098-0.42,0.104-0.633
			c0.007-0.239-0.013-0.488-0.035-0.726c-0.274-2.385-1.307-12.901-1.565-15.489c-0.635-5.297-2.204-18.554-2.716-23.675
			c-0.074-0.597-0.154-1.232-0.289-1.817c-0.111-0.446-0.235-0.95-0.59-1.268c-0.265-0.229-0.622-0.306-0.96-0.356
			c-0.333-0.046-0.68-0.054-1.017-0.053c-1.366,0.013-3.155,0.211-4.528,0.333c-5.843,0.615-11.987,1.34-17.754,2.458
			c-2.042,0.387-4.192,1.067-6.197,1.614c-0.258,0.07-0.535,0.172-0.74,0.342C140.777,80.041,140.646,80.246,140.543,80.481z"/>
	</g>
	<g id="POLYLINE_1455_">
		
			<path fill="none" stroke="#FF6B6B" stroke-width="2.25" stroke-linecap="round" stroke-linejoin="round" stroke-miterlimit="10" d="
			M539.039,200.945c-0.546,0.577-1.126,1.166-1.843,1.524c-0.61,0.315-1.28,0.502-1.951,0.636c-0.858,0.166-1.74,0.238-2.613,0.214
			c-1.094-0.036-2.211-0.212-3.199-0.703c-1.584-0.79-2.694-2.329-4.13-3.327c-0.755-0.54-1.622-0.91-2.503-1.193
			c-1.742-0.559-4.176-0.97-5.957-1.416c-2.522-0.595-4.936-1.626-7.032-3.161c-2.154-1.564-4.039-3.643-4.907-6.196
			c-0.607-1.731-0.771-3.588-0.809-5.411c-0.033-1.939,0.02-4.256-0.489-6.133c-0.378-1.424-1.249-2.883-1.934-4.181
			c-0.554-1.045-1.057-2.146-1.368-3.29c-0.652-2.377-0.778-4.891-0.865-7.344c-0.05-3.682-0.21-12.977-0.277-16.764
			c0.002-3.863,0.053-7.897,0.543-11.722c0.342-2.681,0.913-5.37,1.944-7.876c0.63-1.537,1.44-3.013,2.414-4.359
			c0.918-1.273,1.998-2.438,3.145-3.508c2.178-2.029,4.664-3.81,7.137-5.463c1.633-1.08,6.154-3.932,7.621-5.072
			c1.41-1.06,2.719-2.288,3.82-3.668c1.718-2.156,3.072-4.64,4.353-7.073c0.574-1.094,2.488-4.965,3.069-6.136
			c0.384-0.798,1.273-2.407,1.614-3.207c0.562-1.226,0.924-2.625,0.584-3.963c-0.243-0.917-0.763-1.782-1.057-2.682
			c-0.666-1.957-0.726-4.124-0.631-6.173c0.061-1.035,0.188-2.091,0.423-3.101c0.159-0.672,0.365-1.346,0.676-1.964
			c0.336-0.682,0.854-1.271,1.488-1.691c0.603-0.417,1.367-0.723,2.024-1.033c0.58-0.265,1.174-0.584,1.724-0.907
			c0,0,2.402-1.447,2.402-1.447c1.164-0.681,2.381-1.315,3.675-1.706c2.216-0.677,4.598-0.759,6.901-0.805
			c4.351-0.04,9.189-0.369,12.957,2.192c2.183,1.446,3.893,3.537,5.084,5.855c1.572,3.082,2.274,6.562,2.921,9.936"/>
	</g>
	<g id="POLYLINE_1456_">
		
			<path fill="none" stroke="#FF6B6B" stroke-width="2.25" stroke-linecap="round" stroke-linejoin="round" stroke-miterlimit="10" d="
			M573.996,78.626c0.156,0.961,0.323,2.17-0.483,2.893c-0.411,0.368-0.938,0.575-1.457,0.742c-1.915,0.561-6.426,1.228-8.45,1.63
			c-2.432,0.412-5.047,0.814-7.503,1.023c-2.467,0.217-5.083,0.276-7.56,0.267"/>
	</g>
	<g id="POLYLINE_1457_">
		
			<path fill="none" stroke="#FF6B6B" stroke-width="2.25" stroke-linecap="round" stroke-linejoin="round" stroke-miterlimit="10" d="
			M574.238,90.416c-0.659,0.537-1.51,0.757-2.319,0.96c-1.22,0.298-2.763,0.581-3.924,1.033c-0.939,0.346-1.845,0.806-2.704,1.318
			c-1.589,0.954-3.08,2.112-4.417,3.394c-0.845,0.828-1.673,1.711-2.286,2.728c-0.346,0.575-0.57,1.233-0.565,1.91
			c-0.005,0.425,0.06,0.87,0.12,1.291c0.23,1.405,0.535,3.159,0.553,4.572c0.029,1.019-0.147,2.122-0.245,3.135
			c-0.03,0.369-0.053,0.749-0.003,1.117c0.036,0.278,0.136,0.579,0.34,0.771c0.204,0.194,0.457,0.277,0.722,0.329
			c0.319,0.058,0.649,0.058,0.972,0.04c1.486-0.114,3.012-0.538,4.458-0.89c1.708-0.457,3.456-1.059,4.793-2.258
			c1.103-0.986,1.791-2.348,2.262-3.731c0.646-1.949,0.938-4.016,1.025-6.064c0.014-0.677,0.01-1.373-0.162-2.032
			c-0.089-0.331-0.247-0.695-0.551-0.873c-0.218-0.126-0.462-0.141-0.705-0.123c-0.406,0.036-0.805,0.161-1.192,0.283
			c-2.729,0.978-6.436,2.042-9.118,3.116c-0.521,0.217-1.059,0.453-1.544,0.74c-0.267,0.16-0.523,0.344-0.75,0.558
			c-0.314,0.29-0.612,0.703-0.897,1.02"/>
	</g>
	<g id="POLYLINE_1458_">
		
			<path fill="none" stroke="#FF6B6B" stroke-width="2.25" stroke-linecap="round" stroke-linejoin="round" stroke-miterlimit="10" d="
			M573.996,78.626c1.384-0.235,2.819,0.056,4.11,0.57c0.499,0.205,0.988,0.455,1.428,0.77c0.295,0.214,0.576,0.46,0.78,0.764
			c0.187,0.275,0.294,0.623,0.212,0.953c-0.061,0.263-0.222,0.492-0.407,0.684c-0.359,0.366-0.806,0.638-1.256,0.878
			c-1.492,0.766-3.135,1.232-4.761,1.618c-4.021,0.943-8.214,1.063-12.327,0.933c-4.043-0.208-12.056-0.437-15.969-0.841
			c-1.674-0.172-3.398-0.407-5.033-0.804c-1.528-0.347-3.219-1.037-4.722-1.484c-0.185-0.045-0.385-0.096-0.575-0.079
			c-0.027,0.003-0.048,0.008-0.065,0.012c-0.012,0.003-0.016,0.005-0.016,0.005c-0.012,0.004-0.015,0.005-0.015,0.005
			c-0.011,0.004-0.015,0.006-0.015,0.006c-0.011,0.005-0.014,0.006-0.014,0.006c-0.01,0.005-0.014,0.007-0.014,0.007
			c-0.01,0.006-0.013,0.008-0.013,0.008c-0.01,0.006-0.013,0.008-0.013,0.008c-0.009,0.007-0.012,0.009-0.012,0.009
			c-0.012,0.01-0.015,0.012-0.015,0.012c-0.011,0.01-0.014,0.013-0.014,0.013c-0.011,0.011-0.013,0.014-0.013,0.014
			c-0.01,0.012-0.013,0.015-0.013,0.015c-0.008,0.01-0.01,0.013-0.01,0.013c-0.109,0.155-0.149,0.327-0.21,0.5
			c-0.095,0.303-0.171,0.621-0.231,0.933c-0.099,0.551-0.178,1.126-0.069,1.682c0.058,0.29,0.187,0.568,0.382,0.791
			c0.24,0.278,0.559,0.476,0.887,0.636c0.598,0.286,1.257,0.469,1.897,0.637c4.881,1.16,10.179,1.964,15.159,2.593
			c4.547,0.542,9.24,0.911,13.821,0.76c2.423-0.085,4.877-0.304,7.251-0.812c1.598-0.354,3.207-0.825,4.639-1.634
			c0.603-0.352,1.198-0.772,1.586-1.363c0.302-0.461,0.412-1.016,0.451-1.558c0.107-1.527-0.047-3.075-0.252-4.588"/>
	</g>
	<g id="POLYLINE_1459_">
		
			<path fill="none" stroke="#FF6B6B" stroke-width="2.25" stroke-linecap="round" stroke-linejoin="round" stroke-miterlimit="10" d="
			M580.212,87.631c0.664,6.326,0.161,12.79-0.591,19.088c-0.346,2.745-0.609,5.627-1.675,8.202c-0.5,1.193-1.241,2.302-2.254,3.118
			c-1.981,1.603-4.563,2.238-7.056,2.467c-1.621,0.126-3.324,0.138-4.857-0.47c-0.518-0.213-1.007-0.519-1.38-0.941
			c-0.328-0.368-0.55-0.821-0.691-1.291c-0.171-0.572-0.236-1.175-0.258-1.769c-0.087-1.956,0.424-4.996,0.616-6.965
			c0.218-2.026,0.35-4.416,0.433-6.46l0.261-11.35"/>
	</g>
	<g id="POLYLINE_1460_">
		
			<path fill="none" stroke="#FF6B6B" stroke-width="2.25" stroke-linecap="round" stroke-linejoin="round" stroke-miterlimit="10" d="
			M507.957,349.784c0.918,0.939,1.952,1.777,3.053,2.492c1.34,0.889,3.032,1.659,4.493,2.345c0.855,0.426,1.755,0.913,2.281,1.741
			c0.316,0.5,0.449,1.089,0.551,1.664c0.228,1.359,0.285,2.758,0.121,4.127c-0.094,0.727-0.26,1.464-0.631,2.104
			c-0.233,0.404-0.555,0.758-0.943,1.018c-0.599,0.406-1.32,0.582-2.026,0.69c-0.663,0.1-1.368,0.138-2.038,0.163
			c-3.996,0.055-28.673,0.031-32.195,0.009c-1.57-0.048-3.225-0.044-4.763-0.383c-0.405-0.1-0.808-0.241-1.158-0.473
			c-0.485-0.312-0.82-0.816-0.985-1.363c-0.249-0.817-0.18-1.693-0.077-2.529c0.41-2.791,1.323-5.586,2.155-8.277"/>
	</g>
	<g id="POLYLINE_1461_">
		
			<path fill="none" stroke="#FF6B6B" stroke-width="2.25" stroke-linecap="round" stroke-linejoin="round" stroke-miterlimit="10" d="
			M564.644,348.626c1.555,1.231,3.412,2.028,5.262,2.705c1.326,0.479,3.436,1.139,4.685,1.763c0.78,0.382,1.537,0.851,2.136,1.487
			c1.089,1.156,1.578,2.744,1.784,4.289c0.13,1.029,0.161,2.086-0.019,3.111c-0.129,0.724-0.378,1.443-0.826,2.033
			c-0.861,1.141-2.296,1.632-3.657,1.862c-0.888,0.15-1.827,0.206-2.727,0.241c-2.141,0.055-31.944,0.085-34.076-0.014
			c-0.876-0.057-1.794-0.12-2.583-0.536c-0.511-0.268-0.907-0.717-1.173-1.224c-0.274-0.497-0.45-1.017-0.499-1.586
			c-0.072-0.715-0.029-1.453,0.024-2.168c0.097-1.292,0.318-2.715,0.512-3.998"/>
	</g>
	<g id="POLYLINE_1462_">
		
			<path fill="none" stroke="#FF6B6B" stroke-width="2.25" stroke-linecap="round" stroke-linejoin="round" stroke-miterlimit="10" d="
			M617.545,143.667c-0.841-0.295-1.692-0.719-2.59-0.801c-0.598-0.066-1.205-0.007-1.795,0.096c-1.074,0.19-2.182,0.526-3.224,0.851
			l-4.973,1.644c-1.223,0.384-2.512,0.764-3.772,0.996c-1.022,0.191-2.086,0.296-3.125,0.349c-1.457,0.065-3.426,0.085-4.845,0.361
			c-1.093,0.178-2.405,0.524-3.51,0.476c-0.305-0.016-0.613-0.067-0.893-0.191c-0.693-0.303-1.057-1.033-1.247-1.727
			c-0.399-1.486-0.281-3.198-0.29-4.727c0.001-1.767-0.079-3.599-0.778-5.247c-0.543-1.272-1.409-2.382-2.308-3.422l-2.302-2.555
			c-0.543-0.624-1.08-1.282-1.528-1.978c-0.496-0.763-0.918-1.608-1.292-2.438c-0.826-1.887-1.668-4.005-2.863-5.684
			c-2.343-3.323-5.504-6.083-8.868-8.337"/>
	</g>
	<g id="POLYLINE_1463_">
		
			<path fill="none" stroke="#FF6B6B" stroke-width="2.25" stroke-linecap="round" stroke-linejoin="round" stroke-miterlimit="10" d="
			M577.963,172.011c1.671,0.136,3.702,0.302,5.35,0.267c2.901-0.046,5.929-0.377,8.809-0.737c5.681-0.77,11.453-1.748,16.909-3.537
			c3.887-1.27,7.604-3.162,11.153-5.177c1.635-0.95,3.334-1.916,4.677-3.266c0.467-0.489,0.9-1.058,1.04-1.732
			c0.206-0.974-0.202-1.954-0.512-2.862"/>
	</g>
	<g id="POLYLINE_1464_">
		
			<path fill="none" stroke="#FF6B6B" stroke-width="2.25" stroke-linecap="round" stroke-linejoin="round" stroke-miterlimit="10" d="
			M619.347,155.386c0.295,0.156,0.625,0.239,0.958,0.26c0.402,0.026,0.81-0.027,1.206-0.092c2.672-0.527,6.79-0.893,9.535-1.165
			c1.805-0.217,3.64-0.52,5.398-0.986c1.247-0.336,2.492-0.761,3.637-1.363c0.859-0.454,1.679-1.018,2.331-1.745
			c0.459-0.509,0.822-1.104,1.083-1.738c0.879-2.182,0.701-4.629,0.252-6.891c-0.295-1.419-0.721-2.836-1.42-4.112
			c-0.438-0.793-0.996-1.538-1.715-2.098c-1.391-1.112-3.298-1.179-4.985-0.89c-1.497,0.256-2.951,0.778-4.315,1.44
			c-1.677,0.788-3.639,2.218-5.199,3.238c-1.214,0.799-2.519,1.537-3.837,2.15c-1.874,0.902-4.265,1.833-5.946,3.041
			c-0.626,0.463-1.245,1.026-1.499,1.784c-0.32,0.966-0.004,1.998,0.37,2.902c0.536,1.221,1.207,2.467,1.87,3.623
			c0.374,0.627,0.779,1.255,1.265,1.801C618.628,154.874,618.957,155.181,619.347,155.386z"/>
	</g>
	<g id="POLYLINE_1465_">
		
			<path fill="none" stroke="#FF6B6B" stroke-width="2.25" stroke-linecap="round" stroke-linejoin="round" stroke-miterlimit="10" d="
			M560.593,234.989c-0.254,2.792-0.52,5.713-1.262,8.398c-0.748,2.819-1.925,5.547-3.186,8.171
			c-2.577,5.282-5.667,10.441-8.943,15.317c-2.691,4.013-6.524,8.937-9.21,12.959c-3.11,4.661-5.625,9.764-7.713,14.956
			c-2.701,6.753-5.187,15.301-7.883,22.055c-1.973,5.137-4.844,11.766-6.122,17.069c-0.627,2.556-0.805,5.503-1.735,7.979
			c-0.632,1.709-1.662,3.252-2.86,4.615c-1.135,1.288-2.438,2.445-3.88,3.381c-1.03,0.663-2.147,1.224-3.332,1.548
			c-1.012,0.284-2.084,0.347-3.123,0.184c-2.103-0.315-4.107-1.329-6.175-1.791c-1.172-0.27-2.401-0.355-3.588-0.134
			c-2.934,0.567-5.746,2.323-8.392,3.648c-1.133,0.561-2.299,1.134-3.538,1.414c-0.561,0.123-1.15,0.171-1.714,0.046
			c-0.596-0.126-1.146-0.445-1.564-0.888c-0.89-0.945-1.204-2.294-1.181-3.563c0.091-3.037,1.464-5.965,1.845-8.959
			c0.251-1.82-0.11-3.853-0.237-5.673c-0.074-1.078-0.042-2.176,0.136-3.243c0.38-2.306,1.194-4.549,2.056-6.714
			c2.345-5.816,6.115-12.619,7.862-18.642c0.34-1.185,0.613-2.433,0.784-3.654c0.232-1.545,0.375-4.034,0.503-5.575
			c0.097-1.13,0.251-2.278,0.538-3.376c0.646-2.41,1.675-4.972,2.242-7.403c1.004-3.99,1.969-9.496,3.133-13.44
			c0.304-1.185,0.385-2.43,0.415-3.649c0.044-3.289,0.071-7.181,0.394-10.422c0.72-7.66,2.804-19.15,3.259-26.796
			c0.108-1.781,0.139-3.646,0.046-5.427c-0.069-1.717-0.423-4.835-0.594-6.568c-0.113-1.247-0.188-2.547-0.152-3.797
			c0.037-1.369,0.204-2.827,0.384-4.186c0.45-3.281,1.13-7.314,1.047-10.606c-0.074-5.262-1.622-11.359-2.627-16.534
			c-1.334-6.792-1.812-13.806-1.271-20.71c0.562-7.308,1.915-14.651,4.206-21.617"/>
	</g>
	<g id="POLYLINE_1466_">
		
			<path fill="none" stroke="#FF6B6B" stroke-width="2.25" stroke-linecap="round" stroke-linejoin="round" stroke-miterlimit="10" d="
			M576.805,136.671c0.702,2.708,1.359,5.529,1.42,8.329c0.12,3.932-0.482,9.182-0.692,13.132c-0.165,2.685-0.135,5.493,0.03,8.18
			c0.589,8.68,1.375,18.415,0.652,27.059c-0.242,2.767-0.77,5.555-1.557,8.218c-0.565,1.962-1.481,4.402-1.84,6.411
			c-0.228,1.225-0.31,2.49-0.272,3.735c0.048,2.619,0.837,7.767,1.14,10.397c0.426,3.496,0.503,7.106,0.363,10.623
			c-0.576,9.413-1.164,22.144-1.133,31.498c0.039,13.515,0.964,31.561-1.208,44.774c-0.413,2.574-0.944,5.187-1.744,7.67
			c-0.486,1.519-1.14,3.023-1.849,4.451c-1.048,2.106-2.369,4.505-2.993,6.765c-1.538,5.589-0.917,11.898-1.264,17.63
			c-0.055,0.649-0.131,1.315-0.342,1.934c-0.118,0.342-0.297,0.69-0.566,0.934c-0.272,0.254-0.624,0.368-0.987,0.394
			c-0.998,0.066-2.152-0.297-3.131-0.471c-0.754-0.143-1.532-0.269-2.3-0.184c-0.437,0.049-0.862,0.183-1.258,0.373
			c-0.907,0.426-1.893,1.317-2.683,1.94c-0.685,0.545-1.418,1.049-2.218,1.41c-0.82,0.377-1.702,0.65-2.573,0.88
			c-2.197,0.569-5.025,1.032-7.186,1.714c-1.66,0.487-3.629,1.453-5.211,2.175c-0.502,0.222-1.036,0.448-1.561,0.609
			c-0.37,0.111-0.757,0.203-1.146,0.194c-0.289-0.006-0.585-0.086-0.807-0.276l-0.018-0.016l-0.018-0.016l-0.018-0.017l-0.018-0.017
			l-0.017-0.018l-0.017-0.018l-0.017-0.019l-0.017-0.019l-0.016-0.02l-0.016-0.02l-0.016-0.02l-0.016-0.021l-0.015-0.021
			c-0.321-0.479-0.411-1.07-0.473-1.632c-0.217-2.535,0.419-6.638,0.627-9.2c0.164-1.798,0.243-3.666,0.158-5.469
			c-0.083-1.954-0.351-3.955-0.689-5.882l-1.525-8.076c-1.102-6.445-2.102-13.173-2.437-19.704
			c-0.169-3.302-0.023-6.891,0.173-10.199"/>
	</g>
	<g id="POLYLINE_1467_">
		
			<path fill="none" stroke="#FF6B6B" stroke-width="2.25" stroke-linecap="round" stroke-linejoin="round" stroke-miterlimit="10" d="
			M541.341,187.037c0.356-1.262,0.502-2.641,0.054-3.899c-0.302-0.859-0.822-1.633-1.446-2.291c-0.68-0.71-1.503-1.299-2.424-1.648
			c-0.923-0.354-2.056-0.484-3.021-0.691c-0.726-0.153-1.45-0.371-2.106-0.721c-0.747-0.394-1.395-0.96-1.979-1.565
			c-1.084-1.133-1.997-2.453-2.844-3.768c-0.376-0.652-1.799-2.805-2.065-3.452c-0.072-0.182-0.118-0.377-0.114-0.573
			c0.002-0.177,0.042-0.352,0.099-0.518c0.229-0.658,0.924-1.678,1.273-2.289c0.419-0.714,0.811-1.468,1.111-2.24
			c0.366-0.942,0.626-1.937,0.83-2.926c0.795-3.809,0.959-9.426,1.236-13.345c0.291-4.295,1.227-13.173,1.485-17.433"/>
	</g>
	<g id="POLYLINE_1468_">
		
			<line fill="none" stroke="#FF6B6B" stroke-width="2.25" stroke-linecap="round" stroke-linejoin="round" stroke-miterlimit="10" x1="570.035" y1="97.455" x2="573.048" y2="91.052"/>
	</g>
	<g id="POLYLINE_1469_">
		
			<path fill="none" stroke="#FF6B6B" stroke-width="2.25" stroke-linecap="round" stroke-linejoin="round" stroke-miterlimit="10" d="
			M538.035,187.391c-0.783,0.554-1.393,1.32-1.909,2.12c-0.947,1.494-1.562,3.193-1.87,4.931c-0.175,1.033-0.253,2.103-0.072,3.14
			c0.108,0.593,0.314,1.19,0.712,1.653c0.302,0.351,0.705,0.6,1.125,0.783c0.76,0.331,1.638,0.5,2.431,0.735
			c0.868,0.242,1.646,0.615,2.314,1.229c1.416,1.276,2.468,3.512,3.458,5.124c0.819,1.349,1.726,2.704,2.993,3.672
			c1.01,0.779,2.206,1.288,3.424,1.645c1.376,0.398,2.812,0.655,4.231,0.844c1.532,0.195,3.099,0.312,4.643,0.235
			c0.808-0.048,1.632-0.138,2.397-0.418c0.455-0.17,0.889-0.428,1.2-0.806c0.304-0.364,0.473-0.824,0.536-1.291
			c0.108-0.797-0.042-1.609-0.306-2.362c-0.359-1.028-0.966-1.954-1.655-2.79c-1.001-1.221-2.452-2.635-3.477-3.837
			c-1.034-1.174-1.888-2.512-2.587-3.909c-0.842-1.624-1.664-3.615-2.799-5.058c-1.472-1.892-3.618-3.108-5.778-4.063
			c-1.468-0.646-3.013-1.225-4.559-1.654c-0.802-0.215-1.628-0.412-2.459-0.463c-0.364-0.019-0.735,0.002-1.087,0.102
			C538.614,187.043,538.31,187.2,538.035,187.391z"/>
	</g>
	<g id="POLYLINE_1470_">
		
			<path fill="none" stroke="#FF6B6B" stroke-width="2.25" stroke-linecap="round" stroke-linejoin="round" stroke-miterlimit="10" d="
			M693.413,207.015c-0.367,3.352-0.285,6.782,0.481,10.075c0.637,2.782,1.64,5.489,2.888,8.053c0.918,1.952,2.431,4.284,3.58,6.128
			c0.873,1.444,1.707,2.966,2.074,4.626c0.419,1.908,0.179,3.894-0.117,5.803c-0.435,2.499-0.986,5.643-1.182,8.141
			c-0.284,2.997-0.565,7.896-1.152,10.793c-0.219,1.14-0.54,2.279-0.968,3.359c-0.497,1.289-1.273,2.829-1.629,4.163
			c-0.232,0.832-0.328,1.702-0.325,2.564c-0.023,1.603,0.419,4.516,0.589,6.133c0.167,1.547,0.273,3.145,0.201,4.7
			c-0.09,2.067-0.439,4.184-0.834,6.214c-0.381,1.866-1.429,6.66-1.687,8.438c-0.22,1.399-0.367,2.881-0.444,4.297
			c-0.102,1.954-0.08,3.981,0.063,5.932c0.087,1.377,0.369,3.174,0.4,4.551c0.054,1.777-0.332,3.562-0.727,5.286
			c-0.978,4.012-2.149,8.425-2.477,12.535c-0.269,2.587-0.319,6.129-0.547,8.726c-0.155,1.339-0.36,2.84-0.354,4.189
			c-0.033,1.712,0.027,4.757-0.217,6.441c-0.08,0.605-0.236,1.205-0.477,1.766l-0.394,0.892c-0.301,0.693-0.453,1.448-0.573,2.191
			c-0.195,1.242-0.31,2.667-0.42,3.92c-0.089,1.261-0.139,2.56,0.16,3.797c0.258,1.019,0.709,2.002,1.346,2.839
			c0.192,0.251,0.433,0.473,0.668,0.684c0.26,0.233,0.542,0.444,0.85,0.608c0.465,0.25,0.975,0.413,1.486,0.537
			c0.89,0.212,1.832,0.316,2.743,0.4c9.405,0.646,30.62,0.254,40.296,0.329c1.231-0.024,2.525-0.061,3.744-0.242
			c0.931-0.142,1.872-0.367,2.698-0.835c0.546-0.307,1.024-0.736,1.381-1.251c0.484-0.693,0.781-1.502,0.977-2.319
			c0.286-1.216,0.359-2.483,0.303-3.728c-0.069-1.178-0.181-2.483-1.018-3.391c-0.466-0.511-1.09-0.846-1.72-1.114
			c-1.37-0.568-2.866-0.888-4.314-1.192c-3.235-0.665-7.123-1.151-10.159-2.442c-0.538-0.239-1.066-0.52-1.537-0.873
			c-0.421-0.314-0.797-0.693-1.142-1.088l-0.906-1.067c-0.643-0.76-1.524-1.372-2.234-2.065c-0.484-0.472-0.909-1.02-1.165-1.651
			c-0.438-1.11-0.43-2.339-0.413-3.515l0.125-2.994c0.021-0.815,0.012-1.648-0.123-2.454c-0.153-1.005-0.576-2.207-0.881-3.182
			c-0.32-1.013-0.523-2.071-0.576-3.133c-0.15-2.542,0.211-5.975,0.249-8.531c0.036-2.967-0.209-6.353,0.489-9.254
			c0.926-4.028,3.705-8.511,5.553-12.199c1.087-2.138,2.13-4.372,2.831-6.67c0.901-2.799,1.521-6.966,2.053-9.887
			c0.322-1.745,0.828-3.476,1.496-5.12c0.849-2.073,1.929-4.594,2.554-6.716c0.944-3.145,1.585-6.55,2.181-9.781
			c0.801-4.529,2.23-13.351,3.221-17.733c0.696-3.282,2.298-8.62,3.165-11.9c0.635-2.383,1.036-4.858,1.186-7.32
			c0.151-2.691,0.362-7.33,0.673-9.934c0.508-4.658,1.29-9.543,2.233-14.133c0.525-2.627,1.409-5.938,2.109-8.547
			c0.333-1.306,0.644-2.69,0.829-4.025c0.612-4.499-0.01-9.114-0.623-13.583c-0.374-2.591-1.277-7.4-1.391-9.941
			c-0.052-1.086-0.007-2.189,0.198-3.258c0.268-1.426,0.795-3.121,1.062-4.546c0.272-1.375,0.394-2.796,0.406-4.197
			c0.021-3.221-0.352-6.467-0.927-9.633c-0.52-2.752-1.192-5.524-2.303-8.103c-0.783-1.843-1.861-3.58-3.005-5.22
			c-1.219-1.765-2.528-3.563-3.965-5.158"/>
	</g>
	<g id="POLYLINE_1471_">
		
			<path fill="none" stroke="#FF6B6B" stroke-width="2.25" stroke-linecap="round" stroke-linejoin="round" stroke-miterlimit="10" d="
			M711.29,215.671l-0.176,1.596c-0.136,1.433-0.784,3.714-1.124,5.14c-0.343,1.442-0.65,2.945-0.83,4.415
			c-0.333,2.625-0.246,5.313,0.009,7.941c0.102,0.986,0.233,2.036,0.409,3.011c0.06,0.315,0.124,0.638,0.23,0.941
			c0.212,0.651,0.673,1.182,1.179,1.628c1.014,0.889,2.194,1.604,3.367,2.263c1.903,1.026,3.892,2.003,5.989,2.557
			c0.636,0.156,1.296,0.271,1.953,0.229c0.503-0.03,1.012-0.184,1.4-0.516c0.679-0.579,0.97-1.472,1.185-2.31
			c0.287-1.156,0.422-2.493,0.568-3.679c0.284-2.499,0.558-5.113,0.5-7.628c-0.031-1.16-0.127-2.343-0.387-3.476
			c-0.246-1.081-0.655-2.132-1.124-3.134c-0.494-1.047-1.186-2.316-1.396-3.456c-0.122-0.557-0.21-1.45-0.283-2.023
			c-0.168-1.24-0.52-3.085-0.688-4.323"/>
	</g>
	<g id="POLYLINE_1472_">
		
			<path fill="none" stroke="#FF6B6B" stroke-width="2.25" stroke-linecap="round" stroke-linejoin="round" stroke-miterlimit="10" d="
			M752.392,114.79c-0.134-2.507-0.755-5.052-2.111-7.187c-0.73-1.116-1.729-2.184-3.056-2.537c-0.561-0.146-1.166-0.126-1.712,0.071
			c-0.592,0.209-1.105,0.602-1.521,1.066c-0.811,0.914-1.299,2.072-1.614,3.241c-0.488,1.861-0.552,3.825-0.323,5.73
			c0.231,1.838,0.741,3.666,1.633,5.295c0.468,0.843,1.047,1.642,1.786,2.268c0.462,0.389,0.994,0.709,1.579,0.87
			c0.528,0.148,1.097,0.152,1.624-0.007c0.552-0.162,1.045-0.488,1.453-0.888c0.772-0.762,1.275-1.757,1.622-2.774
			C752.304,118.289,752.47,116.522,752.392,114.79z"/>
	</g>
	<g id="POLYLINE_1473_">
		
			<path fill="none" stroke="#FF6B6B" stroke-width="2.25" stroke-linecap="round" stroke-linejoin="round" stroke-miterlimit="10" d="
			M746.005,105.01l-5.616,0.945c-1.109,0.12-2.017,0.905-2.621,1.801c-0.608,0.898-0.99,1.934-1.24,2.984
			c-0.378,1.619-0.447,3.309-0.29,4.961"/>
	</g>
	<g id="POLYLINE_1474_">
		
			<path fill="none" stroke="#FF6B6B" stroke-width="2.25" stroke-linecap="round" stroke-linejoin="round" stroke-miterlimit="10" d="
			M742.072,124.69c0.216,0.002,0.435-0.022,0.645-0.069l5.616-0.941"/>
	</g>
	<g id="POLYLINE_1475_">
		
			<path fill="none" stroke="#FF6B6B" stroke-width="2.25" stroke-linecap="round" stroke-linejoin="round" stroke-miterlimit="10" d="
			M734.149,99.752c1.213-0.757,2.684-1.097,4.106-0.944c0.884,0.099,1.841,0.416,2.349,1.194c0.496,0.787,0.517,1.803,0.474,2.705
			c-0.068,1.107-0.254,2.223-0.689,3.248"/>
	</g>
	<g id="POLYLINE_1476_">
		
			<path fill="none" stroke="#FF6B6B" stroke-width="2.25" stroke-linecap="round" stroke-linejoin="round" stroke-miterlimit="10" d="
			M739.168,98.996l0.512-3.62c0.524-4.138,0.543-8.499,0.527-12.669c-0.061-2.283-0.016-4.907-0.317-7.164
			c-0.126-0.778-0.303-1.585-0.765-2.238c-0.808-1.12-2.343-1.199-3.604-1.084"/>
	</g>
	<g id="POLYLINE_1477_">
		
			<path fill="none" stroke="#FF6B6B" stroke-width="2.25" stroke-linecap="round" stroke-linejoin="round" stroke-miterlimit="10" d="
			M702.401,130.486c-0.567,2.706-1.105,5.496-1.159,8.265c-0.109,3.309,0.621,7.511,1.061,10.813
			c0.351,2.542,0.669,5.233,0.648,7.798c0.015,2.396-0.277,5.769-0.229,8.165c0.017,1.97,0.533,5.015,0.793,6.983
			c0.429,3.512,0.507,7.109,0.182,10.633c-0.184,2.048-0.763,4.334-0.724,6.396c0.018,1.558,0.38,3.1,0.872,4.572
			c0.592,1.721,1.356,3.415,2.418,4.899c0.663,0.932,1.645,1.767,2.176,2.791c0.278,0.523,0.448,1.1,0.561,1.68
			c0.396,2.041,0.35,4.971,0.444,7.061c0.044,0.93,0.093,1.906,0.271,2.82c0.098,0.487,0.232,0.976,0.471,1.414
			c0.148,0.27,0.345,0.521,0.605,0.691c0.225,0.15,0.494,0.221,0.762,0.237c0.801,0.031,1.774-0.237,2.567-0.342
			c1.726-0.271,4.531-0.29,6.299-0.374c0.722-0.045,1.485-0.073,2.189-0.246c0.168-0.045,0.353-0.108,0.483-0.221
			c0.012-0.011,0.018-0.016,0.018-0.016c0.011-0.011,0.017-0.016,0.017-0.016c0.011-0.011,0.016-0.017,0.016-0.017
			c0.01-0.012,0.015-0.017,0.015-0.017c0.178-0.225,0.166-0.537,0.19-0.808c0.077-1.76-0.01-3.557-0.176-5.311
			c-0.085-0.974-0.331-2.311-0.459-3.287c-0.132-1.012-0.171-2.075,0.182-3.049c0.165-0.463,0.407-0.903,0.672-1.317
			c0.765-1.176,2.043-2.637,2.849-3.788c0.595-0.837,1.139-1.728,1.56-2.665c0.696-1.539,1.139-3.201,1.464-4.856
			c0.881-4.518,0.918-9.855,1.428-14.433c0.303-2.754,0.834-5.532,1.587-8.198c1.551-5.512,4.388-12.715,6.162-18.185
			c0.877-2.712,1.656-5.536,2.082-8.357c0.367-2.361,0.49-4.798,0.486-7.186c-0.009-2.611-0.136-5.295-0.541-7.876
			c-0.4-2.45-1.006-4.95-2.36-7.062c-1.371-2.152-3.497-3.691-5.726-4.864l-1.714-0.892c-0.617-0.339-1.248-0.686-1.769-1.164
			c-0.287-0.264-0.542-0.58-0.676-0.951c-0.194-0.533-0.119-1.12,0.041-1.652c0.394-1.245,1.169-2.335,1.946-3.37
			c0.837-1.111,1.965-2.388,2.711-3.553c0.472-0.72,0.896-1.485,1.232-2.277c1.033-2.478,1.432-5.189,1.745-7.839
			c0.277-2.342,0.425-5.367,0.572-7.739c0.055-1.233,0.132-2.679,0.108-3.908c-0.015-3.391-0.723-6.781-2.079-9.891
			c-0.949-2.168-2.2-4.253-3.917-5.901c-2.837-2.726-6.761-3.904-10.564-4.504c-3.111-0.46-6.43-0.542-9.381,0.691
			c-2.534,1.071-4.539,3.144-5.859,5.527c-1.306,2.289-2.061,5.264-2.926,7.748c-0.479,1.483-1.323,3.172-2.023,4.573
			c-0.347,0.729-0.681,1.485-0.857,2.275c-0.106,0.467-0.144,0.952-0.134,1.431c0.021,1.021,0.26,2.361,0.331,3.381
			c0.082,1.01,0.055,2.039-0.08,3.044c-0.353,2.591-1.146,5.127-2.149,7.536c-0.605,1.416-1.3,2.829-2.2,4.084
			c-0.617,0.865-1.358,1.654-2.132,2.38c-2.295,2.078-4.747,4.318-6.666,6.737c-2.203,2.72-3.976,5.818-5.05,9.156
			c-0.855,2.596-1.39,5.339-1.765,8.045c-1.136,7.829-1.025,22.404-1.278,30.454c-0.063,6.507-0.328,13.492,0.392,19.959
			c0.181,1.467,0.499,2.936,1.041,4.313l0.654,1.623c0.37,0.921,0.551,1.909,0.618,2.897c0.119,1.371,0.01,4.112-0.007,5.525
			c-0.031,1.991,0.014,4.045,0.282,6.018c0.276,2.15,1.15,5.973,1.536,8.131c0.353,1.948,0.617,3.971,0.707,5.949
			c0.227,4.463-0.202,11.344-0.018,15.81c0.114,4.436,1.13,10.554,1.744,14.983c0.184,1.45,0.331,2.962,0.31,4.422
			c-0.011,1.396-0.178,2.87-0.364,4.255c-0.565,4.048-1.353,8.252-2.364,12.211c-0.747,3.086-2.177,6.752-2.895,9.846
			c-0.135,0.617-0.246,1.262-0.298,1.891c-0.081,0.89-0.015,2.199-0.003,3.096c0.006,0.943-0.103,1.897-0.571,2.732
			c-0.547,1.007-1.446,1.991-2.131,2.909c-0.712,0.932-1.341,1.945-1.803,3.025c-0.712,1.642-1.171,3.409-1.532,5.159
			c-1.172,5.6-1.567,14.719-2.066,20.489c-0.269,2.853-0.581,5.817-1.28,8.599c-0.241,0.935-0.535,1.878-0.937,2.757
			c-0.313,0.687-0.711,1.345-1.138,1.966c-0.581,0.854-1.426,1.906-1.813,2.856c-0.237,0.549-0.366,1.141-0.419,1.735
			c-0.198,2.341,0.38,4.915,0.043,7.249c-0.259,1.91-1.394,3.601-2.164,5.33c-0.275,0.624-0.502,1.28-0.63,1.95
			c-0.214,1.104-0.227,2.248-0.199,3.369l0.165,3.815c0.037,1.133,0.014,2.335-0.072,3.465c-0.134,2.068-0.512,4.616-0.228,6.662
			c0.096,0.652,0.273,1.306,0.621,1.871c0.381,0.622,0.975,1.089,1.622,1.412c0.908,0.453,1.917,0.677,2.914,0.829
			c2.257,0.314,4.631,0.333,6.909,0.346c5.76-0.104,14.779-0.212,20.515-0.426"/>
	</g>
	<g id="POLYLINE_1478_">
		
			<path fill="none" stroke="#FF6B6B" stroke-width="2.25" stroke-linecap="round" stroke-linejoin="round" stroke-miterlimit="10" d="
			M887.226,110.703c-0.237-3.369-1.974-6.72-4.859-8.553c-1.024-0.642-2.2-1.067-3.412-1.133c-1.298-0.078-2.619,0.29-3.681,1.042
			c-2.098,1.471-3.052,4.115-3.059,6.607c-0.013,2.937,1.137,5.885,3.19,7.993c1.093,1.117,2.471,1.993,4.004,2.347
			c1.147,0.268,2.377,0.218,3.483-0.199c1.167-0.433,2.167-1.26,2.875-2.277C886.941,114.848,887.363,112.729,887.226,110.703z"/>
	</g>
	<g id="POLYLINE_1479_">
		
			<path fill="none" stroke="#FF6B6B" stroke-width="2.25" stroke-linecap="round" stroke-linejoin="round" stroke-miterlimit="10" d="
			M882.951,118.786l3.287-1.271c0.081-0.032,0.176-0.069,0.256-0.104c0.278-0.121,0.551-0.267,0.807-0.43
			c1.112-0.707,1.959-1.784,2.492-2.981c2.089-4.738-0.18-11.199-4.816-13.533c-1.22-0.608-2.625-0.889-3.979-0.668
			c-0.318,0.051-0.639,0.131-0.944,0.235c-0.12,0.033-3.336,1.291-3.538,1.363"/>
	</g>
	<g id="POLYLINE_1480_">
		
			<path fill="none" stroke="#FF6B6B" stroke-width="2.25" stroke-linecap="round" stroke-linejoin="round" stroke-miterlimit="10" d="
			M890.615,112.237c0.1-0.042,2.573-0.988,2.585-1.006c0.214-0.096,0.423-0.213,0.618-0.344c0.74-0.496,1.308-1.222,1.677-2.028
			c1.528-3.383-0.068-8.007-3.364-9.719c-0.872-0.448-1.879-0.665-2.854-0.521c-0.249,0.036-0.5,0.096-0.738,0.178
			c-0.089,0.012-2.389,0.934-2.535,0.977"/>
	</g>
	<g id="POLYLINE_1481_">
		
			<path fill="none" stroke="#FF6B6B" stroke-width="2.25" stroke-linecap="round" stroke-linejoin="round" stroke-miterlimit="10" d="
			M890.34,112.333c0.862-0.262,1.618-0.82,2.162-1.533c0.529-0.689,0.871-1.511,1.047-2.358c0.368-1.799,0.029-3.711-0.823-5.328
			c-0.684-1.292-1.723-2.429-3.041-3.084c-0.763-0.379-1.624-0.583-2.478-0.522c-0.844,0.056-1.666,0.382-2.323,0.915"/>
	</g>
	<g id="POLYLINE_1482_">
		
			<path fill="none" stroke="#FF6B6B" stroke-width="2.25" stroke-linecap="round" stroke-linejoin="round" stroke-miterlimit="10" d="
			M883.161,99.844c0.262-0.941,0.308-1.952,0.101-2.909c-0.099-0.438-0.259-0.87-0.518-1.239c-0.211-0.302-0.488-0.557-0.804-0.748
			c-0.762-0.459-1.681-0.564-2.555-0.542c-1.169,0.04-2.341,0.3-3.398,0.806c-0.556,0.272-1.086,0.624-1.492,1.095
			c-0.576,0.646-0.935,1.628-1.295,2.406c-0.245,0.531-0.534,1.052-0.919,1.495c-1.103,1.25-2.627,2.036-4.1,2.766
			c-0.964,0.449-1.984,0.968-3.002,1.28c-0.722,0.223-1.49,0.349-2.244,0.245c-2.042-0.3-3.594-1.921-4.635-3.604
			c-0.69-1.122-1.227-2.353-1.684-3.586c-0.708-1.929-1.242-3.975-1.66-5.986c-0.458-2.241-0.826-4.616-0.178-6.857
			c0.462-1.603,1.373-3.049,2.446-4.314c0.988-1.155,2.147-2.181,3.427-3.003c1.08-0.694,2.26-1.247,3.466-1.683
			c1.793-0.635,3.673-1.124,5.552-1.426c0.811-0.113,1.65-0.227,2.466-0.107c0.361,0.055,0.695,0.21,0.905,0.508
			c0.267,0.37,0.422,0.837,0.6,1.254c1.814,4.932,4.638,13.738,6.251,18.71"/>
	</g>
	<g id="POLYLINE_1483_">
		
			<path fill="none" stroke="#FF6B6B" stroke-width="2.25" stroke-linecap="round" stroke-linejoin="round" stroke-miterlimit="10" d="
			M873.571,75.534c0.387-0.447,0.728-0.991,0.738-1.599c0.005-0.443-0.197-0.868-0.491-1.192c-0.732-0.802-1.872-1.014-2.911-1.075
			c-1.89-0.085-3.785,0.27-5.612,0.726c-2.909,0.759-5.772,1.861-8.31,3.49c-2.072,1.332-3.929,3.097-5.043,5.318
			c-1.579,3.116-1.926,6.688-2.171,10.124c-0.172,2.963-0.373,6.049,0.069,8.995c0.24,1.502,0.66,3.038,1.603,4.259
			c0.708,0.914,1.679,1.587,2.693,2.122c1.754,0.913,3.909,1.653,5.642,2.608c1.921,1.012,4.338,2.482,6.404,3.107
			c2.212,0.688,4.573,0.741,6.868,0.596"/>
	</g>
	<g id="POLYLINE_1484_">
		
			<path fill="none" stroke="#FF6B6B" stroke-width="2.25" stroke-linecap="round" stroke-linejoin="round" stroke-miterlimit="10" d="
			M869.989,71.658c-3.413-2.068-7.031-4.032-10.685-5.635c-2.942-1.263-6.573-2.483-9.625-3.479
			c-0.75-0.214-1.527-0.379-2.309-0.395c-1.105-0.035-2.2,0.279-3.147,0.843c-1.628,0.968-2.953,2.374-4.168,3.808
			c-2.54,3.069-4.648,6.558-6.573,10.038c-2.413,4.463-4.644,9.304-4.702,14.468c-0.023,4.351,1.532,8.535,3.325,12.439
			c0.602,1.289,2.094,4.283,2.561,5.565c0.203,0.552,0.388,1.124,0.469,1.708c0.061,0.438,0.049,0.894-0.092,1.316
			c-0.132,0.406-0.369,0.77-0.635,1.101c-0.292,0.362-0.641,0.715-0.971,1.044c-2.149,2.086-4.933,4.644-6.953,6.829
			c-2.95,3.121-5.549,6.62-7.522,10.44c-1.265,2.45-2.344,5.045-2.956,7.74c-0.343,1.521-0.5,3.1-0.377,4.657
			c0.129,1.75,0.619,3.466,1.202,5.114c0.973,2.675,2.205,5.669,2.696,8.466c0.606,3.205,0.824,7.034,2.104,10.059
			c0,0,1.268,3.026,1.268,3.026c0.631,1.55,1.098,3.187,1.216,4.861c0.333,4.709-0.859,9.623-1.032,14.319
			c-0.082,2.459,0.126,5.013,1.243,7.244c0.548,1.127,1.297,2.42,1.523,3.654c0.243,1.284,0.056,2.726,0.047,4.025
			c-0.006,0.859,0.043,1.744,0.35,2.555c0.618,1.587,2.091,2.777,2.975,4.203c0.268,0.422,0.499,0.876,0.659,1.35
			c0.266,0.791,0.368,1.635,0.442,2.462c0.072,0.758,0.109,1.854,0.295,2.591c0.054,0.21,0.124,0.419,0.234,0.606
			c0.339,0.604,1.074,0.617,1.681,0.56c0.762-0.072,1.737-0.292,2.497-0.395c0.734-0.109,1.528-0.165,2.271-0.196
			c0.833-0.06,2.221-0.052,3.037-0.146c0.586-0.056,1.186-0.13,1.747-0.314c0.325-0.109,0.648-0.258,0.896-0.5
			c0.369-0.353,0.457-0.889,0.448-1.379c-0.033-1.265-0.483-2.523-0.458-3.793c0.011-0.535,0.131-1.065,0.306-1.57
			c0.324-0.929,0.852-1.907,1.13-2.851c0.219-0.704,0.312-1.447,0.334-2.182c0.085-2.745-0.583-5.748-0.163-8.481
			c0.414-2.555,2.078-4.839,2.903-7.259c1.042-2.993,1.315-6.219,1.528-9.362c0.427-8.204,0.075-18.01,0.951-26.171
			c0.624-6.216,1.958-12.411,3.712-18.403"/>
	</g>
	<g id="POLYLINE_1485_">
		
			<path fill="none" stroke="#FF6B6B" stroke-width="2.25" stroke-linecap="round" stroke-linejoin="round" stroke-miterlimit="10" d="
			M831.636,219.219c-0.019,0.494-0.053,2.057-0.064,2.575c-0.035,1.039-0.131,2.096-0.327,3.117
			c-0.542,2.734-1.673,5.699-2.086,8.459c-0.191,1.261-0.27,2.569,0.016,3.822c0.479,2.151,1.933,3.908,3.404,5.482
			c1.401,1.443,2.989,3.168,4.489,4.497c0.803,0.705,1.659,1.383,2.602,1.892c0.586,0.314,1.215,0.566,1.874,0.669
			c0.582,0.092,1.182,0.07,1.756-0.065c1.283-0.295,2.424-1.161,3.033-2.331c0.405-0.762,0.621-1.614,0.77-2.46
			c0.176-0.884,0.735-6.618,0.855-7.63c0.136-1.332,0.25-2.727,0.228-4.066c-0.014-1.422-0.229-2.851-0.689-4.199
			c-0.639-1.956-1.789-3.85-2.68-5.699c-0.851-1.739-1.503-3.598-1.972-5.475"/>
	</g>
	<g id="POLYLINE_1486_">
		
			<path fill="none" stroke="#FF6B6B" stroke-width="2.25" stroke-linecap="round" stroke-linejoin="round" stroke-miterlimit="10" d="
			M888.05,116.415c1.3,1.152,2.664,2.358,3.697,3.755c0.785,1.039,1.4,2.205,1.87,3.418c0.489,1.245,0.881,2.604,1.223,3.899
			c0.862,3.413,1.971,8.462,2.999,11.793c1.607,5.567,4.208,12.712,4.736,18.463c0.212,2.323,0.002,4.683-0.365,6.98
			c-0.521,3.07-1.221,6.986-1.448,10.049c-0.444,5.659-0.541,11.465,0.099,17.11c0.201,1.563,0.449,3.158,0.971,4.648
			c0.188,0.525,0.427,1.038,0.714,1.516c0.316,0.546,0.89,1.276,1.256,1.796c0.502,0.7,0.897,1.48,1.158,2.301
			c0.572,1.783,0.809,3.678,0.977,5.537c0.259,3.128,0.236,6.375,0.056,9.508l-0.312,4.388c-0.07,1.362-0.152,2.783,0.096,4.13
			c0.147,0.763,0.444,1.57,1.113,2.023c0.445,0.301,0.991,0.409,1.52,0.432c0.983,0.034,1.962-0.188,2.894-0.483
			c1.042-0.338,2.052-0.794,2.994-1.353c0.776-0.465,1.52-1.015,2.097-1.718c0.628-0.753,1.004-1.683,1.218-2.632
			c0.262-1.148,0.361-2.343,0.382-3.518c0.026-1.827-0.144-3.668-0.486-5.462c-0.465-2.496-1.392-5.244-1.786-7.753
			c-0.206-1.257-0.241-2.923-0.426-4.184c-0.037-0.213-0.082-0.431-0.166-0.631c-0.128-0.319-0.383-0.509-0.693-0.635
			c-0.878-0.341-1.832-0.464-2.764-0.553c-1.106-0.086-2.239-0.085-3.326,0.156c-1.382,0.297-2.604,1.068-3.693,1.944"/>
	</g>
	<g id="POLYLINE_1487_">
		
			<path fill="none" stroke="#FF6B6B" stroke-width="2.25" stroke-linecap="round" stroke-linejoin="round" stroke-miterlimit="10" d="
			M915.418,202.112c0.601-0.574,1.226-1.183,1.54-1.969c0.174-0.429,0.213-0.905,0.124-1.359c-0.239-1.193-0.972-2.291-1.487-3.379
			c-0.184-0.386-0.352-0.789-0.425-1.212c-0.115-0.62,0.004-1.254,0.14-1.86c0.781-3.374,1.533-7.025,0.332-10.39
			c-0.723-2.143-2.071-4.283-2.966-6.355c-0.611-1.411-1.064-2.921-1.451-4.408c-0.784-3.184-1.68-7.023-2.678-10.14
			c-2.808-9.08-6.821-17.832-11.849-25.897"/>
	</g>
	<g id="POLYLINE_1488_">
		
			<path fill="none" stroke="#FF6B6B" stroke-width="2.25" stroke-linecap="round" stroke-linejoin="round" stroke-miterlimit="10" d="
			M843.552,249.601c0.25,1.807,0.59,3.752,0.974,5.534c0.404,1.81,1.302,5.447,1.542,7.203c0.407,2.717,0.557,6.341,0.878,9.079
			c0.372,3.235,1.249,6.761,1.18,10.027c-0.055,3.522-1.3,7.388-1.873,10.85c-0.611,3.437-0.661,6.982-0.405,10.458
			c0.151,1.986,0.421,4.053,0.815,6.005c0.439,2.188,1.274,5.287,1.622,7.484c0.591,3.454,0.653,8.731,0.974,12.237
			c0.149,1.693,0.434,3.405,0.908,5.039c0.414,1.453,1.046,3.057,1.246,4.563l0.224,1.533c0.113,0.719,0.261,1.448,0.553,2.117
			c0.323,0.741,0.796,1.417,1.286,2.056c0.44,0.594,1.085,1.273,1.375,1.954c0.089,0.221,0.131,0.466,0.082,0.702
			c-0.036,0.181-0.116,0.35-0.214,0.505c-0.319,0.492-0.862,0.961-1.269,1.384c-0.673,0.683-1.318,1.436-1.67,2.339
			c-0.301,0.778-0.383,1.626-0.357,2.455c0.039,1.025,0.235,2.053,0.596,3.014c0.27,0.738,0.715,1.501,0.913,2.264
			c0.188,0.735,0.199,1.509,0.197,2.263c0.003,0.822-0.112,2.195,0.03,2.992c0.064,0.369,0.189,0.735,0.407,1.042
			c0.451,0.65,1.237,0.934,1.979,1.098c1.407,0.297,2.888,0.321,4.322,0.351c1.914-0.009,23.659,0.036,24.823-0.013
			c0.971-0.027,2.004-0.073,2.966-0.195c0.862-0.113,1.737-0.275,2.536-0.63c0.683-0.303,1.292-0.779,1.732-1.385
			c0.651-0.889,0.949-1.978,1.185-3.039c0.275-1.288,0.397-2.63,0.196-3.937c-0.128-0.856-0.424-1.706-0.978-2.382
			c-0.559-0.695-1.33-1.192-2.135-1.558c-1.011-0.455-2.114-0.765-3.183-1.054l-3.566-0.898c-1.065-0.286-2.15-0.605-3.122-1.134
			c-0.79-0.427-1.483-1.051-1.772-1.923c-0.156-0.454-0.203-0.941-0.201-1.419c0.038-1.748,0.552-3.81,0.582-5.634
			c0.08-1.789-0.266-3.574-0.713-5.298c-0.403-1.569-1.059-3.669-1.333-5.257c-0.144-0.839-0.221-1.705-0.129-2.554
			c0.11-1.103,0.58-2.133,1.097-3.099c0.544-0.986,1.246-2.201,1.646-3.232c0.43-1.08,0.739-2.238,1.006-3.369
			c0.742-3.315,1.491-6.736,1.573-10.141c0.082-3.015-0.41-6.066-0.934-9.027c-0.107-0.714-0.102-1.448-0.046-2.167
			c0.079-1.029,0.228-2.083,0.423-3.097c0.16-0.829,0.373-1.669,0.659-2.464c0.303-0.856,0.805-1.958,1.096-2.816
			c0.613-1.761,0.932-3.655,0.452-5.489c-0.511-2.066-1.761-4.181-2.645-6.106c-1.034-2.168-1.857-4.437-2.03-6.851
			c-0.156-1.861-0.004-3.748,0.307-5.585c0.445-2.496,1.236-5.815,1.665-8.311c1.183-7.04,2.664-18.753,3.973-25.733"/>
	</g>
	<g id="POLYLINE_1489_">
		
			<path fill="none" stroke="#FF6B6B" stroke-width="2.25" stroke-linecap="round" stroke-linejoin="round" stroke-miterlimit="10" d="
			M888.587,352.409c-1.253-3.174-1.752-6.574-1.723-9.976l0.043-3.91c-0.019-2.989-0.214-6.771,0.201-9.705
			c0.197-1.542,0.586-4.292,0.686-5.809c0.148-1.91,0.202-3.873,0.142-5.788c-0.045-1.434-0.175-2.928-0.349-4.352
			c-0.219-2.021-3.523-23.286-3.898-25.838"/>
	</g>
	<g id="POLYLINE_1490_">
		
			<path fill="none" stroke="#FF6B6B" stroke-width="2.25" stroke-linecap="round" stroke-linejoin="round" stroke-miterlimit="10" d="
			M889.268,365.636c1.99,0.359,4.065,0.494,6.087,0.515c7.924-0.039,20.297,0.11,28.098-0.133c1.4-0.064,3.01-0.127,4.392-0.304
			c1.197-0.151,2.41-0.373,3.516-0.871c1.288-0.59,2.434-1.5,3.297-2.624c0.408-0.541,0.752-1.146,0.92-1.806
			c0.149-0.577,0.152-1.185,0.054-1.77c-0.211-1.173-0.685-2.299-1.193-3.371c-0.788-1.619-1.872-3.116-3.273-4.259
			c-0.544-0.44-1.139-0.838-1.802-1.073c-0.807-0.301-2.103-0.367-2.956-0.486c-1.576-0.224-3.183-0.498-4.666-1.093
			c-1.217-0.49-2.336-1.216-3.385-1.996c-0.485-0.372-0.966-0.768-1.38-1.219c-0.25-0.278-0.477-0.591-0.59-0.951
			c-0.11-0.347-0.096-0.721-0.028-1.076c0.153-0.776,0.561-1.6,0.841-2.338c0.456-1.141,0.752-2.354,0.787-3.586
			c0.043-1.251-0.1-2.521-0.278-3.757c-0.173-1.092-0.353-2.21-0.716-3.256c-0.263-0.785-0.811-1.515-1.251-2.21
			c-0.349-0.55-0.654-1.138-0.893-1.744c-0.678-1.76-1.069-3.639-1.378-5.496c-0.19-1.25-0.331-2.54-0.267-3.806
			c0.049-1.011,0.245-2.02,0.514-2.994c0.215-0.78,0.624-2.049,0.743-2.833c0.115-0.681,0.146-1.388,0.125-2.078
			c-0.028-0.928-0.148-1.891-0.29-2.809c-0.367-2.391-1.759-8.778-2.252-11.233c-0.375-1.992-0.737-4.087-0.869-6.106
			c-0.09-1.393-0.074-2.814,0.188-4.189c0.338-1.897,1.242-3.9,1.826-5.732c0.42-1.322,0.712-2.696,0.861-4.076
			c0.245-2.193,0.125-4.435-0.092-6.626c-0.142-1.427-0.364-3.063-0.584-4.482c-0.194-1.219-0.663-3.717-0.737-4.931
			c-0.164-2.377-0.092-4.888,0.005-7.268c0.109-2.15,0.274-4.373,0.821-6.461c0.216-0.843,0.622-2.256,0.771-3.091
			c0.184-0.943,0.322-1.938,0.397-2.896c0.115-1.44,0.081-2.914-0.303-4.314c-0.318-1.222-0.945-2.636-1.374-3.826
			c-0.413-1.139-0.755-2.341-1.031-3.52"/>
	</g>
</g>
<g id="AG-OUTLINE">
	<g id="POLYLINE_685_">
		<path fill="none" stroke="#FF6B6B" stroke-width="3" stroke-linecap="round" stroke-linejoin="round" stroke-miterlimit="10" d="
			M357.211,71.949c-1.375-3.075-3.328-5.905-5.743-8.255c-1.709-1.65-3.678-3.092-5.903-3.959c-1.016-0.394-2.091-0.654-3.179-0.726
			c-1.295-0.09-2.607,0.075-3.852,0.439c-6.389,1.933-10.773,8.303-12.866,14.357c-0.837,2.412-1.306,4.962-1.477,7.506
			c-0.343,5.03,0.232,10.582-0.736,15.553c-0.332,1.679-0.889,3.368-1.993,4.705c-0.713,0.878-1.622,1.583-2.589,2.162
			c-1.366,0.856-4.641,2.23-6.099,2.939c-1.941,0.934-3.855,2.01-5.57,3.317c-2.649,2.026-4.966,4.509-6.943,7.189
			c-1.357,1.879-2.619,3.887-3.401,6.079c-0.488,1.337-0.666,2.919-0.857,4.328c-0.156,1.14-0.476,2.227-0.988,3.257
			c-1.293,2.614-3.76,5.965-5.231,8.5c-2.597,4.403-4.847,9.111-6.572,13.923c-0.759,2.154-1.433,4.395-1.842,6.644
			c-0.315,1.734-0.462,3.523-0.487,5.285c-0.03,1.293,0.06,3.553,0.03,4.852c-0.039,1.5-0.187,3.509-0.123,4.997
			c0.104,3.158,0.597,6.416,1.09,9.536c0.749,4.383,1.583,8.889,2.883,13.145c0.26,0.798,0.543,1.612,0.977,2.334
			c0.252,0.417,0.568,0.8,0.95,1.104c0.473,0.38,1.032,0.642,1.6,0.848c1.901,0.66,3.964,0.837,5.961,0.64
			c0.241,1.41,0.614,2.96,0.582,4.394c-0.005,1.087-0.241,2.164-0.536,3.205c-0.442,1.571-1.147,3.608-1.338,5.214
			c-0.098,0.786-0.113,1.597,0.068,2.372c0.351,1.483,1.418,2.691,2.624,3.571c0.833,0.592,1.795,1.124,2.813,1.294
			c0.585,0.1,1.198-0.002,1.779-0.091c-0.065,3.802-0.017,7.793,0.263,11.578c0.308,4.35,1.174,10.722,1.54,15.071
			c0.577,5.916,0.242,13.489,0.702,19.422c0.158,1.88,0.4,3.793,0.893,5.616c0.964,3.673,3.233,7.082,4.091,10.788
			c1.058,4.536,0.792,9.797,0.799,14.442c-0.012,2.087,0.198,4.316,0.466,6.389c0.57,4.496,1.239,9.423,2.196,13.843
			c-0.076,3.84,0.393,9.684,0.283,13.516c-0.014,3.233-0.715,7.797-1.125,11.036c-0.152,1.443-0.328,2.941-0.137,4.387
			c0.083,0.559,0.24,1.132,0.6,1.58c0.241,0.301,0.581,0.516,0.954,0.614c-1.094,3.587-2.071,7.387-1.638,11.163
			c0.109,0.794,0.212,1.614,0.528,2.356c0.162,0.371,0.413,0.71,0.751,0.937c0.308,0.211,0.667,0.339,1.026,0.432
			c1.363,0.326,2.859,0.319,4.255,0.362c11.262-0.037,29.882,0.136,40.948-0.124c1.633-0.062,3.594-0.111,5.207-0.284
			c1.067-0.122,2.169-0.257,3.157-0.703c0.406-0.188,0.784-0.45,1.072-0.794c0.32-0.379,0.533-0.838,0.679-1.31
			c0.39-1.315,0.357-2.722,0.2-4.072c-0.214-1.669-0.653-3.342-1.488-4.813c-0.368-0.632-0.825-1.245-1.464-1.621
			c-0.418-0.249-0.894-0.39-1.37-0.475c-1.91-0.326-6.361-0.11-8.34-0.149c-1.732-0.008-3.489-0.17-5.153-0.67
			c-2.166-0.635-4.161-1.777-5.94-3.152c0.393-0.515,0.499-1.181,0.532-1.813c0.022-0.491-0.005-1.011-0.047-1.502
			c-0.158-1.73-0.509-3.764-0.544-5.491c-0.125-3.742,0.479-7.495,1.455-11.099c1.527-5.749,4.994-13.217,7.158-18.8
			c1.898-4.816,3.536-9.861,4.756-14.89c2.058-8.492,3.493-17.321,4.041-26.044c0.327-4.551-0.007-10.244,0-14.814
			c0.03-10.321,3.062-21.267,4.872-31.385c0.273-1.719,0.422-3.487,0.383-5.229c-0.033-2.063-0.341-4.161-0.68-6.193l-1.498-8.303
			c-0.486-3.001-0.915-6.088-0.787-9.132c0.063-1.443,0.293-2.896,0.623-4.301c0.627-2.722,1.757-5.548,2.122-8.325
			c0.255-1.929,0.103-3.905-0.132-5.829l-0.604-4.392c-0.124-1.008-0.217-2.052-0.208-3.068c0.006-1.134,0.129-2.286,0.316-3.404
			c0.144-0.901,0.501-2.531,0.692-3.442c0.687-3.207,1.586-7.742,2.538-10.844c3.012,1.827,6.167,3.547,9.504,4.697
			c2.004,0.691,4.103,1.149,6.202,1.434c2.895,0.397,6.244,0.572,9.174,0.722c5.561,0.247,12.274,0.328,17.849,0.255
			c1.694-0.047,3.451-0.072,5.112-0.432c0.644-0.156,1.356-0.365,1.817-0.867c0.224-0.25,0.332-0.564,0.368-0.89
			c0.985,0.012,4.185,0.093,5.22,0.118c0.465,0.009,2.391-0.003,2.893-0.005c2.001-0.009,4,0.325,5.929,0.839
			c3.453,0.881,7.012,2.367,10.271,3.821c1.982,0.812,4.265,1.674,6.376,0.84c0.872-0.345,1.645-0.91,2.321-1.553
			c0.873-0.838,1.607-1.821,2.203-2.872c0.448-0.803,0.843-1.655,1.035-2.558c0.127-0.607,0.143-1.252-0.05-1.847
			c-0.274-0.872-0.981-1.513-1.705-2.027c-1.473-1.034-3.595-1.961-5.152-2.867c-2.056-1.157-4.362-2.749-6.694-3.244
			c-1.329-0.289-2.711-0.191-4.044,0.014c-1.419,0.213-3.05,0.644-4.488,0.686c-0.572,0.019-1.155-0.014-1.723-0.076
			c-1.328-0.152-4.064-0.649-5.398-0.866c-1.026-0.155-2.134-0.319-3.169-0.343c-0.862-0.027-1.807,0.069-2.667,0.154
			c-0.002-0.186-0.048-0.412-0.168-0.554c-0.175-0.207-0.441-0.261-0.693-0.301c-0.686-0.078-1.454-0.064-2.136-0.162
			c-2.401-0.304-4.781-0.962-7.063-1.758c-2.534-0.886-5.567-2.331-8.101-3.212c-1.258-0.451-2.771-0.698-4.019-1.175
			c-0.727-0.274-1.386-0.712-2.007-1.175c-0.846-0.635-1.841-1.409-2.77-1.902c-0.657-0.359-1.37-0.633-2.08-0.87
			c-1.288-0.434-3.007-0.839-4.259-1.36c-0.381-0.161-0.761-0.348-1.095-0.594c-0.383-0.279-0.697-0.646-0.943-1.049
			c-0.472-0.793-0.857-1.76-1.372-2.528c-0.848-1.321-1.901-2.52-3.06-3.577c-0.949-0.867-2.008-1.635-3.106-2.3
			c-1.543-0.953-3.745-2.022-5.287-2.978c-0.829-0.51-1.602-1.129-2.263-1.844c-0.619-0.661-1.303-1.53-1.911-2.2
			c-0.867-0.961-1.832-1.898-2.822-2.731c-0.813-0.685-1.684-1.335-2.574-1.917c-1.182-0.782-2.69-1.574-3.93-2.248
			c2.021-5.314,3.323-10.932,3.924-16.582c0.301-3.118,0.458-6.32-0.027-9.426c-0.257-1.571-0.753-3.125-1.592-4.486
			C360.057,74.308,358.689,73.024,357.211,71.949z"/>
	</g>
	<g id="POLYLINE_686_">
		<path fill="none" stroke="#FF6B6B" stroke-width="3" stroke-linecap="round" stroke-linejoin="round" stroke-miterlimit="10" d="
			M169.445,75.15c-0.638-1.613-1.504-3.157-2.665-4.453c-1.801-2.005-4.135-3.474-6.574-4.582c-3.348-1.501-7.12-2.299-10.77-1.634
			c-2.277,0.398-4.454,1.321-6.36,2.624c-1.903,1.297-3.544,2.963-4.914,4.809c-2.294,3.098-3.872,6.696-4.935,10.388
			c-0.871,3.073-1.427,6.276-1.448,9.475c-0.011,1.566,0.162,3.147,0.455,4.684c0.259,1.431,0.793,3.411,0.992,4.849
			c0.08,0.616,0.128,1.252,0.015,1.867c-0.071,0.379-0.217,0.751-0.469,1.048c-0.25,0.298-0.591,0.505-0.942,0.663
			c-0.438,0.197-0.913,0.33-1.378,0.448c-0.957,0.23-2.326,0.501-3.273,0.755c-2.162,0.577-4.362,1.41-6.445,2.234
			c-1.666,0.691-6.256,2.525-7.845,3.278c-1.864,0.868-3.67,1.933-5.182,3.338c-1.268,1.171-2.342,2.555-3.31,3.979
			c-2.184,3.034-12.272,22.469-14.299,26.055c-4.24,7.867-8.276,16.077-10.722,24.7c-1.712,6-2.77,12.231-3.371,18.437
			c-0.498,5.335-0.688,10.768-0.291,16.116c0.179,2.463,0.803,7.3,0.647,9.709c-0.044,1.134-0.362,2.334-0.638,3.434
			c-0.175,0.76-0.33,1.592-0.019,2.337c0.267,0.639,0.796,1.131,1.368,1.501c1.351,0.854,2.98,1.157,4.559,1.184
			c-0.621,1.894-1.201,3.854-1.359,5.848c-0.196,2.231,0.09,4.49,0.498,6.682c0.485,2.538,1.178,5.111,2.016,7.556
			c0.348,0.971,0.697,1.997,1.224,2.886c0.399,0.68,0.964,1.282,1.703,1.585c0.617,0.259,1.295,0.341,1.959,0.353
			c1.053,0.012,2.11-0.16,3.125-0.434c1.333-0.374,2.708-0.912,3.638-1.981c0.807-0.913,1.139-2.132,1.28-3.319
			c0.199-1.67,0.114-3.403,0.008-5.079c-0.152-1.883-0.48-5.691-0.56-7.527c-0.086-1.815-0.258-6.158-0.413-7.912
			c0.827-0.053,1.721-0.123,2.412-0.628c0.387-0.287,0.665-0.696,0.876-1.123c0.397-0.815,0.6-1.719,0.785-2.601l2.3-12.141
			c0.863-4.148,1.915-8.69,3.062-12.765c0.775-2.889,2.434-7.608,3.421-10.482c0.261,2.395,0.585,4.833,1.364,7.12
			c0.389,1.215,1.162,2.456,1.717,3.603c0.285,0.605,0.512,1.249,0.577,1.918c0.12,1.349-0.3,2.693-0.662,3.978
			c-0.788,2.576-1.593,5.269-1.675,7.972c-0.259,6.547,1.708,13.515,2.142,20.024c0.291,4.099,0.269,10.692,0.555,14.78
			c0.634,10.121,2.068,21.678,3.436,31.754c1.135,7.548,2.175,15.658,4.543,22.926c0,0,0.179,0.606,0.179,0.606
			s0.082,0.29,0.082,0.29l0.076,0.283c0,0,0.069,0.275,0.069,0.275s0.032,0.135,0.032,0.135s0.03,0.134,0.03,0.134
			c0.049,0.22,0.097,0.471,0.132,0.695c0.105,0.669,0.129,1.352,0.117,2.027c-0.053,2.393-0.821,9.886-0.995,12.27
			c-0.395,5.444-0.665,11.041-0.032,16.477c-2.048,1.017-4.196,2.064-6.086,3.352c-1.265,0.86-2.429,1.925-3.127,3.306
			c-0.453,0.872-0.781,1.824-1.056,2.766c-0.441,1.534-0.739,3.144-0.948,4.727c-0.271,2.13-0.404,4.32-0.264,6.464
			c0.126,2.045,0.528,4.136,0.968,6.137c0.529,2.319,1.151,4.682,2.319,6.77c0.43,0.754,0.946,1.475,1.592,2.059
			c0.541,0.489,1.174,0.876,1.853,1.143c1.946,0.76,4.203,0.581,6.069-0.326c0.109,0.223,0.261,0.429,0.457,0.584
			c0.216,0.171,0.475,0.279,0.739,0.351c0.617,0.164,1.275,0.191,1.91,0.22c3.924,0.029,17.701,0.092,21.508-0.032
			c0.529-0.04,1.071-0.094,1.573-0.275c0.448-0.156,0.83-0.462,1.107-0.845c0.3-0.406,0.515-0.872,0.693-1.342
			c0.295-0.79,0.492-1.633,0.657-2.459c0.243-1.234,0.431-2.503,0.359-3.763c-0.069-1.232-0.352-2.459-0.83-3.597
			c0.491-2.738,0.656-5.779,0.837-8.559c0.302-4.919,0.469-14.15,1.283-18.915c4.908-3.906,9.196-8.899,13.338-13.593
			c2.14-2.507,4.267-5.212,5.169-8.436c1.011-3.602,0.246-7.543,1.208-11.151c0.375-1.382,1.129-2.63,1.966-3.779
			c1.327-1.836,3.039-3.638,3.725-5.841c0.494-1.533,0.608-3.176,0.69-4.776c0.054-1.346,0.151-4.007,0.273-5.337
			c0.126-1.502,0.355-3.168,0.583-4.661l1.802-10.696c0.48-3.229,0.946-6.546,0.718-9.813c-0.087-1.321-0.345-2.967-0.546-4.289
			c-0.118-0.837-0.234-1.7-0.206-2.544c0.017-0.92,0.309-1.809,0.706-2.631c0.476-0.995,1.141-2.148,1.514-3.181
			c0.326-0.873,0.546-1.792,0.696-2.711c0.484-3.088,0.266-6.282-0.461-9.315c-0.789-3.273-2.482-6.936-3.615-10.109
			c-0.842-2.332-1.521-4.762-1.781-7.233c-0.618-5.648,0.363-11.872,0.981-17.504c1.097-8.831,1.043-19.526,1.8-28.399
			c0.786,3.22,1.689,6.518,3.48,9.342c1.021,1.617,2.305,3.435,2.912,5.249c0.997,2.924,1.057,6.325,2.047,9.251
			c0.298,0.89,0.728,1.74,1.275,2.502c0.829,1.187,2.141,2.419,3.148,3.466c1.132,1.155,2.098,2.49,2.971,3.847
			c1.085,1.664,2.337,3.825,3.712,5.249l1.437,1.488c0.516,0.549,1.005,1.139,1.381,1.794c0.439,0.762,0.743,1.612,1.019,2.445
			c0.501,1.538,0.981,3.33,1.756,4.746c1.033,1.913,2.618,3.463,4.256,4.864c0.134,0.882-0.019,1.781-0.216,2.641
			c-0.199,0.883-0.454,1.882-0.509,2.782c-0.089,1.332,0.07,2.687,0.463,3.963c0.265,0.822,0.631,1.647,1.25,2.264
			c0.311,0.309,0.704,0.536,1.134,0.628c0.515,0.114,1.055,0.053,1.557-0.098c0.928-0.285,1.753-0.849,2.45-1.515
			c1.546-1.503,2.476-3.519,3.17-5.531c0.657-1.978,1.158-4.034,1.37-6.11l0.569-0.641c0.499-0.569,0.959-1.194,1.226-1.907
			c0.493-1.335,0.444-3.082,0.562-4.491c0.062-0.843,0.154-1.71,0.333-2.536c0.141-0.661,0.354-1.325,0.589-1.958
			c0.74-2.031,1.901-4.088,2.075-6.275c0.121-1.605-0.441-3.166-1.054-4.623l-1.43-3.254c-0.342-0.827-0.654-1.686-0.885-2.549
			c-0.417-1.486-0.76-3.766-1.031-5.313c-0.227-1.216-0.466-2.466-0.995-3.591c-0.547-1.197-1.606-2.053-2.371-3.085
			c-0.353-0.481-0.615-1.03-0.739-1.615c-0.22-1.023-0.177-2.091-0.125-3.13c0.154-2.447,0.467-5.164-0.049-7.575
			c-0.281-1.441-0.769-2.852-1.341-4.202c-0.408-0.968-0.923-2.021-1.4-2.96c-1.712-3.292-7.876-14.517-9.732-17.951
			c-2.541-4.497-5.287-9.307-8.28-13.511c-1.808-2.527-3.849-4.947-6.3-6.875c-3.71-2.944-8.276-4.65-12.67-6.296
			c-0.795-8.475-2.577-22.189-3.425-30.652c-0.086-0.69-0.175-1.412-0.357-2.084c-0.094-0.327-0.207-0.667-0.44-0.922
			c-0.182-0.199-0.427-0.302-0.683-0.367C170.884,75.085,170.15,75.125,169.445,75.15z"/>
	</g>
	<g id="POLYLINE_687_">
		<path fill="none" stroke="#FF6B6B" stroke-width="3" stroke-linecap="round" stroke-linejoin="round" stroke-miterlimit="10" d="
			M573.996,78.626c-0.648-3.376-1.349-6.853-2.921-9.936c-1.19-2.318-2.901-4.409-5.084-5.855
			c-3.767-2.561-8.607-2.232-12.957-2.192c-2.303,0.046-4.684,0.127-6.901,0.805c-1.294,0.39-2.512,1.025-3.675,1.706l-2.402,1.447
			c-0.835,0.507-1.823,0.957-2.714,1.364c-0.714,0.339-1.415,0.756-1.93,1.367c-0.387,0.449-0.662,0.984-0.871,1.535
			c-0.342,0.909-0.538,1.874-0.67,2.834c-0.192,1.455-0.235,2.953-0.139,4.418c0.075,1.085,0.227,2.182,0.573,3.216
			c0.183,0.573,0.471,1.2,0.715,1.752c0.212,0.478,0.404,0.979,0.474,1.5c-0.01,0.001-0.019,0.002-0.019,0.002
			c-0.027,0.003-0.048,0.008-0.065,0.012c-0.012,0.003-0.016,0.005-0.016,0.005c-0.012,0.004-0.015,0.005-0.015,0.005
			c-0.011,0.004-0.015,0.006-0.015,0.006c-0.011,0.005-0.014,0.006-0.014,0.006c-0.01,0.005-0.014,0.007-0.014,0.007
			c-0.01,0.006-0.013,0.008-0.013,0.008c-0.01,0.006-0.013,0.008-0.013,0.008c-0.009,0.007-0.012,0.009-0.012,0.009
			c-0.012,0.01-0.015,0.012-0.015,0.012c-0.011,0.01-0.014,0.013-0.014,0.013c-0.011,0.011-0.013,0.014-0.013,0.014
			c-0.01,0.012-0.013,0.015-0.013,0.015c-0.008,0.01-0.01,0.013-0.01,0.013c-0.106,0.154-0.151,0.327-0.21,0.5
			c-0.111,0.355-0.197,0.726-0.26,1.093c-0.094,0.602-0.171,1.246,0.05,1.829c-1.113,2.302-3.963,7.956-5.112,10.153
			c-1.21,2.244-2.495,4.522-4.122,6.492c-1.12,1.358-2.446,2.556-3.861,3.599c-1.808,1.35-6.402,4.205-8.288,5.503
			c-2.153,1.472-4.311,3.065-6.219,4.845c-1.087,1.014-2.117,2.116-3.001,3.312c-0.992,1.336-1.82,2.804-2.467,4.337
			c-1.087,2.568-1.683,5.336-2.035,8.094c-0.453,3.544-0.535,7.307-0.546,10.882c-2.291,6.966-3.645,14.309-4.206,21.617
			c-0.542,6.904-0.063,13.919,1.271,20.71c1.007,5.196,2.551,11.259,2.627,16.534c0.084,3.282-0.598,7.337-1.047,10.606
			c-0.18,1.36-0.347,2.817-0.384,4.187c-0.036,1.249,0.039,2.552,0.152,3.797c0.174,1.757,0.523,4.853,0.594,6.568
			c0.093,1.781,0.062,3.646-0.046,5.427c-0.453,7.633-2.54,19.149-3.259,26.796c-0.323,3.233-0.351,7.155-0.394,10.422
			c-0.03,1.22-0.111,2.464-0.415,3.649c-1.164,3.941-2.13,9.452-3.133,13.44c-0.568,2.43-1.596,4.994-2.243,7.403
			c-0.286,1.097-0.441,2.247-0.538,3.376c-0.118,1.512-0.287,4.131-0.503,5.575c-0.17,1.222-0.443,2.468-0.784,3.655
			c-1.743,6.013-5.52,12.828-7.862,18.642c-0.989,2.506-1.947,5.105-2.189,7.805c-0.235,2.625,0.605,5.352,0.214,7.972
			c-0.334,2.35-1.252,4.748-1.651,7.086c-0.259,1.491-0.312,3.118,0.429,4.486c-0.832,2.692-1.744,5.485-2.155,8.277
			c-0.103,0.836-0.172,1.712,0.077,2.529c0.166,0.547,0.5,1.051,0.985,1.363c0.35,0.232,0.753,0.373,1.158,0.473
			c1.537,0.339,3.194,0.335,4.763,0.383c2.062-0.013,30.91,0.061,32.195-0.009c0.702-0.027,1.433-0.066,2.126-0.176
			c0.687-0.111,1.386-0.292,1.965-0.694c1.024-0.693,1.405-1.932,1.548-3.104c0.155-1.284,0.11-2.595-0.079-3.873
			c-0.105-0.643-0.225-1.308-0.565-1.873c-0.519-0.856-1.438-1.354-2.309-1.787c-1.466-0.688-3.15-1.454-4.493-2.345
			c-1.102-0.715-2.135-1.553-3.053-2.492c1.407-0.937,2.684-2.087,3.794-3.361c0.957-1.105,1.811-2.326,2.423-3.657
			c0.625-1.343,0.98-2.81,1.242-4.263c0.359-2.154,0.781-4.656,1.428-6.731c1.601-5.374,4.56-12.193,6.523-17.468
			c1.892-5.01,4.24-12.527,6.138-17.537c-0.196,3.314-0.342,6.894-0.173,10.199c0.335,6.529,1.335,13.261,2.437,19.704l1.525,8.076
			c0.676,3.68,0.917,7.409,0.55,11.138l-0.541,5.417c-0.103,1.232-0.207,2.522-0.124,3.755c0.041,0.52,0.108,1.051,0.31,1.535
			c-0.19,1.285-0.415,2.705-0.512,3.998c-0.051,0.715-0.096,1.453-0.024,2.168c0.05,0.568,0.225,1.088,0.499,1.586
			c0.267,0.507,0.661,0.956,1.173,1.224c0.79,0.417,1.708,0.479,2.583,0.536c2.124,0.099,31.94,0.069,34.076,0.014
			c0.899-0.035,1.839-0.09,2.727-0.241c1.361-0.23,2.797-0.72,3.657-1.862c0.448-0.59,0.697-1.309,0.826-2.033
			c0.18-1.025,0.149-2.082,0.019-3.111c-0.206-1.545-0.695-3.133-1.784-4.289c-0.557-0.592-1.253-1.04-1.974-1.406
			c-1.305-0.674-3.446-1.34-4.847-1.844c-1.851-0.677-3.707-1.474-5.262-2.705c0.351-0.181,0.585-0.494,0.748-0.841
			c0.208-0.45,0.308-0.944,0.379-1.431c0.106-0.757,0.138-1.571,0.162-2.336c0.094-3.631-0.006-8.182,0.393-11.779
			c0.202-1.887,0.542-3.788,1.203-5.572c0.908-2.518,2.512-5.128,3.547-7.594c0.983-2.292,1.623-4.751,2.12-7.19
			c2.867-14.242,1.738-33.066,1.72-47.629c-0.032-9.326,0.558-22.115,1.133-31.498c0.14-3.517,0.063-7.127-0.363-10.623
			c-0.305-2.615-1.095-7.84-1.14-10.397c-0.04-1.32,0.055-2.658,0.314-3.954c0.274-1.495,1.027-3.682,1.486-5.154
			c0.656-2.098,1.204-4.305,1.533-6.479c0.427-2.758,0.559-5.662,0.608-8.451c0.074-5.091-0.18-10.601-0.525-15.687
			c1.671,0.136,3.702,0.302,5.35,0.267c2.901-0.046,5.929-0.377,8.809-0.737c5.681-0.77,11.453-1.748,16.909-3.537
			c3.887-1.27,7.604-3.162,11.153-5.177c1.635-0.95,3.334-1.916,4.677-3.266c0.467-0.489,0.9-1.058,1.04-1.732
			c0.206-0.974-0.202-1.954-0.512-2.862c0.102-0.028,5.336-0.542,5.655-0.576c1.805-0.217,3.64-0.52,5.398-0.986
			c1.247-0.336,2.492-0.761,3.637-1.363c0.859-0.454,1.679-1.018,2.331-1.745c0.459-0.509,0.822-1.104,1.083-1.738
			c0.879-2.182,0.701-4.629,0.252-6.891c-0.295-1.419-0.721-2.836-1.42-4.112c-0.438-0.793-0.996-1.538-1.715-2.098
			c-1.391-1.112-3.298-1.179-4.985-0.89c-1.497,0.256-2.951,0.778-4.315,1.44c-1.677,0.788-3.639,2.218-5.199,3.238
			c-0.947,0.618-1.96,1.223-2.971,1.728c-1.71,0.86-3.931,1.759-5.597,2.692c-0.841-0.295-1.692-0.719-2.59-0.801
			c-0.598-0.066-1.205-0.007-1.795,0.096c-1.074,0.19-2.182,0.526-3.224,0.851c0,0-4.973,1.644-4.973,1.644
			c-1.223,0.384-2.512,0.764-3.772,0.996c-1.022,0.191-2.086,0.296-3.125,0.349c-1.457,0.065-3.426,0.085-4.845,0.361
			c-1.093,0.178-2.405,0.524-3.51,0.476c-0.305-0.016-0.613-0.067-0.893-0.191c-0.693-0.303-1.057-1.033-1.247-1.727
			c-0.399-1.486-0.281-3.198-0.29-4.727c0.001-1.767-0.079-3.599-0.778-5.247c-0.543-1.272-1.409-2.382-2.308-3.422
			c0,0-2.302-2.555-2.302-2.555c-0.543-0.624-1.08-1.282-1.528-1.978c-0.496-0.763-0.918-1.608-1.292-2.438
			c-0.561-1.272-1.248-2.956-1.917-4.156c-0.542-0.989-1.203-1.938-1.91-2.817c0.753-0.531,1.412-1.201,1.916-1.974
			c0.86-1.313,1.329-2.844,1.664-4.365c0.638-3.098,0.924-6.531,1.265-9.68c0.463-4.873,0.627-9.856,0.123-14.732
			c0.335-0.42,0.499-0.948,0.557-1.476c0.153-1.526,0.001-3.079-0.206-4.594c0.03-0.388-0.151-0.735-0.392-1.021
			c-0.354-0.415-0.82-0.722-1.295-0.982c-0.785-0.42-1.641-0.71-2.514-0.878C575.584,78.535,574.777,78.485,573.996,78.626z"/>
	</g>
	<g id="POLYLINE_688_">
		<path fill="none" stroke="#FF6B6B" stroke-width="3" stroke-linecap="round" stroke-linejoin="round" stroke-miterlimit="10" d="
			M735.52,72.221c-1.011-3.046-2.527-6.031-4.884-8.255c-2.139-2.008-4.925-3.174-7.746-3.856c-2.403-0.577-4.893-0.928-7.368-0.826
			c-1.747,0.077-3.513,0.399-5.1,1.155c-1.654,0.782-3.084,2.001-4.206,3.44c-2.06,2.568-2.993,6.025-4.004,9.108
			c-0.252,0.764-0.556,1.603-0.873,2.342c-0.314,0.719-0.988,2.081-1.338,2.784c-0.347,0.729-0.681,1.485-0.857,2.275
			c-0.106,0.467-0.144,0.952-0.134,1.431c0.021,1.021,0.26,2.361,0.331,3.381c0.082,1.01,0.055,2.039-0.08,3.044
			c-0.353,2.591-1.146,5.127-2.149,7.536c-0.605,1.416-1.3,2.829-2.2,4.084c-0.617,0.865-1.358,1.654-2.132,2.38
			c-2.295,2.078-4.747,4.318-6.666,6.737c-2.203,2.72-3.976,5.818-5.05,9.156c-0.855,2.596-1.39,5.339-1.765,8.045
			c-1.136,7.829-1.025,22.404-1.278,30.454c-0.063,6.507-0.328,13.492,0.392,19.959c0.181,1.467,0.499,2.936,1.041,4.313
			l0.654,1.623c0.37,0.921,0.551,1.909,0.618,2.897c0.119,1.371,0.01,4.112-0.007,5.525c-0.031,1.991,0.014,4.045,0.282,6.018
			c0.276,2.15,1.15,5.973,1.536,8.131c0.353,1.948,0.617,3.971,0.707,5.949c0.227,4.463-0.202,11.344-0.018,15.81
			c0.114,4.436,1.13,10.554,1.744,14.983c0.184,1.45,0.331,2.962,0.31,4.422c-0.011,1.396-0.178,2.87-0.364,4.255
			c-0.565,4.048-1.353,8.252-2.364,12.211c-0.747,3.086-2.177,6.752-2.895,9.846c-0.135,0.617-0.246,1.262-0.298,1.891
			c-0.081,0.89-0.015,2.199-0.003,3.096c0.006,0.943-0.103,1.897-0.571,2.732c-0.547,1.007-1.446,1.991-2.131,2.909
			c-0.712,0.932-1.341,1.945-1.803,3.025c-0.712,1.642-1.171,3.409-1.532,5.159c-1.172,5.6-1.567,14.719-2.066,20.489
			c-0.269,2.853-0.581,5.817-1.28,8.599c-0.241,0.935-0.535,1.878-0.937,2.757c-0.313,0.687-0.711,1.345-1.138,1.966
			c-0.581,0.854-1.426,1.906-1.813,2.856c-0.237,0.549-0.366,1.141-0.419,1.735c-0.198,2.341,0.38,4.915,0.043,7.249
			c-0.259,1.91-1.394,3.601-2.164,5.33c-0.275,0.624-0.502,1.28-0.63,1.95c-0.214,1.104-0.227,2.248-0.199,3.369l0.165,3.815
			c0.037,1.133,0.014,2.335-0.072,3.465c-0.134,2.068-0.512,4.616-0.228,6.662c0.096,0.652,0.273,1.306,0.621,1.871
			c0.381,0.622,0.975,1.089,1.622,1.412c0.908,0.453,1.917,0.677,2.914,0.829c2.257,0.314,4.631,0.333,6.909,0.346
			c5.76-0.104,14.779-0.212,20.515-0.426c3.102,0.388,6.964,0.392,10.111,0.459c2.239-0.013,30.734,0.054,32.227-0.012
			c0.814-0.024,1.672-0.067,2.481-0.162c0.969-0.118,1.951-0.305,2.839-0.724c0.612-0.288,1.169-0.707,1.582-1.246
			c0.936-1.235,1.259-2.818,1.388-4.333c0.077-1.069,0.055-2.163-0.105-3.224c-0.123-0.805-0.408-1.611-1.009-2.185
			c-0.482-0.472-1.098-0.784-1.716-1.038c-1.338-0.536-2.789-0.849-4.197-1.143c-3.235-0.665-7.123-1.151-10.159-2.442
			c-0.538-0.239-1.066-0.52-1.537-0.873c-0.421-0.314-0.797-0.693-1.142-1.088l-0.906-1.067c-0.643-0.76-1.524-1.372-2.234-2.065
			c-0.484-0.472-0.909-1.02-1.165-1.651c-0.438-1.11-0.43-2.339-0.413-3.515l0.125-2.994c0.021-0.815,0.012-1.648-0.123-2.454
			c-0.153-1.005-0.576-2.207-0.881-3.182c-0.32-1.013-0.523-2.071-0.576-3.133c-0.15-2.542,0.211-5.975,0.249-8.531
			c0.036-2.967-0.209-6.353,0.489-9.254c0.926-4.028,3.705-8.511,5.553-12.199c1.087-2.138,2.13-4.372,2.831-6.67
			c0.901-2.799,1.521-6.966,2.053-9.887c0.322-1.745,0.828-3.476,1.496-5.12c0.849-2.073,1.929-4.594,2.554-6.716
			c0.944-3.145,1.585-6.55,2.181-9.781c0.801-4.529,2.23-13.351,3.221-17.733c0.696-3.282,2.298-8.62,3.165-11.9
			c0.635-2.383,1.036-4.858,1.186-7.32c0.151-2.691,0.362-7.33,0.673-9.934c0.508-4.658,1.29-9.543,2.233-14.133
			c0.525-2.627,1.409-5.938,2.109-8.547c0.333-1.306,0.644-2.69,0.829-4.025c0.612-4.499-0.01-9.114-0.623-13.583
			c-0.373-2.588-1.278-7.402-1.391-9.941c-0.052-1.086-0.007-2.189,0.198-3.258c0.268-1.426,0.795-3.12,1.062-4.546
			c0.237-1.21,0.366-2.458,0.396-3.69c0.072-3.195-0.276-6.42-0.814-9.566c-0.493-2.756-1.134-5.532-2.179-8.135
			c-1.218-3.07-3.199-5.79-5.15-8.43c0.216,0.002,0.435-0.022,0.645-0.069l5.616-0.941c0.071-0.012,0.145-0.027,0.216-0.045
			c0.233-0.058,0.46-0.145,0.673-0.255c0.963-0.505,1.633-1.425,2.1-2.384c2.015-4.176,1.19-11.442-2.15-14.764
			c-0.604-0.585-1.347-1.069-2.186-1.216c-0.248-0.044-0.504-0.056-0.755-0.034c-0.073,0.007-0.155,0.016-0.227,0.029
			c0,0-5.616,0.945-5.616,0.945c0.405-0.955,0.594-1.991,0.674-3.022c0.052-0.714,0.057-1.448-0.124-2.146
			c-0.101-0.383-0.27-0.757-0.541-1.05c-0.328-0.359-0.772-0.594-1.231-0.74l0.512-3.62c0.524-4.138,0.543-8.499,0.527-12.669
			c-0.061-2.283-0.016-4.907-0.317-7.164c-0.126-0.778-0.303-1.585-0.765-2.238C738.317,72.184,736.781,72.105,735.52,72.221z"/>
	</g>
	<g id="POLYLINE_689_">
		<path fill="none" stroke="#FF6B6B" stroke-width="3" stroke-linecap="round" stroke-linejoin="round" stroke-miterlimit="10" d="
			M869.989,71.658c-3.413-2.068-7.031-4.032-10.685-5.635c-2.942-1.263-6.573-2.483-9.625-3.479
			c-0.75-0.214-1.527-0.379-2.309-0.395c-1.105-0.035-2.2,0.279-3.147,0.843c-1.628,0.968-2.953,2.374-4.168,3.808
			c-2.54,3.069-4.648,6.558-6.573,10.038c-2.413,4.463-4.644,9.304-4.702,14.468c-0.023,4.351,1.532,8.535,3.325,12.439
			c0.602,1.289,2.094,4.283,2.561,5.565c0.203,0.552,0.388,1.124,0.469,1.708c0.061,0.438,0.049,0.894-0.092,1.316
			c-0.132,0.406-0.369,0.77-0.635,1.101c-0.292,0.362-0.641,0.715-0.971,1.044c-2.149,2.086-4.933,4.644-6.953,6.829
			c-2.95,3.121-5.549,6.62-7.522,10.44c-1.265,2.45-2.344,5.045-2.956,7.74c-0.343,1.521-0.5,3.1-0.377,4.657
			c0.129,1.75,0.619,3.466,1.202,5.114c0.973,2.675,2.205,5.669,2.696,8.466c0.606,3.205,0.824,7.034,2.104,10.059
			c0,0,1.268,3.026,1.268,3.026c0.631,1.55,1.098,3.187,1.216,4.861c0.333,4.709-0.859,9.623-1.032,14.319
			c-0.082,2.459,0.126,5.013,1.243,7.244c0.426,0.872,1.062,2.027,1.341,2.941c0.177,0.552,0.273,1.133,0.295,1.712
			c0.062,1.404-0.17,2.923-0.008,4.323c0.087,0.82,0.349,1.562,0.804,2.25c0.631,0.979,1.632,1.981,2.287,2.944
			c0.405,0.587,0.741,1.232,0.93,1.922c0.431,1.489,0.317,3.161,0.624,4.672c0.067,0.28,0.157,0.564,0.33,0.799
			c0.174,0.238,0.433,0.369,0.707,0.423c-0.019,0.494-0.053,2.057-0.064,2.575c-0.035,1.039-0.131,2.096-0.327,3.117
			c-0.542,2.734-1.673,5.699-2.086,8.459c-0.191,1.261-0.27,2.569,0.016,3.822c0.479,2.151,1.933,3.908,3.404,5.482
			c1.398,1.447,2.991,3.166,4.489,4.497c0.769,0.676,1.589,1.326,2.484,1.827c0.599,0.333,1.244,0.605,1.921,0.722
			c0.69,0.12,1.408,0.079,2.08-0.119c0.25,1.807,0.59,3.752,0.974,5.534c0.404,1.81,1.302,5.447,1.542,7.203
			c0.407,2.717,0.557,6.341,0.878,9.079c0.372,3.235,1.249,6.761,1.18,10.027c-0.055,3.522-1.3,7.388-1.873,10.85
			c-0.611,3.437-0.661,6.982-0.405,10.458c0.151,1.986,0.421,4.053,0.815,6.005c0.439,2.188,1.274,5.287,1.622,7.484
			c0.591,3.454,0.653,8.731,0.974,12.237c0.149,1.693,0.434,3.405,0.908,5.039c0.414,1.453,1.046,3.057,1.246,4.563l0.224,1.533
			c0.113,0.719,0.261,1.448,0.553,2.117c0.323,0.741,0.796,1.417,1.286,2.056c0.44,0.594,1.085,1.273,1.375,1.954
			c0.089,0.221,0.131,0.466,0.082,0.702c-0.036,0.181-0.116,0.35-0.214,0.505c-0.319,0.492-0.862,0.961-1.269,1.384
			c-0.673,0.683-1.318,1.436-1.67,2.339c-0.301,0.778-0.383,1.626-0.357,2.455c0.039,1.025,0.235,2.053,0.596,3.014
			c0.27,0.738,0.715,1.501,0.913,2.264c0.188,0.735,0.199,1.509,0.197,2.263c0.003,0.822-0.112,2.195,0.03,2.992
			c0.064,0.369,0.189,0.735,0.407,1.042c0.451,0.65,1.237,0.934,1.979,1.098c1.407,0.297,2.888,0.321,4.322,0.351
			c3.705-0.049,23.424,0.134,26.681-0.099c0.91-0.07,1.835-0.177,2.718-0.414c1.99,0.359,4.065,0.494,6.087,0.515
			c7.924-0.039,20.297,0.11,28.098-0.133c1.4-0.064,3.01-0.127,4.392-0.304c1.197-0.151,2.41-0.373,3.516-0.871
			c1.288-0.59,2.434-1.5,3.297-2.624c0.408-0.541,0.752-1.146,0.92-1.806c0.149-0.577,0.152-1.185,0.054-1.77
			c-0.211-1.173-0.685-2.299-1.193-3.371c-0.788-1.619-1.872-3.116-3.273-4.259c-0.544-0.44-1.139-0.838-1.802-1.073
			c-0.807-0.301-2.103-0.367-2.956-0.486c-1.576-0.224-3.183-0.498-4.666-1.093c-1.217-0.49-2.336-1.216-3.385-1.996
			c-0.485-0.372-0.966-0.768-1.38-1.219c-0.25-0.278-0.477-0.591-0.59-0.951c-0.11-0.347-0.096-0.721-0.028-1.076
			c0.153-0.776,0.561-1.6,0.841-2.338c0.456-1.141,0.752-2.354,0.787-3.586c0.043-1.251-0.1-2.521-0.278-3.757
			c-0.173-1.092-0.353-2.21-0.716-3.256c-0.263-0.785-0.811-1.515-1.251-2.21c-0.349-0.55-0.654-1.138-0.893-1.744
			c-0.678-1.76-1.069-3.639-1.378-5.496c-0.19-1.25-0.331-2.54-0.267-3.806c0.049-1.011,0.245-2.02,0.514-2.994
			c0.215-0.78,0.624-2.049,0.743-2.833c0.115-0.681,0.146-1.388,0.125-2.078c-0.028-0.928-0.148-1.891-0.29-2.809
			c-0.367-2.391-1.759-8.778-2.252-11.233c-0.375-1.992-0.737-4.087-0.869-6.106c-0.09-1.393-0.074-2.814,0.188-4.189
			c0.338-1.897,1.242-3.9,1.826-5.732c0.42-1.322,0.712-2.696,0.861-4.076c0.245-2.193,0.125-4.435-0.092-6.626
			c-0.142-1.427-0.364-3.063-0.584-4.482c-0.194-1.219-0.663-3.717-0.737-4.931c-0.164-2.377-0.092-4.888,0.005-7.268
			c0.109-2.15,0.274-4.373,0.821-6.461c0.216-0.843,0.622-2.256,0.771-3.091c0.184-0.943,0.322-1.938,0.397-2.896
			c0.115-1.44,0.081-2.914-0.303-4.314c-0.318-1.222-0.945-2.636-1.374-3.826c-0.413-1.139-0.755-2.341-1.031-3.52
			c1.019-0.385,2.015-0.876,2.92-1.483c0.679-0.458,1.311-1.006,1.786-1.678c0.751-1.049,1.042-2.344,1.211-3.602
			c0.315-2.56,0.143-5.175-0.33-7.705c-0.548-2.936-1.68-6.02-1.939-9.006l-0.153-1.875c0.601-0.574,1.226-1.183,1.54-1.969
			c0.174-0.429,0.213-0.905,0.124-1.359c-0.239-1.193-0.972-2.291-1.487-3.379c-0.184-0.386-0.352-0.789-0.425-1.212
			c-0.115-0.62,0.004-1.254,0.14-1.86c0.781-3.374,1.533-7.025,0.332-10.39c-0.723-2.143-2.071-4.283-2.966-6.355
			c-0.611-1.411-1.064-2.921-1.451-4.408c-0.784-3.184-1.68-7.023-2.678-10.14c-2.808-9.08-6.821-17.832-11.849-25.897
			c-0.893-3.441-1.651-7.477-2.81-10.83c-0.346-0.973-0.754-1.944-1.275-2.837c-1.126-1.981-2.862-3.574-4.562-5.061
			c1.195-1.054,1.949-2.539,2.29-4.082c0.216-0.066,0.433-0.156,0.64-0.247c0.366-0.144,2.188-0.808,2.489-0.987
			c0.334-0.18,0.644-0.408,0.919-0.669c1.417-1.353,1.865-3.45,1.63-5.343c-0.227-1.83-1.063-3.6-2.4-4.88
			c-0.768-0.732-1.716-1.299-2.759-1.525c-0.559-0.122-1.143-0.141-1.706-0.042c-0.589,0.074-2.119,0.77-2.689,0.972
			c-0.568,0.175-1.118,0.431-1.58,0.81c-0.546-0.261-1.129-0.461-1.723-0.578c0.218-0.777,0.281-1.6,0.188-2.401
			c-0.076-0.614-0.247-1.234-0.605-1.747c-0.635-0.921-1.786-1.251-2.855-1.287c-1.682-5.156-4.417-13.78-6.317-18.875
			c0.392-0.453,0.74-1.01,0.738-1.628c-0.006-0.636-0.419-1.196-0.927-1.545c-0.403-0.281-0.876-0.45-1.354-0.551
			C871.361,71.668,870.669,71.64,869.989,71.658z"/>
	</g>
</g>
</svg>
